<svg width="50" height="50" viewBox="0 0 50 50" fill="none" xmlns="http://www.w3.org/2000/svg">
<path d="M38.0272 1.40063C31.4791 1.40063 26.1519 6.72788 26.1519 13.2759C26.1519 14.9364 26.5032 16.5878 27.1722 18.0963L17.4562 23.7059L19.1193 19.5718C20.0398 17.2839 19.0742 15.8403 17.9677 15.2993C16.2001 14.4349 13.3634 15.2739 11.6757 18.1741C9.96738 21.1097 8.96953 23.311 8.16768 25.0797C6.75596 28.1942 6.04658 29.7588 3.13926 31.5416L0.487306 33.0784C0.114454 33.2945 -0.0130847 33.7717 0.202443 34.145L8.32217 48.2088C8.42588 48.3884 8.59678 48.5195 8.79707 48.573C8.86338 48.5908 8.93115 48.5995 8.99863 48.5995C9.13496 48.5995 9.27022 48.5638 9.39023 48.4942L12.6045 46.6323C17.2376 46.7241 22.1129 44.2167 24.0141 43.1191L27.1161 41.3282C27.8303 40.9159 28.3419 40.2477 28.5565 39.4467C28.7712 38.6457 28.6623 37.8114 28.2498 37.097C27.9078 36.5046 27.3981 36.0678 26.8151 35.812C27.4761 34.8573 27.5718 33.5671 26.9536 32.4965C26.5885 31.8638 26.031 31.4086 25.3967 31.1621C25.9451 30.2308 25.9913 29.038 25.4134 28.0371C25.1344 27.5538 24.7439 27.1741 24.2929 26.9118L31.1466 22.9548C33.1615 24.393 35.5279 25.1512 38.0272 25.1512C44.5752 25.1512 49.9023 19.824 49.9023 13.2759C49.9023 6.72788 44.5752 1.40063 38.0272 1.40063ZM9.28408 46.75L1.94551 34.0392L3.93106 32.8887C3.93662 32.8856 3.94199 32.8824 3.94746 32.879C3.96504 32.8682 3.98154 32.8575 3.99893 32.8467L11.3388 45.5597L9.28408 46.75ZM19.948 27.6162C19.5743 27.8319 19.4462 28.3097 19.662 28.6833C19.8066 28.9339 20.0692 29.0741 20.3394 29.0741C20.4718 29.0741 20.6062 29.0403 20.7292 28.9693L21.9644 28.2562L21.9663 28.2551C22.3186 28.0527 22.7308 27.9998 23.1275 28.1061C23.5253 28.2126 23.8565 28.4657 24.0603 28.8185C24.4835 29.5515 24.2314 30.4921 23.4985 30.9152L22.7311 31.3583C22.358 31.5737 22.2296 32.0505 22.4442 32.4241C22.6589 32.7976 23.1355 32.9273 23.5094 32.713C24.2413 32.2948 25.1793 32.5482 25.6005 33.278C26.0237 34.011 25.7717 34.9516 25.0388 35.3748L24.0218 35.962C24.0208 35.9625 24.0198 35.963 24.0189 35.9636V35.9637C23.6452 36.1794 23.5171 36.6573 23.7329 37.0309C23.9485 37.4044 24.4263 37.5325 24.8001 37.3169C24.8001 37.3169 24.8001 37.3169 24.8001 37.3168L24.8047 37.3143C25.5373 36.8946 26.4746 37.1473 26.8969 37.8787C27.1006 38.2315 27.154 38.6449 27.0475 39.0426C26.9408 39.4404 26.6878 39.7717 26.335 39.9753L23.2329 41.7664C21.4777 42.7796 17.0373 45.0749 12.8613 45.0724L5.29209 31.9621C7.5459 30.2347 8.36201 28.4364 9.59102 25.7252C10.3782 23.9886 11.3579 21.8273 13.0263 18.9602C14.3668 16.6567 16.3578 16.2515 17.2815 16.7032C17.9761 17.0428 18.1177 17.8759 17.6699 18.9889L15.1619 25.2228C15.0376 25.532 15.123 25.886 15.3746 26.1043C15.6263 26.3228 15.9888 26.3579 16.2773 26.191L28.9255 18.8886C29.2781 18.6849 29.6915 18.6312 30.0896 18.738C30.4873 18.8446 30.8186 19.0976 31.0223 19.4504C31.4443 20.1816 31.1938 21.1212 30.4654 21.5442L19.948 27.6162ZM38.0272 23.5887C35.9644 23.5887 34.0061 22.9941 32.315 21.8633C32.903 20.9221 32.9671 19.6941 32.3753 18.6689C31.9629 17.9546 31.2947 17.443 30.4938 17.2285C29.8396 17.0531 29.1629 17.0939 28.5476 17.3396C28.0015 16.0634 27.7144 14.6738 27.7144 13.2759C27.7144 7.5895 32.3406 2.96313 38.0272 2.96313C43.7137 2.96313 48.3398 7.5894 48.3398 13.2759C48.3398 18.9625 43.7136 23.5887 38.0272 23.5887ZM45.0545 7.66431C44.6032 7.21304 44.0031 6.9645 43.3648 6.9645C42.7267 6.9645 42.1266 7.21304 41.6753 7.66431L35.7229 13.6168L34.0248 11.4801C33.6281 10.9812 33.0609 10.6665 32.4275 10.5942C31.7941 10.5215 31.1707 10.7005 30.6718 11.0971C30.1729 11.4938 29.8582 12.0611 29.7859 12.6943C29.7136 13.3276 29.8922 13.9512 30.2887 14.45L33.5754 18.5861C33.9822 19.1554 34.6138 19.5165 35.3121 19.5781C35.3828 19.5842 35.4531 19.5874 35.5233 19.5874C36.154 19.5874 36.7594 19.3384 37.2102 18.8876L45.0544 11.0433C45.5057 10.592 45.7542 9.99194 45.7542 9.35376C45.7543 8.71558 45.5058 8.11558 45.0545 7.66431ZM43.9495 9.93853L36.1054 17.7828C35.9296 17.9585 35.6964 18.0436 35.4493 18.0215C35.2037 17.9999 34.9821 17.8717 34.8411 17.6699C34.8318 17.6566 34.8223 17.6437 34.8122 17.6311L31.5117 13.4778C31.3748 13.3055 31.3132 13.0903 31.3382 12.8715C31.3632 12.6528 31.4718 12.457 31.644 12.3201C31.7912 12.2031 31.9698 12.141 32.1551 12.141C32.1866 12.141 32.2184 12.1428 32.2503 12.1464C32.4688 12.1714 32.6647 12.28 32.8017 12.4522L35.0444 15.2745C35.1829 15.4488 35.3893 15.5557 35.6116 15.5684C35.8344 15.5812 36.0511 15.4983 36.2085 15.3409L42.7803 8.76909C42.9364 8.61294 43.144 8.5269 43.3648 8.5269C43.5858 8.5269 43.7935 8.61294 43.9495 8.76909C44.272 9.09155 44.272 9.61616 43.9495 9.93853Z" fill="#325343"/>
</svg>
