<svg width="51" height="51" viewBox="0 0 51 51" fill="none" xmlns="http://www.w3.org/2000/svg">
<g clip-path="url(#clip0_136_7181)">
<path d="M38.7884 1.97046C32.2404 1.97046 26.9131 7.29771 26.9131 13.8458C26.9131 15.5062 27.2645 17.1577 27.9334 18.6662L18.2174 24.2757L19.8806 20.1417C20.8011 17.8538 19.8355 16.4101 18.7289 15.8691C16.9613 15.0047 14.1246 15.8437 12.4369 18.7439C10.7286 21.6795 9.73078 23.8808 8.92893 25.6496C7.51721 28.764 6.80783 30.3287 3.90051 32.1115L1.24856 33.6482C0.875704 33.8643 0.748165 34.3416 0.963692 34.7148L9.08342 48.7787C9.18713 48.9582 9.35803 49.0893 9.55832 49.1428C9.62463 49.1606 9.6924 49.1693 9.75988 49.1693C9.89621 49.1693 10.0315 49.1336 10.1515 49.064L13.3657 47.2021C17.9988 47.2939 22.8741 44.7866 24.7753 43.6889L27.8774 41.898C28.5915 41.4857 29.1031 40.8175 29.3178 40.0166C29.5324 39.2156 29.4236 38.3812 29.0111 37.6668C28.6691 37.0745 28.1594 36.6376 27.5764 36.3818C28.2373 35.4271 28.333 34.137 27.7149 33.0664C27.3497 32.4336 26.7922 31.9785 26.1579 31.7319C26.7064 30.8006 26.7526 29.6079 26.1746 28.6069C25.8956 28.1236 25.5052 27.7439 25.0541 27.4816L31.9078 23.5247C33.9228 24.9628 36.2892 25.721 38.7884 25.721C45.3364 25.721 50.6636 20.3938 50.6636 13.8458C50.6636 7.29771 45.3364 1.97046 38.7884 1.97046ZM10.0453 47.3198L2.70676 34.609L4.69231 33.4585C4.69787 33.4554 4.70324 33.4522 4.70871 33.4488C4.72629 33.438 4.74279 33.4273 4.76018 33.4166L12.1 46.1295L10.0453 47.3198ZM20.7092 28.186C20.3356 28.4017 20.2074 28.8795 20.4233 29.2532C20.5679 29.5038 20.8305 29.6439 21.1006 29.6439C21.233 29.6439 21.3674 29.6101 21.4904 29.5391L22.7256 28.826L22.7276 28.825C23.0798 28.6225 23.492 28.5696 23.8888 28.6759C24.2865 28.7825 24.6178 29.0355 24.8215 29.3883C25.2447 30.1213 24.9927 31.062 24.2598 31.485L23.4923 31.9281C23.1193 32.1435 22.9908 32.6204 23.2055 32.9939C23.4201 33.3674 23.8967 33.4971 24.2706 33.2829C25.0026 32.8646 25.9405 33.118 26.3617 33.8478C26.785 34.5808 26.5329 35.5214 25.8 35.9446L24.783 36.5318C24.7821 36.5324 24.7811 36.5329 24.7801 36.5334V36.5335C24.4065 36.7493 24.2783 37.2271 24.4942 37.6007C24.7098 37.9743 25.1875 38.1023 25.5613 37.8868C25.5613 37.8868 25.5613 37.8868 25.5613 37.8867L25.5659 37.8841C26.2986 37.4644 27.2359 37.7171 27.6581 38.4485C27.8618 38.8013 27.9153 39.2147 27.8087 39.6124C27.7021 40.0102 27.449 40.3415 27.0962 40.5452L23.9942 42.3362C22.239 43.3495 17.7986 45.6447 13.6226 45.6422L6.05334 32.5319C8.30715 30.8045 9.12326 29.0062 10.3523 26.2951C11.1395 24.5584 12.1192 22.3971 13.7875 19.53C15.128 17.2265 17.1191 16.8213 18.0428 17.273C18.7373 17.6126 18.8789 18.4458 18.4312 19.5587L15.9232 25.7926C15.7988 26.1018 15.8842 26.4558 16.1359 26.6742C16.3875 26.8926 16.75 26.9277 17.0386 26.7608L29.6867 19.4584C30.0394 19.2547 30.4528 19.201 30.8508 19.3079C31.2486 19.4144 31.5798 19.6674 31.7835 20.0203C32.2056 20.7514 31.9551 21.6911 31.2267 22.114L20.7092 28.186ZM38.7884 24.1585C36.7256 24.1585 34.7673 23.5639 33.0763 22.4332C33.6643 21.4919 33.7283 20.2639 33.1365 19.2387C32.7241 18.5245 32.056 18.0128 31.255 17.7983C30.6008 17.6229 29.9241 17.6637 29.3088 17.9094C28.7627 16.6333 28.4756 15.2436 28.4756 13.8458C28.4756 8.15933 33.1019 3.53296 38.7884 3.53296C44.4749 3.53296 49.1011 8.15923 49.1011 13.8458C49.1011 19.5323 44.4748 24.1585 38.7884 24.1585ZM45.8157 8.23413C45.3645 7.78286 44.7644 7.53433 44.1261 7.53433C43.4879 7.53433 42.8878 7.78286 42.4365 8.23413L36.4841 14.1867L34.7861 12.05C34.3894 11.551 33.8222 11.2363 33.1888 11.164C32.5554 11.0914 31.932 11.2704 31.433 11.6669C30.9341 12.0636 30.6195 12.6309 30.5472 13.2641C30.4748 13.8974 30.6534 14.521 31.0499 15.0199L34.3366 19.1559C34.7435 19.7252 35.375 20.0863 36.0734 20.1479C36.1441 20.1541 36.2144 20.1572 36.2846 20.1572C36.9153 20.1572 37.5206 19.9083 37.9714 19.4575L45.8156 11.6131C46.2669 11.1619 46.5155 10.5618 46.5155 9.92358C46.5155 9.2854 46.267 8.6854 45.8157 8.23413ZM44.7108 10.5083L36.8666 18.3526C36.6908 18.5284 36.4576 18.6134 36.2106 18.5914C35.965 18.5697 35.7434 18.4416 35.6024 18.2397C35.5931 18.2264 35.5835 18.2135 35.5735 18.2009L32.273 14.0476C32.1361 13.8753 32.0744 13.6601 32.0994 13.4414C32.1244 13.2226 32.233 13.0268 32.4053 12.8899C32.5525 12.7729 32.7311 12.7108 32.9163 12.7108C32.9479 12.7108 32.9796 12.7126 33.0115 12.7163C33.2301 12.7413 33.426 12.8499 33.5629 13.022L35.8057 15.8443C35.9442 16.0186 36.1505 16.1255 36.3729 16.1382C36.5956 16.151 36.8123 16.0681 36.9697 15.9107L43.5415 9.33892C43.6977 9.18276 43.9053 9.09673 44.1261 9.09673C44.3471 9.09673 44.5547 9.18276 44.7108 9.33892C45.0332 9.66138 45.0332 10.186 44.7108 10.5083Z" fill="#1CBE72"/>
</g>
<defs>
<clipPath id="clip0_136_7181">
<rect width="50" height="50" fill="white" transform="translate(0.76123 0.569824)"/>
</clipPath>
</defs>
</svg>
