<svg width="50" height="50" viewBox="0 0 50 50" fill="none" xmlns="http://www.w3.org/2000/svg">
<path d="M47.7625 10.3516L40.9891 3.58169C40.8564 3.46004 40.6846 3.38992 40.5047 3.38403H26.0762C25.6192 3.38455 25.1812 3.56629 24.8581 3.88939C24.535 4.21248 24.3532 4.65055 24.3527 5.10747V8.75513L23.6168 8.01919C23.5534 7.95567 23.4781 7.90528 23.3951 7.8709C23.3122 7.83651 23.2234 7.81882 23.1336 7.81882C23.0438 7.81882 22.955 7.83651 22.872 7.8709C22.7891 7.90528 22.7138 7.95567 22.6504 8.01919L20.7687 9.90005C20.3932 9.72153 20.0084 9.56323 19.616 9.42583V6.7606C19.6161 6.67081 19.5984 6.5819 19.5641 6.49893C19.5297 6.41597 19.4794 6.34059 19.4159 6.27711C19.3524 6.21362 19.277 6.16327 19.1941 6.12893C19.1111 6.0946 19.0222 6.07695 18.9324 6.077H12.9168C12.827 6.07695 12.7381 6.0946 12.6551 6.12893C12.5722 6.16327 12.4968 6.21362 12.4333 6.27711C12.3698 6.34059 12.3195 6.41597 12.2851 6.49893C12.2508 6.5819 12.2332 6.67081 12.2332 6.7606V9.42583C11.8407 9.56337 11.4558 9.72166 11.0801 9.90005L9.19883 8.01919C9.13541 7.95567 9.06009 7.90528 8.97717 7.8709C8.89426 7.83651 8.80538 7.81882 8.71562 7.81882C8.62587 7.81882 8.53699 7.83651 8.45407 7.8709C8.37116 7.90528 8.29584 7.95567 8.23242 8.01919L3.9793 12.2723C3.91578 12.3357 3.86539 12.4111 3.831 12.494C3.79662 12.5769 3.77892 12.6658 3.77892 12.7555C3.77892 12.8453 3.79662 12.9342 3.831 13.0171C3.86539 13.1 3.91578 13.1753 3.9793 13.2387L5.85937 15.1172C5.6791 15.4929 5.52051 15.8785 5.38437 16.2723H2.7207C2.5394 16.2723 2.36553 16.3443 2.23733 16.4725C2.10913 16.6007 2.03711 16.7746 2.03711 16.9559V22.9715C2.03711 23.1528 2.10913 23.3267 2.23733 23.4549C2.36553 23.5831 2.5394 23.6551 2.7207 23.6551H5.38281C5.51877 24.0497 5.6779 24.4359 5.85937 24.8118L3.98086 26.6903C3.91734 26.7537 3.86695 26.829 3.83257 26.9119C3.79818 26.9948 3.78049 27.0837 3.78049 27.1735C3.78049 27.2632 3.79818 27.3521 3.83257 27.435C3.86695 27.5179 3.91734 27.5933 3.98086 27.6567L8.23242 31.9098C8.29584 31.9733 8.37116 32.0237 8.45407 32.0581C8.53699 32.0925 8.62587 32.1102 8.71562 32.1102C8.80538 32.1102 8.89426 32.0925 8.97717 32.0581C9.06009 32.0237 9.13541 31.9733 9.19883 31.9098L11.0781 30.0305C11.1328 30.0571 11.1898 30.0801 11.2453 30.1059V43.8739C11.2461 44.601 11.5354 45.298 12.0495 45.8121C12.5637 46.3262 13.2608 46.6153 13.9879 46.6161H42.4023C43.1294 46.6152 43.8264 46.3261 44.3406 45.812C44.8547 45.2979 45.144 44.6009 45.1449 43.8739V34.1864H46.2387C46.6956 34.1859 47.1337 34.0041 47.4568 33.681C47.7798 33.3579 47.9616 32.9199 47.9621 32.4629V10.8372C47.9583 10.6561 47.8871 10.483 47.7625 10.3516ZM45.6297 10.1563H41.5492C41.4538 10.1562 41.3624 10.1183 41.2949 10.0508C41.2275 9.98337 41.1896 9.89192 41.1894 9.79653V5.71802C41.6434 6.17192 39.5445 4.07466 45.6297 10.1563ZM10.4629 28.711L8.71562 30.4583L5.42969 27.1735L7.17695 25.4262C7.28136 25.3218 7.34919 25.1864 7.37031 25.0402C7.39144 24.8941 7.36471 24.745 7.29414 24.6153C6.9777 24.032 6.72456 23.4165 6.53906 22.7793C6.49746 22.6376 6.41107 22.5132 6.29284 22.4247C6.17461 22.3362 6.03089 22.2883 5.8832 22.2883H3.4043V17.6399H5.88203C6.02951 17.6399 6.17302 17.5922 6.29115 17.5039C6.40929 17.4156 6.4957 17.2915 6.5375 17.15C6.7252 16.5129 6.97878 15.8971 7.29414 15.3125C7.36431 15.1831 7.3908 15.0344 7.36969 14.8886C7.34858 14.7429 7.28098 14.6078 7.17695 14.5036L5.42969 12.7555L8.71601 9.46919L10.4633 11.2161C10.5667 11.3198 10.7009 11.3875 10.8458 11.4091C10.9907 11.4307 11.1388 11.4051 11.268 11.336C11.8578 11.0234 12.4766 10.769 13.1156 10.5762C13.2559 10.5335 13.3787 10.4469 13.466 10.3291C13.5533 10.2113 13.6004 10.0685 13.6004 9.92192V7.44419H18.2488V9.92192C18.2489 10.0686 18.296 10.2114 18.3834 10.3292C18.4707 10.447 18.5937 10.5336 18.734 10.5762C19.373 10.7688 19.9917 11.0233 20.5812 11.336C20.7105 11.4052 20.8586 11.4309 21.0036 11.4093C21.1487 11.3877 21.2828 11.3199 21.3863 11.2161L23.1336 9.46919L26.4199 12.7555L24.673 14.5024C24.569 14.6066 24.5014 14.7417 24.4803 14.8875C24.4592 15.0332 24.4857 15.1819 24.5559 15.3114C24.8713 15.8964 25.1249 16.5128 25.3125 17.1504C25.3543 17.2919 25.4407 17.416 25.5588 17.5043C25.677 17.5926 25.8205 17.6403 25.968 17.6403H28.4457V22.2266H22.9687C23.3803 20.9453 23.4346 19.5761 23.1258 18.2662C22.817 16.9564 22.1568 15.7555 21.2163 14.793C20.2757 13.8305 19.0905 13.1427 17.7881 12.8037C16.4858 12.4647 15.1156 12.4874 13.8252 12.8692C12.5347 13.251 11.3728 13.9775 10.4646 14.9706C9.55638 15.9637 8.9362 17.1857 8.67083 18.505C8.40546 19.8243 8.50495 21.191 8.95859 22.458C9.41223 23.725 10.2028 24.8443 11.2453 25.6954V28.5813C11.1176 28.519 10.9736 28.498 10.8334 28.5213C10.6932 28.5445 10.5637 28.6108 10.4629 28.711ZM43.7777 27.7938L32.4191 32.5817C32.3283 32.2414 32.1279 31.9405 31.8488 31.7256C31.5697 31.5107 31.2276 31.3938 30.8754 31.393H25.5148C25.1638 31.394 24.8229 31.5107 24.5449 31.7249C24.2668 31.9391 24.0671 32.239 23.9766 32.5782L12.6125 27.7946V24.9688C12.6131 24.6042 12.7582 24.2548 13.0161 23.9971C13.2739 23.7393 13.6233 23.5943 13.9879 23.5938H42.4023C42.767 23.5942 43.1166 23.7393 43.3744 23.9971C43.6323 24.2549 43.7773 24.6045 43.7777 24.9692V27.7938ZM25.2832 32.9891C25.2833 32.9277 25.3078 32.8689 25.3512 32.8256C25.3946 32.7822 25.4535 32.7579 25.5148 32.7579H30.8754C30.9374 32.7572 30.9972 32.7812 31.0415 32.8246C31.0859 32.8679 31.1113 32.9271 31.1121 32.9891V36.036C31.1114 36.0981 31.0861 36.1573 31.0417 36.2008C30.9973 36.2442 30.9375 36.2683 30.8754 36.2676H25.5148C25.4534 36.2675 25.3946 36.2431 25.3512 36.1997C25.3077 36.1562 25.2833 36.0974 25.2832 36.036V32.9891ZM21.5195 22.2266H13.9879C13.4334 22.2297 12.8927 22.3993 12.4359 22.7135C11.9791 23.0277 11.6273 23.472 11.4262 23.9887C10.4334 22.8854 9.88694 21.4519 9.89336 19.9676C9.89405 19.0784 10.0913 18.2004 10.4711 17.3963C10.8509 16.5923 11.4037 15.8822 12.09 15.3168C12.7764 14.7514 13.5792 14.3448 14.4411 14.126C15.303 13.9073 16.2026 13.8818 17.0754 14.0514C17.9483 14.221 18.7729 14.5815 19.4902 15.1071C20.2074 15.6327 20.7996 16.3104 21.2243 17.0916C21.6489 17.8728 21.8956 18.7383 21.9467 19.6261C21.9977 20.5138 21.8519 21.4018 21.5195 22.2266ZM43.7777 43.8743C43.7773 44.2389 43.6323 44.5884 43.3744 44.8462C43.1165 45.104 42.767 45.249 42.4023 45.2493H13.9879C13.6233 45.2489 13.2738 45.1039 13.0159 44.8461C12.7581 44.5883 12.613 44.2388 12.6125 43.8743V29.2782L23.916 34.0379V36.0379C23.9167 36.4618 24.0854 36.868 24.3851 37.1677C24.6848 37.4674 25.091 37.636 25.5148 37.6368H30.8754C31.3001 37.6374 31.7076 37.4693 32.0084 37.1695C32.3092 36.8696 32.4786 36.4626 32.4793 36.0379V34.0399L43.7777 29.2786V43.8743ZM46.2387 32.8196H45.1449V24.9688C45.144 24.2417 44.8547 23.5447 44.3406 23.0307C43.8264 22.5166 43.1294 22.2274 42.4023 22.2266H29.8121V16.9567C29.8122 16.8669 29.7945 16.778 29.7602 16.695C29.7258 16.6121 29.6755 16.5367 29.612 16.4732C29.5485 16.4097 29.4731 16.3594 29.3902 16.325C29.3072 16.2907 29.2183 16.273 29.1285 16.2731H26.4656C26.3296 15.8791 26.1712 15.4931 25.991 15.1172L27.8699 13.2379C27.9334 13.1745 27.9838 13.0992 28.0182 13.0163C28.0526 12.9334 28.0703 12.8445 28.0703 12.7547C28.0703 12.665 28.0526 12.5761 28.0182 12.4932C27.9838 12.4103 27.9334 12.335 27.8699 12.2715L25.7215 10.1231V5.10747C25.7216 5.01302 25.7592 4.92247 25.8259 4.85568C25.8927 4.78889 25.9833 4.75132 26.0777 4.75122H39.8238V9.79614C39.8243 10.254 40.0065 10.693 40.3302 11.0167C40.654 11.3405 41.0929 11.5226 41.5508 11.5231H46.5973V32.461C46.5972 32.5079 46.5878 32.5543 46.5698 32.5976C46.5518 32.6408 46.5254 32.6801 46.4921 32.7132C46.4589 32.7463 46.4195 32.7725 46.3761 32.7904C46.3328 32.8082 46.2863 32.8173 46.2395 32.8172L46.2387 32.8196Z" fill="#1CBE72"/>
</svg>
