<svg width="50" height="50" viewBox="0 0 50 50" fill="none" xmlns="http://www.w3.org/2000/svg">
<g clip-path="url(#clip0_48_3758)">
<path d="M49.4654 39.1319L48.3152 38.6243C48.2704 38.4632 48.2217 38.3087 48.1696 38.1581L48.8106 37.0535C48.9578 36.7988 48.9603 36.4856 48.8172 36.2286C48.48 35.6282 48.0779 35.0665 47.6181 34.5537C47.4166 34.327 47.1074 34.2286 46.812 34.2975L45.6016 34.574C45.4828 34.4813 45.3607 34.3913 45.2355 34.3039L45.1183 33.0203C45.0915 32.7241 44.9084 32.4648 44.6384 32.3403C44.021 32.0519 43.3729 31.8344 42.7064 31.6919C42.4095 31.6286 42.1017 31.7328 41.9044 31.9636L41.0567 32.9478H40.65L39.8024 31.9636C39.6056 31.732 39.2973 31.6276 39.0003 31.6919C38.3339 31.8344 37.6858 32.0518 37.0683 32.3403C36.7982 32.4648 36.6153 32.7242 36.5884 33.0203L36.4713 34.3039C36.346 34.391 36.224 34.4809 36.1052 34.574L34.8948 34.2975C34.5994 34.2291 34.2903 34.3274 34.0886 34.5537C33.6287 35.0664 33.2269 35.6285 32.8904 36.2295C32.7472 36.4861 32.7496 36.7991 32.8969 37.0535L33.537 38.1574C33.4849 38.3079 33.4364 38.4635 33.3914 38.6243L32.2412 39.1319C31.939 39.2648 31.744 39.5639 31.7442 39.8941V41.7796C31.744 42.1098 31.939 42.4088 32.2412 42.5418L33.3914 43.0494C33.4362 43.2105 33.4849 43.365 33.537 43.5155L32.896 44.6203C32.7488 44.8749 32.7463 45.1882 32.8895 45.4451C33.2266 46.0456 33.6287 46.6072 34.0885 47.12C34.2902 47.3468 34.5999 47.4452 34.8955 47.3763L36.1042 47.0989C36.223 47.1924 36.3458 47.2828 36.4711 47.3698L36.5882 48.6535C36.6151 48.9497 36.7981 49.209 37.0681 49.3335C37.6855 49.6219 38.3336 49.8394 39.0001 49.9818C39.297 50.0449 39.6047 49.9407 39.8021 49.7102L40.6498 48.7259H41.0565L41.9042 49.7102C42.0623 49.8942 42.2929 50 42.5355 49.9998C42.5928 49.9999 42.6501 49.9938 42.7063 49.9818C43.3728 49.8394 44.0209 49.622 44.6383 49.3335C44.9084 49.209 45.0914 48.9496 45.1182 48.6535L45.2354 47.3698C45.3606 47.2828 45.4826 47.1927 45.6015 47.0997L46.8119 47.3763C47.1073 47.4452 47.4166 47.3468 47.618 47.12C48.0777 46.6073 48.4798 46.0456 48.8171 45.4451C48.9602 45.1882 48.9577 44.875 48.8105 44.6203L48.1695 43.5156C48.2216 43.3652 48.2704 43.2106 48.3151 43.0495L49.4653 42.5419C49.7675 42.4089 49.9625 42.1099 49.9623 41.7797V39.8941C49.9626 39.564 49.7676 39.2648 49.4654 39.1319ZM47.2707 41.6894C47.0294 41.7955 46.8528 42.0098 46.7949 42.267C46.7188 42.6101 46.6137 42.9462 46.4809 43.2716C46.3815 43.5117 46.3996 43.7844 46.5297 44.0094L47.1227 45.0311C46.9885 45.2394 46.8436 45.4422 46.6883 45.6396L45.5722 45.3842C45.311 45.3232 45.0364 45.393 44.8361 45.5713C44.5766 45.7989 44.2986 46.0044 44.0047 46.1854C43.7819 46.3231 43.6367 46.5575 43.6126 46.8183L43.5044 48.0076C43.2808 48.0955 43.0562 48.1719 42.8325 48.2354L42.0695 47.3495C41.9113 47.1658 41.6808 47.0601 41.4383 47.06H40.2686C40.0261 47.0601 39.7957 47.1659 39.6374 47.3495L38.8744 48.2354C38.6508 48.172 38.4262 48.0955 38.2025 48.0076L38.0943 46.8183C38.0703 46.5575 37.9251 46.3231 37.7022 46.1854C37.4085 46.0046 37.1307 45.799 36.8716 45.5713C36.6703 45.3935 36.3957 45.3235 36.1338 45.3834L35.0186 45.6388C34.8632 45.4427 34.7184 45.2394 34.5842 45.0311L35.1771 44.0094C35.3072 43.7844 35.3253 43.5118 35.226 43.2716C35.0931 42.9462 34.988 42.6101 34.9119 42.267C34.8539 42.0098 34.6773 41.7955 34.4361 41.6894L33.4103 41.2371V40.4366L34.4361 39.9843C34.6774 39.8782 34.854 39.6639 34.9119 39.4068C34.9882 39.0632 35.0932 38.7265 35.226 38.4005C35.3253 38.1606 35.3073 37.8882 35.1771 37.6635L34.5849 36.6418C34.7183 36.4344 34.8631 36.231 35.0185 36.0341L36.1345 36.2895C36.3958 36.3496 36.6699 36.28 36.8707 36.1024C37.1302 35.8748 37.4082 35.6694 37.702 35.4883C37.9248 35.3507 38.0701 35.1163 38.0941 34.8555L38.2023 33.6662C38.426 33.5783 38.6506 33.5019 38.8742 33.4384L39.6372 34.3242C39.7955 34.508 40.0259 34.6137 40.2685 34.6138H41.4382C41.6807 34.6137 41.9111 34.5079 42.0695 34.3242L42.8325 33.4384C43.0562 33.5018 43.2808 33.5783 43.5044 33.6662L43.6126 34.8555C43.6367 35.1163 43.7819 35.3507 44.0047 35.4883C44.2986 35.6694 44.5766 35.8748 44.8361 36.1024C45.0368 36.2801 45.3111 36.3497 45.5722 36.2895L46.6883 36.0341C46.8436 36.231 46.9885 36.4338 47.1227 36.6426L46.5297 37.6644C46.3997 37.8894 46.3815 38.162 46.4809 38.4022C46.6137 38.7276 46.7188 39.0637 46.7949 39.4068C46.8529 39.6639 47.0295 39.8782 47.2707 39.9843L48.2966 40.4366V41.2371L47.2707 41.6894Z" fill="#325343"/>
<path d="M40.8534 36.672C38.5532 36.672 36.6885 38.5367 36.6885 40.8369C36.6885 43.1371 38.5532 45.0018 40.8534 45.0018C43.1535 45.0018 45.0183 43.1371 45.0183 40.8369C45.0156 38.5379 43.1525 36.6747 40.8534 36.672ZM40.8534 43.3358C39.4732 43.3358 38.3544 42.217 38.3544 40.8369C38.3544 39.4568 39.4732 38.338 40.8534 38.338C42.2335 38.338 43.3523 39.4568 43.3523 40.8369C43.3507 42.2164 42.2329 43.3344 40.8534 43.3358Z" fill="#325343"/>
<path d="M23.3608 3.35284C16.4602 3.35284 10.8661 8.94692 10.8661 15.8475C10.8736 22.745 16.4633 28.3347 23.3608 28.3422C30.2614 28.3422 35.8555 22.7481 35.8555 15.8475C35.8555 8.94692 30.2614 3.35284 23.3608 3.35284ZM12.9822 18.9346C11.2761 13.2038 14.5388 7.17497 20.2696 5.46882C21.2728 5.1702 22.3141 5.01859 23.3608 5.0188C24.4063 5.01974 25.4461 5.1728 26.4475 5.47298C26.2441 5.60709 26.0325 5.73683 25.8443 5.87865C25.5593 6.09324 25.4426 6.46548 25.5539 6.8044L25.9363 7.96849C25.7793 8.11655 25.6256 8.27023 25.4775 8.42725L24.3143 8.04491C23.9757 7.93548 23.6051 8.05158 23.3893 8.33448C22.7739 9.14278 22.2594 10.0231 21.8576 10.9563C21.7176 11.2845 21.8024 11.6652 22.0682 11.9032L22.9947 12.7329C22.9313 12.9403 22.8752 13.1494 22.8255 13.3585L21.6183 13.6123C21.233 13.6936 20.957 14.0335 20.9569 14.4274V17.268C20.957 17.6619 21.2329 18.0018 21.6183 18.083L22.8255 18.3369C22.8752 18.546 22.9313 18.755 22.9939 18.9625L22.0681 19.7922C21.8023 20.0301 21.7175 20.4109 21.8575 20.7391C22.2593 21.6716 22.7731 22.5517 23.3876 23.3601C23.6022 23.6451 23.9744 23.7619 24.3133 23.6505L25.4774 23.2681C25.6255 23.4251 25.7792 23.5788 25.9362 23.7269L25.5538 24.8901C25.4428 25.2287 25.5591 25.6003 25.8434 25.8151C26.0316 25.9573 26.2438 26.0877 26.4478 26.2222C20.717 27.9281 14.6882 24.6655 12.9822 18.9346ZM28.3797 25.4341C28.0189 25.25 27.6681 25.0469 27.3288 24.8257L27.6892 23.7292C27.795 23.4067 27.6949 23.0523 27.4362 22.8328C27.0518 22.5077 26.6951 22.1513 26.3697 21.7672C26.1499 21.5094 25.7962 21.4099 25.4741 21.515L24.3742 21.8771C24.1011 21.4758 23.8552 21.0568 23.6381 20.6227L24.5118 19.8394C24.7647 19.613 24.8551 19.2559 24.7403 18.9364C24.5696 18.4648 24.4387 17.9795 24.349 17.486C24.2887 17.1525 24.0324 16.8887 23.7007 16.819L22.6228 16.592V15.1034L23.7007 14.8764C24.0324 14.8066 24.2887 14.5429 24.349 14.2094C24.439 13.7153 24.5699 13.2297 24.7403 12.7573C24.8551 12.438 24.7646 12.0812 24.5118 11.8552L23.6381 11.0727C23.8554 10.6387 24.1013 10.2196 24.3742 9.81833L25.4748 10.1804C25.7973 10.2853 26.1512 10.1855 26.3712 9.92734C26.6963 9.54303 27.0527 9.1863 27.4368 8.86092C27.6949 8.64122 27.7945 8.28731 27.689 7.96526L27.3286 6.86875C27.668 6.64801 28.0187 6.44518 28.3793 6.26109C29.5182 6.86239 30.5412 7.66101 31.4009 8.61998C27.4092 9.69307 25.0431 13.7989 26.1162 17.7907C26.8092 20.3686 28.823 22.3824 31.4009 23.0754C30.5415 24.0342 29.5185 24.8328 28.3797 25.4341ZM27.585 15.019C27.9527 12.464 29.96 10.4567 32.515 10.089C34.7477 13.6034 34.7477 18.0917 32.515 21.606C29.3346 21.1485 27.1274 18.1993 27.585 15.019Z" fill="#325343"/>
<path d="M45.3053 14.237L44.3064 13.7961C44.2722 13.6766 44.2364 13.5595 44.1974 13.4447L44.7546 12.484C44.9019 12.2296 44.9044 11.9166 44.7612 11.66C44.4552 11.1144 44.0902 10.604 43.6728 10.138C43.4709 9.91081 43.161 9.81221 42.865 9.88093L41.8157 10.1209C41.727 10.0526 41.6367 9.98588 41.5447 9.92164L41.4423 8.80472C41.4146 8.50922 41.2323 8.25068 40.9631 8.12553C40.402 7.86283 39.8128 7.66489 39.2069 7.53578C38.9197 7.47528 38.6219 7.57087 38.4236 7.78713L37.5042 8.78618C33.6238 0.965029 24.1378 -2.22966 16.3166 1.65067C8.49545 5.531 5.30066 15.017 9.18099 22.8382C9.41287 23.3056 9.66777 23.7613 9.94473 24.2035L7.71641 26.9888C7.5748 27.1667 7.5116 27.3945 7.54148 27.62C7.57126 27.8458 7.69277 28.0494 7.87748 28.1828L9.68651 29.4984L0.223654 41.1444C-0.0665347 41.5025 -0.0114539 42.028 0.346623 42.3182C0.347664 42.319 0.348705 42.3198 0.349643 42.3207L4.51454 45.6526C4.8722 45.938 5.39292 45.8821 5.68186 45.5273L15.3557 33.6216L17.0402 34.8467C17.4001 35.1085 17.9024 35.0412 18.1806 34.6937L20.7797 31.4446C27.6347 32.6327 34.4508 29.1519 37.5074 22.9021L38.4186 23.9048C38.5765 24.0784 38.8004 24.1773 39.0352 24.1772C39.0926 24.1773 39.1498 24.1713 39.206 24.1593C39.8122 24.0302 40.4018 23.8323 40.9631 23.5696C41.2322 23.4444 41.4146 23.1858 41.4423 22.8904L41.5447 21.7735C41.6367 21.7084 41.727 21.6417 41.8148 21.5742L42.865 21.8142C43.161 21.8834 43.4712 21.7847 43.6728 21.5571C44.0898 21.0913 44.4544 20.5812 44.7603 20.036C44.9041 19.7793 44.9021 19.4658 44.7546 19.2111L44.1974 18.2504C44.2364 18.1356 44.2722 18.0185 44.3064 17.899L45.3053 17.4581C45.6075 17.3252 45.8025 17.0261 45.8023 16.6959V14.9991C45.8025 14.669 45.6076 14.37 45.3053 14.237ZM4.91 43.8354L2.0458 41.5438L11.0361 30.48L14.006 32.6405L4.91 43.8354ZM17.3762 33.0318L15.6963 31.81L15.6016 31.7411L9.56208 27.3483L10.9409 25.6259C12.9866 28.224 15.7933 30.1173 18.9684 31.0411L17.3762 33.0318ZM23.3608 30.0082C15.5401 30.0082 9.20015 23.6683 9.20015 15.8476C9.2089 8.03046 15.5437 1.69566 23.3608 1.68691C31.1815 1.68691 37.5215 8.02682 37.5215 15.8476C37.5215 23.6683 31.1815 30.0082 23.3608 30.0082ZM44.1365 16.1535L43.2636 16.5382C43.0222 16.6443 42.8456 16.8586 42.7878 17.1158C42.72 17.4207 42.6269 17.7195 42.5095 18.0089C42.4102 18.2485 42.4283 18.5207 42.5584 18.7451L43.066 19.6203C42.9642 19.7757 42.8555 19.9278 42.7398 20.0767L41.788 19.8587C41.5266 19.7973 41.2517 19.8668 41.051 20.0449C40.8205 20.2475 40.5734 20.4303 40.3123 20.5916C40.0906 20.7293 39.946 20.9629 39.9219 21.2229L39.8284 22.2421C39.6584 22.308 39.4878 22.3658 39.3167 22.4154L38.2292 21.2182C39.5086 17.7469 39.5067 13.9329 38.224 10.4629L39.3143 9.27889C39.4852 9.32856 39.6576 9.38707 39.8285 9.45298L39.922 10.4722C39.9463 10.7325 40.0911 10.9665 40.3133 11.1043C40.5742 11.265 40.8211 11.4476 41.0511 11.6501C41.252 11.8278 41.5267 11.8973 41.7881 11.8363L42.7399 11.6183C42.8553 11.7672 42.9641 11.9193 43.0661 12.0747L42.5585 12.9499C42.4284 13.1743 42.4104 13.4465 42.5096 13.6861C42.627 13.9755 42.7201 14.2744 42.7879 14.5792C42.8459 14.8364 43.0224 15.0507 43.2637 15.1568L44.1366 15.5415L44.1365 16.1535Z" fill="#325343"/>
</g>
<defs>
<clipPath id="clip0_48_3758">
<rect width="50" height="50" fill="white"/>
</clipPath>
</defs>
</svg>
