<svg width="51" height="51" viewBox="0 0 51 51" fill="none" xmlns="http://www.w3.org/2000/svg">
<g clip-path="url(#clip0_136_7183)">
<path d="M50.2266 39.7017L49.0764 39.1941C49.0316 39.033 48.9828 38.8785 48.9308 38.728L49.5718 37.6233C49.719 37.3686 49.7215 37.0554 49.5783 36.7985C49.2412 36.198 48.8391 35.6363 48.3793 35.1235C48.1778 34.8969 47.8685 34.7985 47.5731 34.8673L46.3627 35.1438C46.2439 35.0511 46.1219 34.9611 45.9966 34.8738L45.8795 33.5901C45.8526 33.2939 45.6696 33.0346 45.3996 32.9101C44.7821 32.6217 44.1341 32.4042 43.4676 32.2617C43.1706 32.1984 42.8628 32.3027 42.6655 32.5334L41.8179 33.5177H41.4112L40.5635 32.5334C40.3667 32.3018 40.0584 32.1974 39.7615 32.2617C39.0951 32.4042 38.4469 32.6216 37.8295 32.9101C37.5594 33.0346 37.3764 33.294 37.3496 33.5901L37.2324 34.8738C37.1072 34.9608 36.9851 35.0508 36.8663 35.1438L35.6559 34.8673C35.3605 34.7989 35.0515 34.8972 34.8498 35.1235C34.3899 35.6362 33.9881 36.1983 33.6516 36.7993C33.5084 37.056 33.5108 37.3689 33.658 37.6233L34.2982 38.7272C34.2461 38.8777 34.1976 39.0333 34.1526 39.1941L33.0023 39.7017C32.7002 39.8347 32.5052 40.1337 32.5054 40.4639V42.3494C32.5052 42.6796 32.7002 42.9786 33.0023 43.1116L34.1526 43.6192C34.1974 43.7803 34.2461 43.9348 34.2982 44.0854L33.6572 45.1901C33.5099 45.4447 33.5074 45.758 33.6506 46.015C33.9878 46.6154 34.3899 47.1771 34.8497 47.6899C35.0514 47.9166 35.361 48.015 35.6566 47.9461L36.8654 47.6687C36.9842 47.7622 37.107 47.8526 37.2322 47.9397L37.3494 49.2233C37.3762 49.5195 37.5593 49.7788 37.8293 49.9033C38.4467 50.1917 39.0948 50.4092 39.7612 50.5517C40.0582 50.6148 40.3659 50.5105 40.5633 50.28L41.411 49.2957H41.8177L42.6653 50.28C42.8235 50.464 43.054 50.5698 43.2966 50.5696C43.354 50.5697 43.4113 50.5636 43.4675 50.5517C44.134 50.4092 44.782 50.1918 45.3995 49.9033C45.6696 49.7788 45.8525 49.5194 45.8794 49.2233L45.9965 47.9397C46.1218 47.8526 46.2438 47.7625 46.3626 47.6696L47.573 47.9461C47.8684 48.015 48.1778 47.9166 48.3791 47.6899C48.8388 47.1772 49.241 46.6154 49.5782 46.015C49.7214 45.758 49.7189 45.4448 49.5717 45.1901L48.9307 44.0855C48.9827 43.935 49.0316 43.7804 49.0762 43.6193L50.2265 43.1117C50.5287 42.9787 50.7237 42.6797 50.7235 42.3495V40.4639C50.7238 40.1338 50.5288 39.8347 50.2266 39.7017ZM48.0319 42.2593C47.7905 42.3654 47.614 42.5796 47.5561 42.8368C47.4799 43.1799 47.3749 43.516 47.242 43.8414C47.1427 44.0815 47.1607 44.3542 47.2909 44.5792L47.8838 45.601C47.7496 45.8092 47.6048 46.012 47.4494 46.2095L46.3333 45.954C46.0721 45.893 45.7975 45.9628 45.5972 46.1412C45.3377 46.3688 45.0597 46.5742 44.7659 46.7553C44.5431 46.8929 44.3978 47.1273 44.3738 47.3881L44.2656 48.5774C44.0419 48.6653 43.8173 48.7417 43.5937 48.8052L42.8307 47.9194C42.6724 47.7356 42.442 47.6299 42.1995 47.6298H41.0298C40.7873 47.6299 40.5568 47.7357 40.3986 47.9194L39.6356 48.8052C39.4119 48.7418 39.1873 48.6653 38.9637 48.5774L38.8555 47.3881C38.8314 47.1273 38.6863 46.8929 38.4634 46.7553C38.1696 46.5744 37.8918 46.3689 37.6328 46.1412C37.4314 45.9633 37.1568 45.8933 36.895 45.9532L35.7797 46.2086C35.6244 46.0126 35.4795 45.8092 35.3453 45.601L35.9383 44.5792C36.0683 44.3542 36.0865 44.0816 35.9871 43.8414C35.8543 43.516 35.7492 43.1799 35.6731 42.8368C35.6151 42.5796 35.4385 42.3654 35.1972 42.2593L34.1714 41.807V41.0065L35.1972 40.5542C35.4386 40.4481 35.6152 40.2338 35.6731 39.9766C35.7493 39.633 35.8544 39.2964 35.9871 38.9703C36.0865 38.7304 36.0684 38.4581 35.9383 38.2334L35.346 37.2116C35.4794 37.0042 35.6243 36.8009 35.7796 36.604L36.8957 36.8594C37.1569 36.9194 37.4311 36.8498 37.6318 36.6723C37.8913 36.4446 38.1693 36.2392 38.4632 36.0581C38.686 35.9205 38.8312 35.6861 38.8553 35.4253L38.9635 34.236C39.1871 34.1481 39.4117 34.0717 39.6354 34.0082L40.3984 34.8941C40.5566 35.0778 40.7871 35.1835 41.0297 35.1836H42.1994C42.4419 35.1835 42.6723 35.0777 42.8307 34.8941L43.5937 34.0082C43.8173 34.0716 44.0419 34.1481 44.2656 34.236L44.3738 35.4253C44.3978 35.6861 44.5431 35.9205 44.7659 36.0581C45.0597 36.2392 45.3377 36.4446 45.5972 36.6723C45.798 36.8499 46.0722 36.9196 46.3333 36.8594L47.4494 36.604C47.6048 36.8009 47.7496 37.0036 47.8838 37.2124L47.2909 38.2342C47.1608 38.4592 47.1427 38.7318 47.242 38.972C47.3749 39.2974 47.4799 39.6335 47.5561 39.9766C47.6141 40.2338 47.7906 40.4481 48.0319 40.5542L49.0577 41.0065V41.807L48.0319 42.2593Z" fill="#1CBE72"/>
<path d="M41.6146 37.2418C39.3144 37.2418 37.4497 39.1065 37.4497 41.4067C37.4497 43.7069 39.3144 45.5716 41.6146 45.5716C43.9148 45.5716 45.7795 43.7069 45.7795 41.4067C45.7768 39.1077 43.9137 37.2445 41.6146 37.2418ZM41.6146 43.9057C40.2345 43.9057 39.1157 42.7869 39.1157 41.4067C39.1157 40.0266 40.2345 38.9078 41.6146 38.9078C42.9947 38.9078 44.1135 40.0266 44.1135 41.4067C44.112 42.7862 42.9941 43.9042 41.6146 43.9057Z" fill="#1CBE72"/>
<path d="M24.1221 3.92273C17.2215 3.92273 11.6274 9.51681 11.6274 16.4174C11.6349 23.3149 17.2246 28.9046 24.1221 28.9121C31.0227 28.9121 36.6168 23.318 36.6168 16.4174C36.6168 9.51681 31.0227 3.92273 24.1221 3.92273ZM13.7435 19.5044C12.0375 13.7736 15.3002 7.74485 21.0309 6.03871C22.0342 5.74008 23.0754 5.58848 24.1221 5.58869C25.1676 5.58963 26.2074 5.74269 27.2088 6.04287C27.0054 6.17698 26.7938 6.30672 26.6057 6.44853C26.3207 6.66313 26.204 7.03536 26.3153 7.37428L26.6976 8.53837C26.5406 8.68643 26.3869 8.84012 26.2388 8.99714L25.0756 8.6148C24.7371 8.50537 24.3664 8.62146 24.1507 8.90436C23.5352 9.71266 23.0207 10.593 22.6189 11.5262C22.479 11.8544 22.5637 12.2351 22.8296 12.4731L23.756 13.3028C23.6926 13.5102 23.6365 13.7193 23.5868 13.9284L22.3796 14.1822C21.9943 14.2634 21.7184 14.6034 21.7183 14.9973V17.8379C21.7184 18.2318 21.9942 18.5717 22.3796 18.6529L23.5868 18.9068C23.6365 19.1159 23.6926 19.3249 23.7552 19.5323L22.8295 20.3621C22.5636 20.6 22.4789 20.9808 22.6188 21.309C23.0206 22.2415 23.5345 23.1215 24.1489 23.93C24.3635 24.2149 24.7357 24.3318 25.0746 24.2204L26.2387 23.838C26.3868 23.995 26.5405 24.1487 26.6975 24.2968L26.3152 25.46C26.2042 25.7985 26.3205 26.1701 26.6047 26.385C26.793 26.5272 27.0052 26.6575 27.2092 26.7921C21.4784 28.498 15.4496 25.2353 13.7435 19.5044ZM29.141 26.004C28.7803 25.8199 28.4295 25.6167 28.0901 25.3956L28.4505 24.2991C28.5563 23.9766 28.4562 23.6222 28.1975 23.4027C27.8132 23.0776 27.4564 22.7212 27.1311 22.3371C26.9113 22.0793 26.5576 21.9797 26.2354 22.0849L25.1356 22.4469C24.8624 22.0457 24.6165 21.6267 24.3994 21.1926L25.2731 20.4093C25.526 20.1829 25.6164 19.8258 25.5016 19.5063C25.3309 19.0346 25.2 18.5494 25.1104 18.0559C25.0501 17.7224 24.7937 17.4585 24.462 17.3889L23.3841 17.1619V15.6733L24.462 15.4463C24.7937 15.3765 25.0501 15.1128 25.1104 14.7793C25.2003 14.2852 25.3312 13.7996 25.5016 13.3272C25.6164 13.0079 25.5259 12.6511 25.2731 12.4251L24.3994 11.6426C24.6167 11.2086 24.8626 10.7895 25.1356 10.3882L26.2361 10.7502C26.5586 10.8552 26.9125 10.7553 27.1325 10.4972C27.4576 10.1129 27.814 9.75619 28.1981 9.43081C28.4562 9.21111 28.5559 8.85719 28.4503 8.53514L28.0899 7.43863C28.4294 7.21789 28.78 7.01506 29.1406 6.83097C30.2795 7.43228 31.3025 8.2309 32.1623 9.18987C28.1705 10.263 25.8044 14.3688 26.8775 18.3606C27.5706 20.9385 29.5843 22.9522 32.1623 23.6453C31.3028 24.604 30.2798 25.4027 29.141 26.004ZM28.3464 15.5889C28.714 13.0339 30.7213 11.0266 33.2764 10.6589C35.5091 14.1733 35.5091 18.6616 33.2764 22.1759C30.0959 21.7184 27.8888 18.7692 28.3464 15.5889Z" fill="#1CBE72"/>
<path d="M46.0667 14.8068L45.0677 14.3659C45.0336 14.2464 44.9978 14.1292 44.9587 14.0145L45.516 13.0538C45.6632 12.7994 45.6657 12.4864 45.5225 12.2297C45.2165 11.6841 44.8516 11.1737 44.4342 10.7078C44.2323 10.4806 43.9224 10.382 43.6264 10.4507L42.577 10.6907C42.4883 10.6224 42.398 10.5556 42.3061 10.4914L42.2036 9.37448C42.1759 9.07898 41.9936 8.82045 41.7245 8.69529C41.1634 8.43259 40.5741 8.23465 39.9682 8.10554C39.6811 8.04505 39.3833 8.14063 39.1849 8.35689L38.2655 9.35595C34.3852 1.53479 24.8991 -1.65989 17.078 2.22044C9.25681 6.10077 6.06202 15.5867 9.94235 23.408C10.1742 23.8754 10.4291 24.331 10.7061 24.7732L8.47777 27.5585C8.33616 27.7365 8.27296 27.9643 8.30284 28.1897C8.33262 28.4156 8.45413 28.6191 8.63884 28.7526L10.4479 30.0682L0.985015 41.7142C0.694825 42.0723 0.749906 42.5978 1.10798 42.8879C1.10902 42.8888 1.11007 42.8896 1.111 42.8904L5.2759 46.2224C5.63356 46.5078 6.15428 46.4518 6.44322 46.0971L16.117 34.1913L17.8015 35.4164C18.1615 35.6783 18.6638 35.6109 18.942 35.2635L21.5411 32.0143C28.3961 33.2025 35.2121 29.7217 38.2687 23.4718L39.1799 24.4745C39.3379 24.6482 39.5617 24.7471 39.7965 24.747C39.8539 24.7471 39.9112 24.7411 39.9674 24.7291C40.5736 24.6 41.1631 24.4021 41.7245 24.1394C41.9935 24.0142 42.1759 23.7556 42.2036 23.4602L42.3061 22.3432C42.398 22.2782 42.4883 22.2114 42.5762 22.1439L43.6264 22.384C43.9224 22.4532 44.2326 22.3545 44.4342 22.1269C44.8512 21.661 45.2158 21.1509 45.5217 20.6057C45.6655 20.3491 45.6634 20.0356 45.516 19.7809L44.9587 18.8202C44.9978 18.7054 45.0336 18.5883 45.0677 18.4687L46.0667 18.0279C46.3689 17.8949 46.5639 17.5959 46.5637 17.2657V15.5688C46.5639 15.2388 46.369 14.9397 46.0667 14.8068ZM5.67136 44.4051L2.80716 42.1136L11.7975 31.0497L14.7674 33.2103L5.67136 44.4051ZM18.1375 33.6016L16.4577 32.3798L16.363 32.3109L10.3234 27.9181L11.7022 26.1957C13.7479 28.7937 16.5546 30.6871 19.7298 31.6109L18.1375 33.6016ZM24.1222 30.578C16.3014 30.578 9.96151 24.2381 9.96151 16.4173C9.97026 8.60023 16.3051 2.26542 24.1222 2.25667C31.9429 2.25667 38.2828 8.59658 38.2828 16.4173C38.2828 24.2381 31.9429 30.578 24.1222 30.578ZM44.8978 16.7232L44.0249 17.108C43.7836 17.2141 43.607 17.4283 43.5491 17.6855C43.4813 17.9905 43.3882 18.2892 43.2709 18.5787C43.1716 18.8183 43.1897 19.0905 43.3197 19.3148L43.8273 20.1901C43.7256 20.3454 43.6169 20.4976 43.5011 20.6465L42.5493 20.4284C42.288 20.3671 42.0131 20.4366 41.8123 20.6147C41.5818 20.8172 41.3347 21.0001 41.0737 21.1613C40.8519 21.2991 40.7074 21.5326 40.6832 21.7926L40.5897 22.8119C40.4197 22.8778 40.2492 22.9356 40.0781 22.9852L38.9905 21.788C40.27 18.3166 40.2681 14.5026 38.9853 11.0326L40.0757 9.84865C40.2466 9.89832 40.419 9.95684 40.5898 10.0227L40.6833 11.042C40.7076 11.3023 40.8524 11.5363 41.0746 11.674C41.3356 11.8348 41.5824 12.0173 41.8125 12.2198C42.0134 12.3976 42.2881 12.467 42.5494 12.4061L43.5012 12.1881C43.6167 12.337 43.7255 12.4891 43.8274 12.6444L43.3198 13.5197C43.1898 13.7441 43.1718 14.0163 43.271 14.2558C43.3883 14.5453 43.4814 14.8441 43.5492 15.149C43.6072 15.4062 43.7838 15.6205 44.0251 15.7266L44.8979 16.1113L44.8978 16.7232Z" fill="#1CBE72"/>
</g>
<defs>
<clipPath id="clip0_136_7183">
<rect width="50" height="50" fill="white" transform="translate(0.76123 0.569824)"/>
</clipPath>
</defs>
</svg>
