<svg width="75" height="75" viewBox="0 0 75 75" fill="none" xmlns="http://www.w3.org/2000/svg">
<path d="M17.0654 5.11084H68.5339C71.4983 5.11084 73.9014 7.51392 73.9014 10.4783V27.1647C73.9014 30.1291 71.4983 32.5321 68.5339 32.5321H46.0881" stroke="white" stroke-width="2" stroke-miterlimit="10" stroke-linecap="round" stroke-linejoin="round"/>
<path d="M40.6509 32.5321H6.46611C3.50171 32.5321 1.09863 30.1291 1.09863 27.1646V10.4783C1.09863 7.51392 3.50171 5.11084 6.46611 5.11084H12.3779" stroke="white" stroke-width="2" stroke-miterlimit="10" stroke-linecap="round" stroke-linejoin="round"/>
<path d="M9.87964 25.2025L14.6543 12.6202C14.7519 12.3808 15.0895 12.3804 15.1876 12.6196L19.9188 25.2025" stroke="white" stroke-width="2" stroke-miterlimit="10" stroke-linecap="round" stroke-linejoin="round"/>
<path d="M11.3688 22.0688H18.4538" stroke="white" stroke-width="2" stroke-miterlimit="10" stroke-linecap="round" stroke-linejoin="round"/>
<path d="M49.5472 12.4404V25.1917C49.6876 25.2159 53.9997 25.1917 53.9997 25.1917" stroke="white" stroke-width="2" stroke-miterlimit="10" stroke-linecap="round" stroke-linejoin="round"/>
<path d="M57.0305 12.4404L61.092 18.6836L65.1204 12.4728" stroke="white" stroke-width="2" stroke-miterlimit="10" stroke-linecap="round" stroke-linejoin="round"/>
<path d="M61.0762 25.2026L61.092 18.6836" stroke="white" stroke-width="2" stroke-miterlimit="10" stroke-linecap="round" stroke-linejoin="round"/>
<path d="M24.9955 12.4404V25.2026" stroke="white" stroke-width="2" stroke-miterlimit="10" stroke-linecap="round" stroke-linejoin="round"/>
<path d="M24.9955 12.4404H28.536C30.5178 12.4404 32.1946 14.0529 32.1946 16.0419C32.1946 18.0309 30.5178 19.6434 28.536 19.6434L25.0201 19.6593" stroke="white" stroke-width="2" stroke-miterlimit="10" stroke-linecap="round" stroke-linejoin="round"/>
<path d="M37.2713 12.4404V25.2026" stroke="white" stroke-width="2" stroke-miterlimit="10" stroke-linecap="round" stroke-linejoin="round"/>
<path d="M37.2713 12.4404H40.8119C42.7937 12.4404 44.4705 14.0529 44.4705 16.0419C44.4705 18.0309 42.7937 19.6434 40.8119 19.6434L37.2959 19.6593" stroke="white" stroke-width="2" stroke-miterlimit="10" stroke-linecap="round" stroke-linejoin="round"/>
<path d="M60.5818 63.3782C61.7342 61.4195 62.3959 59.1376 62.3959 56.7007V45.1478C62.4006 43.646 61.1871 42.4322 59.6855 42.4369C58.1984 42.4416 56.9886 43.64 56.9618 45.1218V43.6612C56.9665 42.1595 55.7527 40.9457 54.2509 40.9504C52.75 40.9551 51.5297 42.1753 51.525 43.6763V42.2134C51.5297 40.7116 50.3159 39.4979 48.8142 39.5026C47.3133 39.5072 46.0929 40.7275 46.0882 42.2285V27.5819C46.0929 26.0802 44.8792 24.8664 43.3774 24.8711C41.8765 24.8758 40.6562 26.096 40.6515 27.597L40.6494 49.6311C40.6494 50.4502 39.9976 51.1208 39.1787 51.1441L39.1436 51.1451C38.5421 51.1623 37.9876 50.8211 37.7317 50.2765L34.315 43.0026C33.7425 41.784 32.3771 41.1531 31.0781 41.5072C29.4146 41.9606 28.5646 43.8068 29.3019 45.3656L37.2139 62.2614C39.3935 66.9155 44.0687 69.8887 49.2078 69.8887C52.481 69.8887 55.4752 68.6957 57.7808 66.7214" stroke="white" stroke-width="2" stroke-miterlimit="10" stroke-linecap="round" stroke-linejoin="round"/>
<path d="M51.525 42.2134L51.5249 45.2494" stroke="white" stroke-width="2" stroke-miterlimit="10" stroke-linecap="round" stroke-linejoin="round"/>
<path d="M46.0881 45.1219V42.2285" stroke="white" stroke-width="2" stroke-miterlimit="10" stroke-linecap="round" stroke-linejoin="round"/>
<path d="M56.9616 45.1221V45.3771" stroke="white" stroke-width="2" stroke-miterlimit="10" stroke-linecap="round" stroke-linejoin="round"/>
</svg>
