<svg width="50" height="50" viewBox="0 0 50 50" fill="none" xmlns="http://www.w3.org/2000/svg">
<g clip-path="url(#clip0_54_3866)">
<path d="M27.2812 9.84766C27.2208 9.70718 27.1205 9.58751 26.9928 9.50349C26.865 9.41948 26.7154 9.3748 26.5625 9.375H23.4375C23.2846 9.3748 23.135 9.41948 23.0072 9.50349C22.8794 9.58751 22.7791 9.70718 22.7187 9.84766L15.6875 26.2539C15.6445 26.3525 15.6223 26.4589 15.6223 26.5664C15.6223 26.674 15.6445 26.7803 15.6875 26.8789L18.6953 33.6328L17.2265 38.0352C17.1876 38.1526 17.177 38.2777 17.1958 38.4C17.2147 38.5223 17.2623 38.6384 17.3347 38.7388C17.4072 38.8391 17.5025 38.9207 17.6127 38.977C17.7229 39.0333 17.845 39.0626 17.9687 39.0625H32.0312C32.155 39.0626 32.277 39.0333 32.3872 38.977C32.4975 38.9207 32.5927 38.8391 32.6652 38.7388C32.7377 38.6384 32.7853 38.5223 32.8041 38.4C32.8229 38.2777 32.8124 38.1526 32.7734 38.0352L31.3047 33.6328L34.3086 26.8789C34.3516 26.7803 34.3738 26.674 34.3738 26.5664C34.3738 26.4589 34.3516 26.3525 34.3086 26.2539L27.2812 9.84766ZM25 23.8281C25.4635 23.8281 25.9167 23.9656 26.3021 24.2231C26.6875 24.4807 26.9879 24.8467 27.1653 25.275C27.3427 25.7032 27.3891 26.1745 27.2987 26.6291C27.2083 27.0838 26.985 27.5014 26.6573 27.8292C26.3295 28.1569 25.9119 28.3802 25.4572 28.4706C25.0026 28.561 24.5313 28.5146 24.1031 28.3372C23.6748 28.1598 23.3088 27.8594 23.0512 27.474C22.7937 27.0886 22.6562 26.6354 22.6562 26.1719C22.6562 25.5503 22.9032 24.9541 23.3427 24.5146C23.7822 24.0751 24.3784 23.8281 25 23.8281ZM19.0508 37.5L20.0937 34.375H29.9062L30.9492 37.5H19.0508ZM29.9609 32.8125H20.039L17.2578 26.5625L23.9531 10.9375H24.2187V22.3438C23.2703 22.5374 22.4275 23.0762 21.8537 23.8559C21.28 24.6356 21.0162 25.6006 21.1135 26.5637C21.2108 27.5268 21.6622 28.4195 22.3803 29.0687C23.0984 29.7179 24.0319 30.0773 25 30.0773C25.968 30.0773 26.9016 29.7179 27.6196 29.0687C28.3377 28.4195 28.7892 27.5268 28.8864 26.5637C28.9837 25.6006 28.72 24.6356 28.1462 23.8559C27.5725 23.0762 26.7297 22.5374 25.7812 22.3438V10.9375H26.0469L32.7422 26.5625L29.9609 32.8125Z" fill="#325343"/>
<path d="M48.8281 22.2656H47.043C46.4896 18.376 44.9182 14.7016 42.4878 11.6147C40.0574 8.52785 36.8544 6.1381 33.2031 4.68751H39.207C39.3913 5.20877 39.754 5.6481 40.2308 5.92785C40.7077 6.20759 41.2682 6.30975 41.8131 6.21626C42.358 6.12276 42.8523 5.83964 43.2087 5.41693C43.565 4.99422 43.7605 4.45914 43.7605 3.90626C43.7605 3.35338 43.565 2.8183 43.2087 2.39559C42.8523 1.97288 42.358 1.68976 41.8131 1.59626C41.2682 1.50277 40.7077 1.60492 40.2308 1.88467C39.754 2.16442 39.3913 2.60375 39.207 3.12501H28.8281C28.6488 2.24197 28.1697 1.44808 27.4721 0.87784C26.7744 0.307603 25.9011 -0.00390625 25 -0.00390625C24.0989 -0.00390625 23.2256 0.307603 22.5279 0.87784C21.8303 1.44808 21.3512 2.24197 21.1719 3.12501H10.8008C10.6165 2.60375 10.2539 2.16442 9.77697 1.88467C9.30009 1.60492 8.73966 1.50277 8.19474 1.59626C7.64982 1.68976 7.1555 1.97288 6.79914 2.39559C6.44278 2.8183 6.24732 3.35338 6.24732 3.90626C6.24732 4.45914 6.44278 4.99422 6.79914 5.41693C7.1555 5.83964 7.64982 6.12276 8.19474 6.21626C8.73966 6.30975 9.30009 6.20759 9.77697 5.92785C10.2539 5.6481 10.6165 5.20877 10.8008 4.68751H16.7969C13.1456 6.1381 9.94262 8.52785 7.51221 11.6147C5.08181 14.7016 3.51036 18.376 2.95703 22.2656H1.17188C0.964675 22.2656 0.765961 22.3479 0.619448 22.4945C0.472935 22.641 0.390625 22.8397 0.390625 23.0469V27.7344C0.390625 27.9416 0.472935 28.1403 0.619448 28.2868C0.765961 28.4333 0.964675 28.5156 1.17188 28.5156H2.95703C3.61692 33.3001 5.82239 37.7379 9.23757 41.1531C12.6527 44.5682 17.0905 46.7737 21.875 47.4336V49.2188C21.875 49.426 21.9573 49.6247 22.1038 49.7712C22.2503 49.9177 22.449 50 22.6562 50H27.3438C27.551 50 27.7497 49.9177 27.8962 49.7712C28.0427 49.6247 28.125 49.426 28.125 49.2188V47.4336C32.9095 46.7737 37.3473 44.5682 40.7624 41.1531C44.1776 37.7379 46.3831 33.3001 47.043 28.5156H48.8281C49.0353 28.5156 49.234 28.4333 49.3806 28.2868C49.5271 28.1403 49.6094 27.9416 49.6094 27.7344V23.0469C49.6094 22.8397 49.5271 22.641 49.3806 22.4945C49.234 22.3479 49.0353 22.2656 48.8281 22.2656ZM41.4062 3.12501C41.5608 3.12501 41.7118 3.17083 41.8403 3.25667C41.9688 3.34252 42.0689 3.46453 42.128 3.60729C42.1872 3.75004 42.2026 3.90713 42.1725 4.05867C42.1423 4.21022 42.0679 4.34943 41.9587 4.45869C41.8494 4.56795 41.7102 4.64235 41.5587 4.6725C41.4071 4.70264 41.25 4.68717 41.1073 4.62804C40.9645 4.56891 40.8425 4.46877 40.7567 4.3403C40.6708 4.21182 40.625 4.06078 40.625 3.90626C40.625 3.69906 40.7073 3.50035 40.8538 3.35383C41.0003 3.20732 41.1991 3.12501 41.4062 3.12501ZM25 1.56251C25.4636 1.56251 25.9167 1.69997 26.3021 1.9575C26.6875 2.21504 26.9879 2.58108 27.1653 3.00935C27.3427 3.43761 27.3892 3.90886 27.2987 4.3635C27.2083 4.81815 26.9851 5.23576 26.6573 5.56354C26.3295 5.89132 25.9119 6.11454 25.4572 6.20498C25.0026 6.29541 24.5313 6.249 24.1031 6.0716C23.6748 5.89421 23.3088 5.59381 23.0512 5.20838C22.7937 4.82295 22.6562 4.36981 22.6562 3.90626C22.6562 3.28466 22.9032 2.68852 23.3427 2.24898C23.7823 1.80944 24.3784 1.56251 25 1.56251ZM8.59375 4.68751C8.43923 4.68751 8.28819 4.64169 8.15971 4.55585C8.03123 4.47 7.9311 4.34799 7.87197 4.20523C7.81284 4.06248 7.79737 3.90539 7.82751 3.75385C7.85766 3.6023 7.93206 3.46309 8.04132 3.35383C8.15058 3.24457 8.28979 3.17017 8.44134 3.14002C8.59288 3.10988 8.74997 3.12535 8.89272 3.18448C9.03548 3.24361 9.15749 3.34374 9.24334 3.47222C9.32918 3.6007 9.375 3.75174 9.375 3.90626C9.375 4.11346 9.29269 4.31217 9.14618 4.45869C8.99966 4.6052 8.80095 4.68751 8.59375 4.68751ZM1.95312 23.8281H5.07812V26.9531H1.95312V23.8281ZM26.5625 48.4375H23.4375V45.3125H26.5625V48.4375ZM28.125 45.8555V44.5313C28.125 44.3241 28.0427 44.1253 27.8962 43.9788C27.7497 43.8323 27.551 43.75 27.3438 43.75H22.6562C22.449 43.75 22.2503 43.8323 22.1038 43.9788C21.9573 44.1253 21.875 44.3241 21.875 44.5313V45.8555C17.5078 45.2059 13.4649 43.1699 10.3428 40.0478C7.22075 36.9257 5.18475 32.8829 4.53516 28.5156H5.85938C6.06658 28.5156 6.26529 28.4333 6.4118 28.2868C6.55831 28.1403 6.64062 27.9416 6.64062 27.7344V23.0469C6.64062 22.8397 6.55831 22.641 6.4118 22.4945C6.26529 22.3479 6.06658 22.2656 5.85938 22.2656H4.53516C5.18735 18.0115 7.1479 14.066 10.1446 10.9769C13.1413 7.88782 17.0255 5.8084 21.2578 5.02735C21.4988 5.83253 21.9931 6.5385 22.6673 7.04042C23.3415 7.54233 24.1595 7.81342 25 7.81342C25.8405 7.81342 26.6585 7.54233 27.3327 7.04042C28.0069 6.5385 28.5012 5.83253 28.7422 5.02735C32.9745 5.8084 36.8587 7.88782 39.8554 10.9769C42.8521 14.066 44.8126 18.0115 45.4648 22.2656H44.1406C43.9334 22.2656 43.7347 22.3479 43.5882 22.4945C43.4417 22.641 43.3594 22.8397 43.3594 23.0469V27.7344C43.3594 27.9416 43.4417 28.1403 43.5882 28.2868C43.7347 28.4333 43.9334 28.5156 44.1406 28.5156H45.4648C44.8158 32.8831 42.78 36.9263 39.6578 40.0485C36.5357 43.1707 32.4925 45.2065 28.125 45.8555ZM48.0469 26.9531H44.9219V23.8281H48.0469V26.9531Z" fill="#325343"/>
</g>
<defs>
<clipPath id="clip0_54_3866">
<rect width="50" height="50" fill="white"/>
</clipPath>
</defs>
</svg>
