<svg width="75" height="75" viewBox="0 0 75 75" fill="none" xmlns="http://www.w3.org/2000/svg">
<g clip-path="url(#clip0_77_734)">
<path d="M7.60033 61.1157C7.32925 61.1157 7.06445 61.0279 6.846 60.8631C6.58167 60.6628 6.40771 60.3649 6.36206 60.0365L0.0116465 14.1735C-0.033534 13.8451 0.0531007 13.5119 0.253385 13.2475C0.45367 12.9832 0.750836 12.8088 1.07921 12.7636L9.41686 11.6136C10.092 11.5239 10.7311 11.9958 10.8256 12.6793L11.4286 17.0054L36.7426 13.4977L36.1499 9.17151C36.0566 8.48845 36.5333 7.85872 37.2163 7.76347L46.9413 6.41341C47.623 6.32072 48.256 6.79558 48.3519 7.47981L49.8522 18.2803L47.3754 18.6245L46.0473 9.06182L38.7967 10.0684L39.3894 14.3952C39.4828 15.0783 39.0056 15.7087 38.3226 15.8033L10.5343 19.6531C9.85679 19.7447 9.22007 19.271 9.12505 18.5874L8.5221 14.2606L2.66029 15.0694L8.66743 58.4557L52.0532 52.4479L51.7132 49.9997L54.1888 49.6555L54.7014 53.3426C54.7473 53.671 54.6604 54.0043 54.4604 54.2686C54.2608 54.5334 53.9636 54.7073 53.6352 54.7532L7.77174 61.1036C7.71445 61.112 7.65715 61.1157 7.60033 61.1157Z" fill="white"/>
<path d="M10.3573 19.6601C9.74314 19.6601 9.20726 19.2072 9.12063 18.5816L7.58007 7.46329C7.53489 7.13492 7.62152 6.80165 7.82181 6.53732C8.02209 6.27299 8.31856 6.09903 8.64693 6.05338L36.4425 2.20326C37.1162 2.10684 37.7571 2.5859 37.8524 3.27012L39.3929 14.3885C39.4381 14.7168 39.3515 15.0501 39.1512 15.3144C38.9509 15.5788 38.6544 15.7527 38.3261 15.7984L10.5308 19.6485C10.4728 19.6567 10.4148 19.6601 10.3573 19.6601ZM10.2285 8.35875L11.426 17.0003L36.7445 13.4932L35.547 4.85167L10.2285 8.35875Z" fill="white"/>
<path d="M9.94775 27.1812L39.6416 24.1372L39.8966 26.6243L10.2027 29.6682L9.94775 27.1812Z" fill="white"/>
<path d="M23.3214 33.644L35.5444 32.651L35.7468 35.1431L23.5239 36.1361L23.3214 33.644Z" fill="white"/>
<path d="M11.0991 34.6348L17.2111 34.1382L17.4135 36.6303L11.3016 37.1269L11.0991 34.6348Z" fill="white"/>
<path d="M11.6248 43.8735L39.6627 40.9429L39.9227 43.4305L11.8848 46.3611L11.6248 43.8735Z" fill="white"/>
<path d="M53.4685 51.0841C43.92 51.0841 36.1518 43.316 36.1518 33.7674C36.1518 24.2187 43.9198 16.4507 53.4685 16.4507C63.0172 16.4507 70.7852 24.2187 70.7852 33.7674C70.7852 43.316 63.0169 51.0841 53.4685 51.0841ZM53.4685 18.951C45.2987 18.951 38.6519 25.5979 38.6519 33.7676C38.6519 41.9373 45.2987 48.5842 53.4685 48.5842C61.6382 48.5842 68.2851 41.9373 68.2851 33.7676C68.2851 25.5979 61.638 18.951 53.4685 18.951Z" fill="white"/>
<path d="M59.3262 48.7451L61.5792 47.6599L64.4846 53.6917L62.2317 54.777L59.3262 48.7451Z" fill="white"/>
<path d="M69.743 72.8091C67.7814 72.8091 65.8952 71.7106 64.9888 69.8282L59.1801 57.7657C58.9463 57.2803 59.0494 56.7011 59.4353 56.3264L62.4724 53.3778C62.6664 53.1892 62.9168 53.069 63.1853 53.0348L67.3859 52.4982C67.9195 52.4251 68.4369 52.7099 68.6701 53.1952L74.4788 65.2591C75.7385 67.874 74.635 71.0282 72.019 72.2879C72.019 72.2891 72.0183 72.2891 72.0183 72.2891C71.2842 72.6419 70.5078 72.8091 69.743 72.8091ZM61.8236 57.492L67.2411 68.7441C67.9027 70.1162 69.5585 70.6936 70.9337 70.0368C72.3083 69.374 72.8881 67.7175 72.2265 66.343L66.8084 55.0921L63.9152 55.4615L61.8236 57.492Z" fill="white"/>
<path d="M58.3599 43.9239L57.2746 41.6716C59.3906 40.6529 60.9831 38.8707 61.7584 36.6545C62.5342 34.4376 62.3998 32.0517 61.3811 29.9363L63.6334 28.8511C64.9427 31.5684 65.1148 34.633 64.118 37.4798C63.122 40.3271 61.0772 42.6153 58.3599 43.9239Z" fill="white"/>
</g>
<defs>
<clipPath id="clip0_77_734">
<rect width="75" height="75" fill="white"/>
</clipPath>
</defs>
</svg>
