<svg width="50" height="50" viewBox="0 0 50 50" fill="none" xmlns="http://www.w3.org/2000/svg">
<path d="M48.3391 16.3588L28.4078 6.62224C26.6896 5.76313 23.7686 5.76313 22.0504 6.62224L1.66094 16.3588C0.229095 17.0461 0 18.0197 0 18.5352C0 19.0506 0.229095 19.967 1.66094 20.7116L3.32188 21.5134V30.6772C2.29095 31.0781 1.54639 32.1091 1.54639 33.2545C1.54639 34.4 2.29095 35.4309 3.2646 35.8319L0.687285 44.022H7.90378L5.32646 35.8319C6.35739 35.4309 7.04467 34.4 7.04467 33.2545C7.04467 32.0518 6.30011 31.0781 5.26919 30.6772V22.4871L8.3047 23.9762V35.8891C8.3047 36.061 8.36197 36.2328 8.47652 36.4046C8.76289 36.7482 14.0893 44.022 24.9714 44.022C35.8534 44.022 41.1798 36.691 41.4089 36.4046C41.5235 36.2328 41.5808 36.061 41.5808 35.8891V24.0335L48.3391 20.7116C49.7709 20.0243 50 19.0506 50 18.5352C49.9427 18.0197 49.7709 17.0461 48.3391 16.3588ZM39.748 35.6028C38.8316 36.7482 33.9061 42.2465 24.9714 42.2465C16.0367 42.2465 11.1111 36.7482 10.1947 35.6028V24.778L22.0504 30.4481C22.9095 30.849 24.055 31.0781 25.2005 31.0781C26.4032 31.0781 27.5487 30.849 28.4078 30.3909L39.748 24.8353V35.6028ZM47.5372 19.1079L40.6644 22.4871C40.378 22.4871 40.1489 22.6016 40.0344 22.8307L27.606 28.8445C26.4032 29.4745 24.055 29.4745 22.795 28.8445L7.50286 21.5134L25.0859 19.4516C25.6014 19.3943 25.945 18.9361 25.8877 18.4779C25.8305 17.9624 25.3723 17.6188 24.9141 17.6761L4.52463 20.0816L2.46277 19.1079C1.94731 18.8788 1.83276 18.5925 1.83276 18.5925C1.83276 18.5352 1.94731 18.3061 2.46277 18.077L22.8522 8.28317C23.4822 7.99681 24.3414 7.82498 25.2005 7.82498C26.1168 7.82498 27.0332 7.99681 27.606 8.28317L47.5372 18.0197C48.0527 18.2488 48.1672 18.4779 48.1672 18.5925C48.1672 18.5925 47.9954 18.8788 47.5372 19.1079Z" fill="#325343"/>
</svg>
