<svg width="50" height="51" viewBox="0 0 50 51" fill="none" xmlns="http://www.w3.org/2000/svg">
<g clip-path="url(#clip0_117_4234)">
<path d="M30.3418 25.8232L26.6112 24.3842L24.4699 22.243C24.3306 22.1038 24.1484 22.0323 23.9647 22.0291V20.2792C24.9781 19.2026 25.6981 17.8358 25.9831 16.2948C25.9836 16.2941 25.9843 16.2933 25.985 16.2927C26.1715 16.3038 26.3598 16.2901 26.5459 16.252C27.5524 16.0459 28.283 15.1116 28.283 14.0302V13.4694C28.283 12.8355 28.0224 12.2545 27.5998 11.8431C28.2866 8.14478 27.7321 5.13247 25.9892 3.11987C24.3089 1.17954 21.6 0.252782 18.1548 0.438622C14.9462 0.61206 12.8855 2.09809 12.2532 2.62202C11.3633 2.73765 8.82554 3.37895 8.82554 6.92759C8.82554 8.89253 9.14478 10.5267 9.369 11.4326C8.61382 11.7856 8.10591 12.5738 8.10591 13.4777V14.0301C8.10591 15.1115 8.83638 16.0458 9.84302 16.2519C10.029 16.29 10.2175 16.3037 10.4039 16.2926C10.4045 16.2933 10.4052 16.2941 10.4058 16.2948C10.6908 17.8357 11.4108 19.2025 12.4242 20.2792V22.029C12.2405 22.0322 12.0583 22.1037 11.919 22.2429L9.77778 24.3841L5.58159 26.0027C3.56362 26.781 2.26606 28.7559 2.35259 30.917L2.94858 45.7978C2.9644 46.192 3.28892 46.5009 3.67993 46.5009C3.68989 46.5009 3.69985 46.5007 3.70981 46.5003C4.11401 46.4841 4.42847 46.1434 4.41235 45.7392L3.81636 30.8586C3.80054 30.4631 3.85044 30.0765 3.95718 29.7108L6.33628 32.0899C7.01353 32.7671 7.38648 33.6676 7.38648 34.6253V45.7687C7.38648 46.1732 7.7144 46.5011 8.1189 46.5011C8.52339 46.5011 8.85132 46.1732 8.85132 45.7687V34.6253C8.85132 33.2763 8.32603 32.008 7.37202 31.0541L4.68755 28.3696C5.06372 27.9345 5.54663 27.5865 6.10884 27.3696L10.024 25.8594L13.0128 30.3426C13.3751 30.8862 13.9558 31.2348 14.6059 31.2992C14.6783 31.3063 14.7504 31.3098 14.8223 31.3098C15.2218 31.3098 15.6085 31.198 15.9459 30.9927L15.304 45.7368C15.2864 46.1409 15.5997 46.4828 16.0039 46.5003C16.0147 46.5008 16.0255 46.501 16.0363 46.501C16.4261 46.501 16.7503 46.1938 16.7674 45.8004L17.3626 32.1296H19.027L19.6222 45.8004C19.6393 46.1937 19.9635 46.501 20.3534 46.501C20.3641 46.501 20.375 46.5008 20.3858 46.5003C20.7899 46.4828 21.1033 46.1409 21.0857 45.7368L20.4438 30.9927C20.7811 31.198 21.1677 31.3098 21.5672 31.3098C21.639 31.3098 21.7113 31.3063 21.7835 31.2992C22.4331 31.235 23.0137 30.8863 23.3761 30.3427L26.365 25.8595L29.8145 27.1901C29.9012 27.2235 29.9903 27.2393 30.078 27.2393C30.3719 27.2393 30.6494 27.061 30.7615 26.7703C30.9072 26.3928 30.7192 25.9689 30.3418 25.8232ZM11.8447 16.0205C11.7123 15.3 11.0447 14.7775 10.3258 14.8298C10.2641 14.8342 10.2004 14.8299 10.1367 14.8169C9.81401 14.7509 9.57075 14.4126 9.57075 14.0302V13.4778C9.57075 13.1036 9.82261 12.7663 10.1441 12.7098C10.4147 12.6624 10.6738 12.7618 10.838 12.9759C10.9745 13.1538 11.1563 13.2809 11.3644 13.3438C11.6684 13.4355 12.004 13.3817 12.2619 13.1996C12.8572 12.7793 13.3618 12.2463 13.7615 11.6155C13.978 11.2738 13.8765 10.8212 13.5349 10.6047C13.193 10.388 12.7407 10.4897 12.5242 10.8313C12.2962 11.191 12.0236 11.507 11.7108 11.7743C11.4616 11.5547 11.167 11.3976 10.8506 11.311C10.6544 10.5722 10.2904 8.93149 10.2904 6.92749C10.2904 5.73462 10.6601 4.89575 11.3894 4.43452C11.9571 4.07534 12.5565 4.06157 12.5567 4.06147C12.744 4.06147 12.9262 3.98774 13.0623 3.85903C13.081 3.84116 14.9804 2.0771 18.2338 1.90132C21.2102 1.74009 23.5089 2.49341 24.8817 4.07866C26.2723 5.68462 26.7306 8.1521 26.2188 11.2391C25.9987 11.2289 25.7546 11.2449 25.512 11.2875L24.778 9.52466C24.6375 9.18716 24.2694 9.00503 23.9159 9.0978C23.8444 9.11655 16.7257 10.9329 13.7242 7.19624C13.4709 6.88091 13.0099 6.83052 12.6945 7.08394C12.3792 7.33726 12.3288 7.79819 12.5822 8.11362C15.6268 11.9042 21.6899 11.0543 23.6623 10.6561L24.2328 12.0262C24.4661 12.5864 25.0627 12.8923 25.6513 12.7537C25.8821 12.6993 26.1332 12.6894 26.2427 12.7112C26.5707 12.7764 26.8179 13.1023 26.8179 13.4693V14.0301C26.8179 14.4126 26.5746 14.7508 26.2521 14.8168C26.1881 14.8299 26.1247 14.8342 26.0628 14.8297C25.3443 14.7772 24.6763 15.2999 24.5441 16.0205C23.9812 19.0847 21.3108 21.3087 18.1944 21.3087C15.0779 21.3087 12.4075 19.0847 11.8447 16.0205ZM15.3196 29.6379C15.1691 29.7883 14.9614 29.8626 14.7499 29.8416C14.5382 29.8207 14.3493 29.7072 14.2313 29.5302L11.2202 25.0134L12.4702 23.7634L17.1229 27.8345L15.3196 29.6379ZM17.4259 30.6649L17.4743 29.5547L18.1943 28.8346L18.9144 29.5547L18.9627 30.6649H17.4259ZM18.1943 26.8256L13.8888 23.0583V21.501C15.1361 22.3092 16.6184 22.7737 18.1943 22.7737C19.7702 22.7737 21.2525 22.3092 22.4997 21.501V23.0583L18.1943 26.8256ZM22.1575 29.5301C22.0394 29.7072 21.8504 29.8207 21.6388 29.8416C21.5144 29.8542 21.2751 29.8437 21.0693 29.6379L19.266 27.8345L23.9186 23.7634L25.1686 25.0134L22.1575 29.5301Z" fill="#404145"/>
<path d="M47.6515 34.8091C47.6515 33.1103 46.2695 31.7283 44.5707 31.7283H39.8233V30.1123C39.8233 28.8451 38.7923 27.8142 37.5252 27.8142H32.8282C31.561 27.8142 30.5301 28.8452 30.5301 30.1123V31.7283H25.7828C24.0839 31.7283 22.7019 33.1103 22.7019 34.8091V36.9836C22.7019 37.7853 22.9718 38.5551 23.4847 39.267V47.4139C23.4847 49.0688 24.8311 50.4152 26.486 50.4152H43.8675C45.5224 50.4152 46.8688 49.0688 46.8688 47.4139V39.267C47.3817 38.555 47.6516 37.7852 47.6516 36.9835L47.6515 34.8091ZM31.9949 30.1122C31.995 29.6527 32.3688 29.279 32.8282 29.279H37.5251C37.9846 29.279 38.3583 29.6528 38.3583 30.1122V31.7282H31.9949V30.1122ZM46.1866 36.9837C46.1866 38.241 44.9969 39.4877 42.9544 40.4191V40.289C42.9544 39.8845 42.6265 39.5566 42.222 39.5566H39.0908C38.6863 39.5566 38.3583 39.8845 38.3583 40.289V42.6375C38.3583 43.9046 39.3893 44.9355 40.6564 44.9355C41.9235 44.9355 42.9544 43.9045 42.9544 42.6375V42.0111C43.9054 41.6306 44.7264 41.1878 45.4038 40.6959V47.414C45.4039 48.2612 44.7147 48.9503 43.8674 48.9503H26.486C25.6388 48.9503 24.9496 48.2611 24.9496 47.4139V40.6958C25.6269 41.1877 26.4478 41.6305 27.3989 42.0111V42.6375C27.3989 43.9046 28.4298 44.9355 29.6969 44.9355C30.7853 44.9355 31.6988 44.1747 31.935 43.1571C32.9867 43.2976 34.0732 43.3699 35.1767 43.3699C35.4443 43.3699 35.7155 43.3656 35.9827 43.3571C36.387 43.3443 36.7043 43.0061 36.6915 42.6018C36.6787 42.1975 36.3434 41.8791 35.9362 41.893C35.6843 41.901 35.4289 41.905 35.1766 41.905C34.0908 41.905 33.0237 41.8311 31.9949 41.6871V40.289C31.9949 39.8845 31.6669 39.5566 31.2625 39.5566H28.1312C27.7267 39.5566 27.3988 39.8845 27.3988 40.289V40.4191C25.3563 39.4877 24.1667 38.2409 24.1667 36.9837V34.8092C24.1667 33.9181 24.8916 33.1932 25.7827 33.1932H44.5706C45.4617 33.1932 46.1866 33.9181 46.1866 34.8092V36.9837ZM41.4898 41.0213V42.6374C41.4898 43.0968 41.116 43.4706 40.6566 43.4706C40.1972 43.4706 39.8234 43.0967 39.8234 42.6374V41.0213H41.4898ZM28.8636 42.6374V41.0213H30.53V42.6374C30.53 43.0968 30.1562 43.4706 29.6968 43.4706C29.2375 43.4706 28.8636 43.0968 28.8636 42.6374Z" fill="#404145"/>
</g>
<defs>
<clipPath id="clip0_117_4234">
<rect width="50" height="50" fill="white" transform="translate(0 0.415283)"/>
</clipPath>
</defs>
</svg>
