<svg width="50" height="51" viewBox="0 0 50 51" fill="none" xmlns="http://www.w3.org/2000/svg">
<path d="M35.198 33.4959L27.8908 37.7521C27.6309 37.9033 27.3678 38.0221 27.0973 38.1089C27.1762 37.9424 27.2416 37.7636 27.2926 37.5734C27.6845 36.1109 26.8175 34.5847 25.3188 34.0988C25.2853 34.088 25.2511 34.0794 25.2166 34.0731C23.1275 33.6964 21.0607 32.9491 19.4 32.3487C18.8202 32.1392 18.2726 31.9411 17.8058 31.7897C15.8853 31.1667 14.1616 31.9309 12.7287 32.7605L7.40835 35.8408L6.96186 35.052C6.71811 34.6213 6.32017 34.311 5.84136 34.1783C5.36255 34.0455 4.86167 34.1068 4.43101 34.3505L2.38081 35.5108C1.95005 35.7546 1.63979 36.1525 1.50708 36.6313C1.37436 37.1102 1.4355 37.611 1.67925 38.0417L7.70688 48.6921C8.04819 49.2951 8.67827 49.6342 9.32622 49.6342C9.63589 49.6342 9.94966 49.5567 10.2378 49.3937L12.288 48.2333C13.1792 47.7289 13.4939 46.5935 12.9896 45.7023L12.433 44.7188L13.5105 44.0968L22.8164 46.5902C23.3445 46.7318 23.8699 46.8022 24.3868 46.8021C25.4323 46.8021 26.4424 46.5142 27.366 45.9456L40.6268 37.7802C41.8942 36.9999 42.2988 35.0377 41.4756 33.6634C41.0772 32.9985 39.4474 31.021 35.198 33.4959ZM11.6559 46.6954C11.6436 46.7398 11.6093 46.822 11.5183 46.8734L9.46812 48.0338C9.32915 48.1126 9.14526 48.0615 9.06655 47.9225L3.03901 37.2722C2.98755 37.1812 3.00044 37.0932 3.01274 37.0487C3.02505 37.0043 3.05933 36.9222 3.15034 36.8707L5.20063 35.7104C5.25122 35.6817 5.30073 35.673 5.34253 35.673C5.37603 35.673 5.40435 35.6786 5.42407 35.6841C5.46851 35.6964 5.55054 35.7307 5.6021 35.8216V35.8217L11.6297 46.4721C11.6812 46.563 11.6682 46.6511 11.6559 46.6954ZM39.8074 36.4498L26.5466 44.6152C25.5273 45.2427 24.4084 45.3994 23.2207 45.0812L13.6021 42.5039C13.4021 42.4504 13.1888 42.4784 13.0093 42.5819L11.6631 43.3591L8.17788 37.2009L13.5115 34.1128C14.7036 33.4227 15.9904 32.8435 17.3237 33.2761C17.7659 33.4194 18.2769 33.6042 18.8687 33.8182C20.5698 34.4331 22.6834 35.1973 24.8816 35.6004C25.5728 35.8468 25.9591 36.5132 25.7833 37.169C25.5966 37.866 25.0777 38.1699 24.2411 38.0741C23.1731 37.854 22.1554 37.5637 21.079 37.2563C20.5652 37.1096 20.034 36.9578 19.4875 36.8114C19.071 36.7 18.6424 36.9471 18.5307 37.3639C18.4191 37.7807 18.6665 38.209 19.0832 38.3207C19.6172 38.4638 20.1422 38.6137 20.6499 38.7587C21.7677 39.078 22.8237 39.3795 23.963 39.6124C23.968 39.6134 23.9886 39.6172 23.9941 39.6182L24.9031 39.7659C26.2935 39.9885 27.5281 39.7713 28.6771 39.1022L35.9843 34.8461C38.0168 33.6624 39.5685 33.5204 40.135 34.4663C40.5212 35.1111 40.3559 36.1121 39.8074 36.4498ZM5.72993 37.6517C5.78843 38.0517 5.51157 38.4233 5.11157 38.4818C4.71157 38.5403 4.33989 38.2635 4.2814 37.8634C4.2229 37.4634 4.49976 37.0917 4.89976 37.0332C5.29985 36.9748 5.67153 37.2517 5.72993 37.6517ZM38.628 14.0024C35.3749 14.0024 32.7282 16.6491 32.7282 19.9022C32.7282 23.1554 35.3749 25.802 38.628 25.802C41.8811 25.802 44.5278 23.1554 44.5278 19.9022C44.5278 16.649 41.8811 14.0024 38.628 14.0024ZM38.628 24.2395C36.2364 24.2395 34.2907 22.2938 34.2907 19.9021C34.2907 17.5105 36.2364 15.5648 38.628 15.5648C41.0196 15.5648 42.9653 17.5105 42.9653 19.9021C42.9653 22.2938 41.0196 24.2395 38.628 24.2395ZM41.0366 21.0062C41.1002 21.531 40.9575 22.0123 40.6237 22.3981C40.3352 22.7317 39.9048 22.9776 39.4091 23.1037V23.1411C39.4091 23.5726 39.0593 23.9224 38.6279 23.9224C38.1964 23.9224 37.8466 23.5726 37.8466 23.1411V23.0896C37.0381 22.8565 36.4267 22.2659 36.2278 21.4681C36.1234 21.0494 36.3782 20.6254 36.7968 20.521C37.2158 20.4166 37.6395 20.6714 37.7439 21.09C37.8479 21.5071 38.3122 21.644 38.6761 21.6361C38.9961 21.6285 39.3181 21.5191 39.4419 21.376C39.4722 21.341 39.4984 21.3007 39.4854 21.1944C39.4713 21.0787 39.4385 20.8077 38.506 20.6546C36.7197 20.3613 36.4048 19.3267 36.3762 18.736C36.3313 17.8113 36.9144 17.0291 37.8466 16.7298V16.6631C37.8466 16.2316 38.1964 15.8818 38.6279 15.8818C39.0593 15.8818 39.4091 16.2316 39.4091 16.6631V16.7192C40.0496 16.9238 40.58 17.3896 40.8551 18.0447C41.0221 18.4426 40.8351 18.9005 40.4373 19.0675C40.0395 19.2346 39.5815 19.0474 39.4145 18.6496C39.2077 18.1571 38.6875 18.1311 38.4126 18.1935C38.2969 18.2197 37.9208 18.3309 37.9369 18.6603C37.9471 18.8727 38.2238 19.0248 38.7591 19.1128C40.1455 19.3404 40.9117 19.9774 41.0366 21.0062ZM48.0608 17.9345L46.9171 17.4942C46.7407 16.8858 46.4979 16.2999 46.1917 15.7442L46.6894 14.6234C46.8207 14.3281 46.7564 13.9824 46.5279 13.7539L44.7761 12.0022C44.5476 11.7737 44.202 11.7096 43.9066 11.8406L42.7854 12.3386C42.2298 12.0325 41.6441 11.7896 41.0361 11.6133L40.5957 10.4691C40.4795 10.1676 40.1897 9.96855 39.8666 9.96855H39.6604V8.34453C39.6604 7.23564 38.7583 6.3334 37.6493 6.3334H29.6641V4.54619C29.6641 2.69902 28.1614 1.19629 26.3143 1.19629H18.646C16.7989 1.19629 15.296 2.69902 15.296 4.54619V6.33369H7.31069C6.20181 6.33369 5.29966 7.23594 5.29966 8.34482V14.1961C5.29966 15.3634 5.79214 16.4073 6.76138 17.305V27.7409C6.76138 29.4952 8.18862 30.9225 9.94292 30.9225H35.0169C35.9521 30.9225 36.8144 30.5148 37.408 29.8358H39.8666C40.1899 29.8358 40.4796 29.6368 40.5958 29.3353L41.036 28.1915C41.6444 28.015 42.2302 27.7722 42.7859 27.466L43.9066 27.9638C44.202 28.095 44.5476 28.0307 44.7761 27.8022L46.5278 26.0505C46.7563 25.822 46.8206 25.4764 46.6893 25.181L46.1914 24.0598C46.4974 23.5042 46.7403 22.9184 46.9166 22.3104L48.0607 21.87C48.3623 21.754 48.5613 21.4642 48.5613 21.1409V18.6637C48.5615 18.3403 48.3625 18.0506 48.0608 17.9345ZM14.6977 7.89609H30.2625V11.1142C30.2625 11.5337 29.9211 11.875 29.5016 11.875H15.4584C15.039 11.875 14.6977 11.5337 14.6977 11.1142V7.89609ZM25.8278 6.33359H19.1326V5.03262H25.8278V6.33359ZM16.8586 4.54619C16.8586 3.56064 17.6605 2.75879 18.6461 2.75879H26.3144C27.2999 2.75879 28.1017 3.56055 28.1017 4.54619V6.33369H27.3903V4.54619C27.3903 3.95293 26.9077 3.47021 26.3144 3.47021H18.6461C18.0528 3.47021 17.5701 3.95293 17.5701 4.54619V6.33369H16.8586V4.54619ZM6.86216 8.34473C6.86216 8.09736 7.06343 7.89609 7.31069 7.89609H13.1351V11.1142C13.1351 12.3952 14.1773 13.4375 15.4584 13.4375H29.5016C30.7827 13.4375 31.825 12.3953 31.825 11.1142V7.89609H37.6494C37.8967 7.89609 38.098 8.09736 38.098 8.34473V9.96875H37.3895C37.0663 9.96875 36.7765 10.1678 36.6604 10.4693L36.22 11.6135C35.6119 11.7898 35.0261 12.0327 34.4706 12.3388L33.3494 11.8408C33.0541 11.7097 32.7083 11.7739 32.4798 12.0024L30.7282 13.7541C30.4997 13.9826 30.4354 14.3282 30.5667 14.6236L31.0646 15.7446C30.7584 16.3002 30.5156 16.886 30.3392 17.4942L29.1953 17.9346C28.8937 18.0507 28.6947 18.3404 28.6947 18.6637V18.7487C27.8519 18.8395 26.9719 18.9116 26.0646 18.9641C25.5401 17.4904 24.1317 16.4322 22.4802 16.4322C20.8281 16.4322 19.4192 17.4913 18.8952 18.966C14.1948 18.6965 10.4141 17.9065 8.70796 16.8271C8.45962 16.6699 8.23442 16.5087 8.03853 16.3479C7.23608 15.6893 6.86235 15.0055 6.86235 14.1962V8.34473H6.86216ZM24.7214 20.2359C24.7214 21.4719 23.716 22.4773 22.48 22.4773C21.2441 22.4773 20.2386 21.4719 20.2386 20.2359C20.2386 19.0001 21.2441 17.9946 22.48 17.9946C23.716 17.9946 24.7214 19.0001 24.7214 20.2359ZM35.017 29.3599H9.94302C9.05024 29.3599 8.32397 28.6336 8.32397 27.7408V18.4068C10.3783 19.4906 14.0808 20.2462 18.6878 20.5189C18.8333 22.4847 20.478 24.0398 22.4801 24.0398C24.4831 24.0398 26.1282 22.4835 26.2725 20.5168C27.1042 20.4671 27.9143 20.4015 28.6947 20.3202V21.1409C28.6947 21.4642 28.8937 21.7539 29.1953 21.87L30.339 22.3103C30.5155 22.9187 30.7584 23.5047 31.0645 24.0602L30.5667 25.1809C30.4355 25.4762 30.4998 25.8219 30.7283 26.0504L32.48 27.8021C32.7085 28.0307 33.0543 28.0949 33.3496 27.9636L34.4707 27.4655C35.0263 27.7717 35.6121 28.0146 36.2201 28.1908L36.3809 28.6087C36.0858 29.0722 35.5767 29.3599 35.017 29.3599ZM46.999 20.6044L45.983 20.9955C45.7426 21.088 45.5632 21.2932 45.5036 21.5438C45.3305 22.271 45.0434 22.9635 44.6501 23.6021C44.5151 23.8216 44.4968 24.0934 44.6014 24.3288L45.0437 25.3248L44.0506 26.3179L43.0551 25.8757C42.8196 25.771 42.5477 25.7893 42.3283 25.9245C41.6898 26.3177 40.9971 26.6049 40.2694 26.778C40.0188 26.8377 39.8136 27.017 39.7211 27.2574L39.3302 28.2731H37.9258L37.5347 27.257C37.4422 27.0166 37.2371 26.8372 36.9865 26.7776C36.2593 26.6047 35.5667 26.3175 34.9282 25.9242C34.7087 25.7892 34.4369 25.7709 34.2014 25.8755L33.2054 26.3179L32.2124 25.3249L32.6545 24.3294C32.7591 24.0938 32.7409 23.822 32.6057 23.6025C32.2125 22.9642 31.9254 22.2715 31.7522 21.5436C31.6925 21.293 31.5132 21.0879 31.2728 20.9954L30.2572 20.6045V19.2001L31.2731 18.8091C31.5134 18.7166 31.6928 18.5114 31.7525 18.2608C31.9255 17.5335 32.2127 16.8408 32.606 16.2022C32.7411 15.9828 32.7593 15.7109 32.6547 15.4755L32.2125 14.4797L33.2055 13.4866L34.2015 13.929C34.4371 14.0335 34.7088 14.0152 34.9282 13.8803C35.5668 13.4871 36.2594 13.1999 36.9868 13.0269C37.2374 12.9672 37.4424 12.7879 37.5349 12.5475L37.926 11.5314H39.3303L39.7214 12.5475C39.814 12.7878 40.019 12.9672 40.2696 13.0269C40.9968 13.1999 41.6894 13.4871 42.3281 13.8803C42.5475 14.0153 42.8194 14.0336 43.0547 13.929L44.0507 13.4866L45.0438 14.4797L44.6017 15.4752C44.4971 15.7106 44.5154 15.9825 44.6504 16.202C45.0437 16.8405 45.3308 17.5332 45.504 18.2608C45.5636 18.5114 45.7429 18.7166 45.9833 18.8091L46.999 19.2V20.6044Z" fill="#404145"/>
</svg>
