<svg width="50" height="50" viewBox="0 0 50 50" fill="none" xmlns="http://www.w3.org/2000/svg">
<path d="M44.5133 21.1517C44.4143 21.1517 44.3152 21.1517 44.2162 21.1517C44.1947 21.1517 44.1095 21.1655 44.0931 21.1517C44.0793 21.14 44.0853 21.0851 44.0841 21.0633C44.0806 20.9941 44.0771 20.9251 44.0732 20.856C44.0463 20.3776 44.0004 19.8998 43.9349 19.4252C43.7751 18.2545 43.503 17.104 43.1186 15.9852C42.9818 15.5871 42.5483 15.375 42.1499 15.5118C41.7517 15.6486 41.5397 16.0823 41.6766 16.4806C41.8463 16.9748 41.9899 17.4764 42.1121 17.983H39.7351C38.8284 17.983 38.0908 18.7206 38.0908 19.6272V21.1517H29.0239V19.6272C29.0239 18.7206 28.2863 17.983 27.3797 17.983H21.874C20.9674 17.983 20.2298 18.7206 20.2298 19.6272V21.1517H11.9253V19.6272C11.9253 18.7206 11.1877 17.983 10.2811 17.983H7.91025C9.0415 13.328 12.1425 9.30781 16.4775 7.06299L17.0844 9.04932C17.1848 9.37783 17.4867 9.58916 17.8133 9.58916C17.887 9.58916 17.9621 9.57832 18.0363 9.55566C18.439 9.43262 18.6657 9.00644 18.5427 8.60371L17.3295 4.63232C17.3267 4.62314 17.3181 4.59531 17.3412 4.56416C17.3644 4.53291 17.3936 4.53291 17.4031 4.53291C17.4602 4.53291 17.5169 4.52656 17.5724 4.51387C18.2277 4.36465 18.8933 4.23545 19.5595 4.12539V11.8344C19.5595 12.2555 19.9008 12.5968 20.3219 12.5968C20.743 12.5968 21.0843 12.2555 21.0843 11.8344V1.94746C21.0843 1.71445 21.2739 1.5249 21.5068 1.5249H28.5094C28.7424 1.5249 28.9319 1.71455 28.9319 1.94746V11.8344C28.9319 12.2555 29.2732 12.5968 29.6943 12.5968C30.1154 12.5968 30.4567 12.2555 30.4567 11.8344V4.12549C31.1231 4.23545 31.7886 4.36465 32.4437 4.51387C32.496 4.52578 32.5492 4.53213 32.6027 4.53281C32.6125 4.53398 32.6575 4.54043 32.6751 4.56416C32.6981 4.59531 32.6895 4.62334 32.6868 4.63242L31.5327 8.41064C31.4097 8.81338 31.6364 9.23955 32.0391 9.3626C32.1133 9.38525 32.1883 9.39609 32.2621 9.39609C32.5885 9.39609 32.8906 9.18467 32.991 8.85625L33.5392 7.06182C36.3522 8.52266 38.7464 10.7998 40.3381 13.5473C40.4795 13.7913 40.7353 13.9275 40.9984 13.9275C41.1282 13.9275 41.2597 13.8943 41.38 13.8247C41.7443 13.6137 41.8685 13.1472 41.6574 12.7828C39.8744 9.70508 37.1682 7.16787 33.9915 5.58076L34.1451 5.07793C34.295 4.58721 34.206 4.06924 33.9008 3.65713C33.5766 3.21885 33.0936 3.03887 32.7148 3.01162C31.9701 2.84365 31.2134 2.69951 30.4566 2.58018V1.94727C30.4569 0.873633 29.5833 0 28.5095 0H21.5069C20.4331 0 19.5595 0.873633 19.5595 1.94746V2.58047C18.8041 2.69961 18.0486 2.84336 17.305 3.01104C16.8305 3.03926 16.4011 3.27109 16.1154 3.65713C15.8103 4.06963 15.7212 4.5875 15.8711 5.07812L16.0245 5.58018C10.8814 8.14375 7.28232 12.9804 6.23027 18.5323C6.22304 18.5571 6.2167 18.5823 6.21201 18.6081C6.09902 19.2249 6.01884 19.8504 5.96963 20.4785C5.95195 20.7026 5.93818 20.9271 5.92871 21.1519H5.50322C4.04453 21.1519 2.85771 22.332 2.85771 23.7826V27.8423V30.379C2.85771 31.1141 3.37773 31.748 4.09424 31.8867L7.92158 32.6275C8.30283 33.9916 8.84658 35.3037 9.54306 36.5396L7.35976 39.7708C6.94873 40.379 7.02734 41.1974 7.54629 41.7164L11.1339 45.304C11.6532 45.8231 12.4714 45.9016 13.0797 45.4905L16.3108 43.3073C17.5464 44.0036 18.8585 44.5475 20.2227 44.9287L20.9636 48.7561C21.103 49.4769 21.7371 50 22.4713 50H27.5449C28.2791 50 28.9132 49.4769 29.0526 48.7562L29.3698 47.1173C29.4498 46.7039 29.1795 46.3039 28.7661 46.2239C28.3519 46.1433 27.9526 46.4143 27.8727 46.8276L27.5556 48.4664C27.5546 48.4716 27.5501 48.4752 27.5448 48.4752H22.4712C22.466 48.4752 22.4614 48.4715 22.4604 48.4664L21.6287 44.1692C21.5725 43.8781 21.3525 43.6463 21.0649 43.5744C19.5189 43.1883 18.0412 42.5757 16.6729 41.7539C16.4189 41.6014 16.0992 41.61 15.8535 41.7758L12.2257 44.2271C12.2214 44.2302 12.2156 44.2295 12.212 44.2257L8.62441 40.6381C8.6207 40.6344 8.62011 40.6286 8.62314 40.6244L11.0743 36.9967C11.2402 36.751 11.2487 36.4314 11.0962 36.1772C10.2743 34.8086 9.66191 33.3308 9.27568 31.7852C9.20381 31.4976 8.97187 31.2776 8.68086 31.2214L4.38525 30.3909C4.38496 30.3906 4.38242 30.3876 4.38242 30.379V28.6045H12.1208C12.5167 35.3693 18.1457 40.7516 25.0081 40.7516C31.8705 40.7516 37.4996 35.3693 37.8955 28.6045H45.6175V30.3788C45.6175 30.3844 45.617 30.389 45.6164 30.3926L41.3354 31.2212C41.0443 31.2774 40.8125 31.4974 40.7406 31.785C40.3545 33.3307 39.742 34.8084 38.9201 36.1771C38.7676 36.4312 38.7761 36.7508 38.942 36.9965L41.3932 40.6241C41.3961 40.6285 41.3955 40.6343 41.3919 40.6379L37.8043 44.2255C37.8006 44.2293 37.7947 44.23 37.7905 44.2268L34.1628 41.7756C33.917 41.6098 33.5975 41.6012 33.3434 41.7537C31.9751 42.5755 30.4973 43.188 28.9514 43.5742C28.5429 43.6763 28.2943 44.0901 28.3964 44.4986C28.4983 44.9072 28.9126 45.1555 29.3208 45.0536C30.8551 44.6703 32.3278 44.0835 33.7056 43.3071L36.9366 45.4902C37.5448 45.9013 38.3633 45.823 38.8826 45.3038L42.4702 41.7162C42.9893 41.1971 43.0678 40.3788 42.6567 39.7705L40.4734 36.5393C41.1699 35.3035 41.7138 33.9914 42.0949 32.6273L45.9223 31.8865C46.6406 31.7475 47.1423 31.1274 47.1423 30.3788V27.8421V23.7824C47.1423 22.3318 45.963 21.1517 44.5133 21.1517ZM39.6157 19.6272C39.6157 19.5614 39.6694 19.5078 39.7353 19.5078H42.4058C42.4227 19.6257 42.439 19.7437 42.4534 19.8621C42.4637 19.9463 42.4728 20.0306 42.4817 20.1148C42.4933 20.223 42.5042 20.3312 42.5137 20.4397C42.5197 20.5089 42.5255 20.578 42.5307 20.6472C42.5422 20.8015 42.5523 20.9559 42.5597 21.1107C42.5603 21.1244 42.5614 21.138 42.562 21.1516H39.6157V19.6272ZM21.7548 19.6272C21.7548 19.5614 21.8084 19.5078 21.8742 19.5078H27.3799C27.4457 19.5078 27.4993 19.5614 27.4993 19.6272V21.1517H21.7548V19.6272ZM7.48925 20.6034C7.49121 20.578 7.49345 20.5526 7.4955 20.5271C7.52412 20.185 7.56386 19.8452 7.61318 19.5077H10.2811C10.347 19.5077 10.4006 19.5614 10.4006 19.6272V21.1517H7.45449C7.46289 20.9684 7.4749 20.7856 7.48925 20.6034ZM45.6175 27.0797H20.049C19.6279 27.0797 19.2866 27.421 19.2866 27.8421C19.2866 28.2632 19.6279 28.6045 20.049 28.6045H36.3668C35.9731 34.5278 31.0295 39.2267 25.0082 39.2267C18.9869 39.2267 14.0433 34.5278 13.6496 28.6045H16.1353C16.5563 28.6045 16.8977 28.2632 16.8977 27.8421C16.8977 27.421 16.5563 27.0797 16.1353 27.0797H4.38252V23.7824C4.38252 23.1726 4.88525 22.6766 5.50322 22.6766H44.5133C45.1222 22.6766 45.6175 23.1727 45.6175 23.7824V27.0797Z" fill="#325343"/>
</svg>
