<svg width="50" height="50" viewBox="0 0 50 50" fill="none" xmlns="http://www.w3.org/2000/svg">
<g clip-path="url(#clip0_54_3992)">
<path d="M49.9096 40.4792C49.675 39.3501 49.0112 38.3854 48.0404 37.7624C47.0695 37.1399 45.9164 36.9388 44.7918 37.1959L39.5801 38.3892V36.2587C40.6254 35.2741 41.7137 33.9885 42.4877 32.8136C43.845 30.7533 44.8055 28.4908 45.3426 26.0902C45.9812 23.2341 45.9949 20.2106 45.3819 17.3454C45.269 16.8182 44.7498 16.4817 44.2226 16.595C43.6951 16.7076 43.3594 17.2268 43.4719 17.7543C44.0266 20.3457 44.0143 23.0808 43.4364 25.6637C42.9512 27.8328 42.083 29.8771 40.8565 31.739C40.493 32.291 40.052 32.8701 39.5801 33.4232V22.5986C39.5801 22.0592 39.143 21.6221 38.6036 21.6221H30.8784V11.1934C30.8784 10.6556 30.4432 10.2188 29.9053 10.2169L21.2036 10.1875C21.2025 10.1875 21.2017 10.1875 21.2006 10.1875C20.9419 10.1875 20.694 10.2897 20.5112 10.4725C20.3274 10.6556 20.224 10.9043 20.224 11.1641V16.5889H12.4977C11.9587 16.5889 11.5211 17.0261 11.5211 17.5655V27.2361H9.34524V25.9098C9.34524 25.3708 8.90808 24.9336 8.36868 24.9336H7.36694C7.19642 23.9948 7.09762 23.0411 7.07435 22.089C7.01713 19.7738 7.38411 17.5087 8.16459 15.3557C8.34655 14.8536 8.55331 14.3531 8.77876 13.8687C9.0065 13.3796 8.7944 12.7987 8.30574 12.5709C7.81669 12.3439 7.23572 12.5553 7.00836 13.0443C6.7585 13.5807 6.52962 14.1346 6.32858 14.69C5.46493 17.0723 5.05905 19.5781 5.12161 22.137C5.14488 23.0724 5.23414 24.0085 5.38559 24.9336H0.976562C0.437164 24.9336 0 25.3708 0 25.9102V43.0755C0 43.6149 0.437164 44.0521 0.976562 44.0521H8.36868C8.90808 44.0521 9.34524 43.6149 9.34524 43.0755V42.147H13.0188L27.8995 47.9835C29.2889 48.5286 30.7442 48.8029 32.2071 48.8029C33.1825 48.8029 34.1621 48.6808 35.1269 48.4356L46.7903 45.4712C49.0043 44.9085 50.3742 42.7158 49.9096 40.4792ZM37.6274 23.5752V38.8363L35.0166 39.434C34.7359 39.4981 34.452 39.5488 34.1667 39.5885C33.0788 39.7384 31.9687 39.7068 30.8922 39.4935C30.8876 39.4924 30.883 39.4916 30.8784 39.4905V38.0096C31.6231 36.8988 31.8699 35.4904 31.4796 34.2048C31.3709 33.8462 31.2164 33.5003 31.02 33.181C30.9753 33.1085 30.9288 33.0375 30.8803 32.9681C30.88 32.967 30.8792 32.9662 30.8784 32.9651V23.5748H37.6274V23.5752ZM22.1771 12.1441L28.9257 12.1666V31.414L25.1541 29.853L22.1771 28.6205V12.1441ZM13.4743 18.5421H20.2228V27.8114L19.0117 27.3101C18.893 27.2609 18.766 27.2358 18.6382 27.2358H13.4743V18.5421ZM7.39212 42.099H1.95312V26.8863H6.56051C6.56242 26.8863 6.56471 26.8867 6.567 26.8867C6.56891 26.8867 6.57043 26.8863 6.57234 26.8863H7.39212V42.099ZM46.3093 43.5783L34.6458 46.5427C32.6324 47.0543 30.5462 46.9234 28.6125 46.1654L13.5601 40.2614C13.4464 40.2168 13.3255 40.1943 13.2034 40.1943H9.34524V29.1893H18.4437L24.7623 31.8046L28.22 33.2359C29.4433 33.7432 30.0289 35.1783 29.5273 36.4002C29.4266 36.6455 29.3018 36.8785 29.1363 37.0865C28.5248 37.8582 27.5181 38.1984 26.5766 37.9696C26.569 37.9676 26.5613 37.9657 26.5537 37.9638C26.4973 37.9497 26.4412 37.9333 26.3855 37.915L19.8147 35.3889C19.7613 35.3683 19.733 35.3576 19.733 35.3576C19.2299 35.1638 18.6649 35.4152 18.4711 35.9188C18.2777 36.4219 18.5287 36.9873 19.0323 37.1807C19.0323 37.1807 22.7371 38.6051 25.5623 39.6946C25.6191 39.7167 25.6756 39.7373 25.7324 39.7564L27.9018 40.5906C28.5576 40.8428 29.2103 41.0938 29.8927 41.2681C31.0516 41.5641 32.2544 41.6832 33.4492 41.6179C34.1228 41.5813 34.7954 41.4882 35.453 41.3379L38.8218 40.567C38.8252 40.5662 38.8286 40.5647 38.8321 40.5639L45.2278 39.0998C45.8362 38.9606 46.4607 39.0693 46.9856 39.4062C47.5113 39.7434 47.8702 40.2656 47.9973 40.8767C48.249 42.0871 47.5075 43.2739 46.3093 43.5783Z" fill="#325343"/>
<path d="M12.4882 8.21533C12.7216 8.21533 12.9559 8.13217 13.1424 7.96356C14.8849 6.38961 16.9659 5.1342 19.1612 4.33273C21.5397 3.46451 24.147 3.0941 26.7017 3.26194C28.5301 3.38211 30.3215 3.77235 32.0259 4.42161C32.5294 4.61349 33.094 4.36096 33.2859 3.85666C33.4782 3.35273 33.2252 2.78854 32.7209 2.59666C30.8349 1.87797 28.8528 1.44615 26.8299 1.31302C24.0063 1.12762 21.1227 1.53732 18.4914 2.49824C16.0625 3.38478 13.7604 4.77371 11.8336 6.51397C11.433 6.87561 11.4017 7.49321 11.7634 7.89337C11.956 8.10699 12.2215 8.21533 12.4882 8.21533Z" fill="#325343"/>
<path d="M34.6569 15.1848C34.8419 15.3454 35.07 15.424 35.297 15.424C35.5698 15.424 35.8414 15.3103 36.0348 15.0883L44.0693 5.83953C44.4233 5.4325 44.3798 4.81567 43.9728 4.46204C43.5654 4.10842 42.9489 4.15153 42.5953 4.55856L34.5604 13.8073C34.2064 14.2143 34.2499 14.8312 34.6569 15.1848Z" fill="#325343"/>
<path d="M41.8571 11.0096C40.5052 11.0096 39.4054 12.1094 39.4054 13.4613C39.4054 14.8133 40.5052 15.9131 41.8571 15.9131C43.2091 15.9131 44.3088 14.8129 44.3088 13.4613C44.3088 12.1094 43.2091 11.0096 41.8571 11.0096ZM41.8571 13.9599C41.5821 13.9599 41.3586 13.7364 41.3586 13.4613C41.3586 13.1867 41.5821 12.9628 41.8571 12.9628C42.1318 12.9628 42.3557 13.1867 42.3557 13.4613C42.3557 13.7364 42.1318 13.9599 41.8571 13.9599Z" fill="#325343"/>
<path d="M36.4342 8.83566C37.7861 8.83566 38.8859 7.73588 38.8859 6.38396C38.8859 5.03203 37.7861 3.93225 36.4342 3.93225C35.0822 3.93225 33.9825 5.03203 33.9825 6.38396C33.9825 7.73588 35.0822 8.83566 36.4342 8.83566ZM36.4342 5.88499C36.7092 5.88499 36.9327 6.10892 36.9327 6.38396C36.9327 6.65861 36.7092 6.88254 36.4342 6.88254C36.1591 6.88254 35.9356 6.65861 35.9356 6.38396C35.9356 6.10892 36.1591 5.88499 36.4342 5.88499Z" fill="#325343"/>
<path d="M9.01641 10.5103C9.17282 10.8857 9.55772 11.1336 9.96551 11.1122C10.3687 11.0913 10.722 10.8185 10.8467 10.4355C10.9726 10.0491 10.8353 9.60887 10.5122 9.36206C10.1829 9.11105 9.72061 9.09541 9.37576 9.32468C8.99314 9.57912 8.83979 10.0865 9.01641 10.5103Z" fill="#325343"/>
</g>
<defs>
<clipPath id="clip0_54_3992">
<rect width="50" height="50" fill="white"/>
</clipPath>
</defs>
</svg>
