<svg width="50" height="50" viewBox="0 0 50 50" fill="none" xmlns="http://www.w3.org/2000/svg">
<path d="M29.6875 10.1562H27.3438V7.8125C27.3438 7.6053 27.2614 7.40659 27.1149 7.26007C26.9684 7.11356 26.7697 7.03125 26.5625 7.03125H23.4375C23.2303 7.03125 23.0316 7.11356 22.8851 7.26007C22.7386 7.40659 22.6562 7.6053 22.6562 7.8125V10.1562H20.3125C20.1053 10.1562 19.9066 10.2386 19.7601 10.3851C19.6136 10.5316 19.5312 10.7303 19.5312 10.9375V14.0625C19.5312 14.2697 19.6136 14.4684 19.7601 14.6149C19.9066 14.7614 20.1053 14.8438 20.3125 14.8438H22.6562V17.1875C22.6562 17.3947 22.7386 17.5934 22.8851 17.7399C23.0316 17.8864 23.2303 17.9688 23.4375 17.9688H26.5625C26.7697 17.9688 26.9684 17.8864 27.1149 17.7399C27.2614 17.5934 27.3438 17.3947 27.3438 17.1875V14.8438H29.6875C29.8947 14.8438 30.0934 14.7614 30.2399 14.6149C30.3864 14.4684 30.4688 14.2697 30.4688 14.0625V10.9375C30.4688 10.7303 30.3864 10.5316 30.2399 10.3851C30.0934 10.2386 29.8947 10.1562 29.6875 10.1562ZM28.9062 13.2812H26.5625C26.3553 13.2812 26.1566 13.3636 26.0101 13.5101C25.8636 13.6566 25.7812 13.8553 25.7812 14.0625V16.4062H24.2188V14.0625C24.2188 13.8553 24.1364 13.6566 23.9899 13.5101C23.8434 13.3636 23.6447 13.2812 23.4375 13.2812H21.0938V11.7188H23.4375C23.6447 11.7188 23.8434 11.6364 23.9899 11.4899C24.1364 11.3434 24.2188 11.1447 24.2188 10.9375V8.59375H25.7812V10.9375C25.7812 11.1447 25.8636 11.3434 26.0101 11.4899C26.1566 11.6364 26.3553 11.7188 26.5625 11.7188H28.9062V13.2812Z" fill="#325343"/>
<path d="M46.6641 14.3437C46.6799 14.2063 46.6877 14.068 46.6875 13.9296C46.6837 13.2135 46.4353 12.5202 45.9834 11.9646C45.5316 11.4091 44.9034 11.0246 44.2031 10.875C43.411 10.7242 42.5911 10.8799 41.9094 11.3107C41.2277 11.7415 40.7351 12.4151 40.5313 13.1953L37.0938 23.0859C37.0428 23.1061 36.9932 23.1296 36.9453 23.1562L30.0391 27.2031C28.9823 27.8239 28.1057 28.7096 27.496 29.7728C26.8863 30.836 26.5645 32.0399 26.5625 33.2656V40.625C26.3553 40.625 26.1566 40.7073 26.0101 40.8538C25.8636 41.0003 25.7812 41.199 25.7812 41.4062V47.6562C25.7812 47.8634 25.8636 48.0621 26.0101 48.2086C26.1566 48.3551 26.3553 48.4375 26.5625 48.4375H37.5C37.7072 48.4375 37.9059 48.3551 38.0524 48.2086C38.1989 48.0621 38.2812 47.8634 38.2812 47.6562V41.4062C38.2812 41.199 38.1989 41.0003 38.0524 40.8538C37.9059 40.7073 37.7072 40.625 37.5 40.625V38.9062C37.5015 38.5762 37.5717 38.2502 37.7062 37.9489C37.8407 37.6476 38.0366 37.3776 38.2812 37.1562L43.5625 32.4609C44.1402 31.9554 44.5537 31.2889 44.75 30.5468L48.1406 17.8671C48.213 17.6024 48.2498 17.3291 48.25 17.0546C48.2469 16.5033 48.0987 15.9625 47.8204 15.4866C47.542 15.0107 47.1432 14.6166 46.6641 14.3437ZM42.0234 13.6562C42.1193 13.2522 42.364 12.8991 42.7086 12.6675C43.0532 12.4358 43.4725 12.3425 43.8828 12.4062C44.233 12.4795 44.5474 12.6708 44.7735 12.9481C44.9996 13.2254 45.1237 13.5719 45.125 13.9296V13.9453C44.4272 13.9582 43.7526 14.1988 43.2041 14.6303C42.6555 15.0618 42.2629 15.6607 42.0859 16.3359L39.9063 23.0625C39.5762 22.9059 39.2224 22.8056 38.8594 22.7656L42.0234 13.6562ZM36.7188 46.875H27.3438V42.1875H36.7188V46.875ZM46.6328 17.4609L43.2344 30.1484C43.1168 30.5893 42.8723 30.9859 42.5312 31.289L37.2422 35.9843C36.8329 36.3534 36.5054 36.804 36.2807 37.3072C36.056 37.8104 35.9391 38.3551 35.9375 38.9062V40.625H28.125V33.2656C28.1289 32.3124 28.38 31.3765 28.8538 30.5494C29.3276 29.7224 30.0079 29.0323 30.8281 28.5468L37.7266 24.5078C37.9044 24.4041 38.101 24.3367 38.305 24.3093C38.5091 24.2818 38.7165 24.295 38.9154 24.348C39.1143 24.401 39.3008 24.4928 39.4642 24.6181C39.6275 24.7434 39.7645 24.8997 39.8672 25.0781C40.0701 25.4391 40.1261 25.8644 40.0234 26.2656C39.9692 26.4637 39.8764 26.6491 39.7504 26.8114C39.6244 26.9736 39.4676 27.1093 39.2891 27.2109L34.8125 29.7968C34.6425 29.9049 34.5207 30.0746 34.4728 30.2703C34.4249 30.466 34.4544 30.6727 34.5552 30.8471C34.6561 31.0216 34.8204 31.1503 35.014 31.2065C35.2075 31.2626 35.4152 31.2418 35.5938 31.1484L40.0703 28.5625C40.4281 28.3594 40.7417 28.0869 40.9926 27.7609C41.2435 27.4348 41.4267 27.0619 41.5312 26.664C41.7439 25.8647 41.6316 25.0136 41.2187 24.2968L41.1719 24.2265L43.5859 16.7812C43.6818 16.3772 43.9265 16.0241 44.2711 15.7925C44.6157 15.5608 45.035 15.4675 45.4453 15.5312C45.7955 15.6045 46.1099 15.7958 46.336 16.0731C46.5621 16.3504 46.6862 16.6969 46.6875 17.0546C46.6901 17.1921 46.6717 17.3291 46.6328 17.4609Z" fill="#325343"/>
<path d="M23.4375 40.625V33.2656C23.4355 32.0399 23.1137 30.836 22.504 29.7728C21.8943 28.7096 21.0177 27.8239 19.9609 27.2031L13.0547 23.1484C13.0078 23.125 12.9531 23.1093 12.9063 23.0859L9.49219 13.25C9.29376 12.4584 8.80117 11.7722 8.11467 11.331C7.42817 10.8897 6.59935 10.7267 5.79688 10.875C5.09656 11.0246 4.4684 11.4091 4.01655 11.9646C3.5647 12.5202 3.31629 13.2135 3.3125 13.9296C3.3123 14.068 3.32012 14.2063 3.33594 14.3437C2.85685 14.6166 2.45805 15.0107 2.17965 15.4866C1.90125 15.9625 1.75307 16.5033 1.75 17.0546C1.75152 17.3285 1.78561 17.6013 1.85156 17.8671L5.25 30.539C5.4442 31.2842 5.85794 31.9538 6.4375 32.4609L11.7109 37.1562C11.9581 37.3761 12.1561 37.6455 12.292 37.9471C12.428 38.2486 12.4989 38.5754 12.5 38.9062V40.625C12.2928 40.625 12.0941 40.7073 11.9476 40.8538C11.8011 41.0003 11.7188 41.199 11.7188 41.4062V47.6562C11.7188 47.8634 11.8011 48.0621 11.9476 48.2086C12.0941 48.3551 12.2928 48.4375 12.5 48.4375H23.4375C23.6447 48.4375 23.8434 48.3551 23.9899 48.2086C24.1364 48.0621 24.2188 47.8634 24.2188 47.6562V41.4062C24.2188 41.199 24.1364 41.0003 23.9899 40.8538C23.8434 40.7073 23.6447 40.625 23.4375 40.625ZM4.875 13.9296C4.87596 13.573 4.99894 13.2273 5.22348 12.9502C5.44803 12.6731 5.76064 12.4811 6.10938 12.4062C6.53098 12.345 6.96014 12.4455 7.31078 12.6874C7.66142 12.9294 7.90762 13.295 8 13.7109L11.1406 22.7656C10.7776 22.8056 10.4238 22.9059 10.0938 23.0625L7.92969 16.375C7.75357 15.6931 7.36019 15.0872 6.80904 14.6488C6.2579 14.2104 5.57899 13.9635 4.875 13.9453V13.9296ZM12.75 35.9843L7.46875 31.289C7.12582 30.9843 6.8811 30.5846 6.76562 30.1406L3.35938 17.4609C3.32704 17.3279 3.31129 17.1915 3.3125 17.0546C3.31346 16.698 3.43644 16.3523 3.66098 16.0752C3.88553 15.7981 4.19814 15.6061 4.54688 15.5312C4.96552 15.4684 5.39242 15.5664 5.74173 15.8055C6.09104 16.0447 6.33684 16.4072 6.42969 16.8203L8.82813 24.2265L8.78125 24.2968C8.36843 25.0136 8.25608 25.8647 8.46875 26.664C8.57335 27.0619 8.75649 27.4348 9.00739 27.7609C9.25829 28.0869 9.57187 28.3594 9.92969 28.5625L14.4063 31.1484C14.5848 31.2418 14.7925 31.2626 14.9861 31.2065C15.1796 31.1503 15.3439 31.0216 15.4448 30.8471C15.5456 30.6727 15.5751 30.466 15.5272 30.2703C15.4793 30.0746 15.3576 29.9049 15.1875 29.7968L10.7109 27.2109C10.5324 27.1093 10.3756 26.9736 10.2496 26.8114C10.1236 26.6491 10.0308 26.4637 9.97656 26.2656C9.87393 25.8644 9.92989 25.4391 10.1328 25.0781C10.2349 24.9001 10.371 24.7439 10.5335 24.6185C10.6959 24.4931 10.8814 24.401 11.0795 24.3473C11.2775 24.2936 11.4842 24.2794 11.6877 24.3056C11.8913 24.3318 12.0876 24.3979 12.2656 24.5L19.1719 28.5468C19.9921 29.0323 20.6724 29.7224 21.1462 30.5494C21.62 31.3765 21.8711 32.3124 21.875 33.2656V40.625H14.0625V38.9062C14.0612 38.3543 13.9436 37.8089 13.7175 37.3055C13.4913 36.802 13.1617 36.3519 12.75 35.9843ZM22.6562 46.875H13.2812V42.1875H22.6562V46.875Z" fill="#325343"/>
<path d="M36.0524 4.00934C35.3271 3.2828 34.4657 2.70642 33.5174 2.31319C32.5691 1.91995 31.5526 1.71758 30.526 1.71765C29.4994 1.71772 28.483 1.92024 27.5347 2.31361C26.5865 2.70698 25.7252 3.28348 25 4.01012C24.2749 3.28346 23.4136 2.70696 22.4654 2.31361C21.5172 1.92026 20.5008 1.71778 19.4742 1.71778C18.4477 1.71778 17.4312 1.92026 16.483 2.31361C15.5348 2.70696 14.6735 3.28346 13.9484 4.01012C12.4862 5.47549 11.665 7.46108 11.665 9.53121C11.665 11.6013 12.4862 13.5869 13.9484 15.0523L24.4484 25.5523C24.595 25.6988 24.7936 25.781 25.0008 25.781C25.208 25.781 25.4066 25.6988 25.5531 25.5523L36.0531 15.0523C37.5153 13.5867 38.3364 11.6009 38.3363 9.53066C38.3361 7.4604 37.5147 5.47474 36.0524 4.00934ZM25 23.8953L15.0524 13.9476C14.179 13.0731 13.5846 11.9593 13.3442 10.747C13.1038 9.53464 13.2282 8.27826 13.7017 7.13664C14.1752 5.99503 14.9766 5.01943 16.0045 4.33319C17.0324 3.64694 18.2406 3.28086 19.4766 3.28121C20.2976 3.27839 21.1109 3.43907 21.8692 3.75388C22.6274 4.06869 23.3154 4.53133 23.893 5.1148L24.4477 5.66949C24.5942 5.81595 24.7929 5.89823 25 5.89823C25.2072 5.89823 25.4058 5.81595 25.5524 5.66949L26.1086 5.11324C26.6886 4.53219 27.3775 4.07121 28.1359 3.75669C28.8942 3.44217 29.7071 3.28028 30.5281 3.28028C31.3491 3.28028 32.1621 3.44217 32.9204 3.75669C33.6788 4.07121 34.3677 4.53219 34.9477 5.11324C36.1179 6.2851 36.7752 7.87352 36.7752 9.52965C36.7752 11.1858 36.1179 12.7742 34.9477 13.9461L25 23.8953Z" fill="#325343"/>
</svg>
