<svg width="50" height="51" viewBox="0 0 50 51" fill="none" xmlns="http://www.w3.org/2000/svg">
<path d="M11.6911 25.0476H24.5587C26.0293 25.0476 27.2058 23.8711 27.2058 22.4005V16.5917C28.1617 16.1505 28.7499 15.1947 28.7499 14.1653V12.18C28.7499 10.7094 27.4999 9.45937 26.0293 9.45937H22.794V8.87114C22.794 7.47408 21.6176 6.29761 20.2205 6.29761H15.9558C14.5587 6.29761 13.3823 7.47408 13.3823 8.87114V9.45937H10.147C8.67639 9.45937 7.42639 10.7094 7.42639 12.18V14.1653C7.42639 15.2682 8.01463 16.2241 8.97051 16.5917V22.327C8.97051 23.7976 10.2205 25.0476 11.6911 25.0476ZM25.8087 22.327C25.8087 22.9888 25.294 23.5035 24.6323 23.5035H11.6911C11.0293 23.5035 10.5146 22.9888 10.5146 22.327V16.9594C11.9852 17.2535 13.9705 17.5476 15.7352 17.6947V19.3123C15.7352 19.7535 16.0293 20.0476 16.4705 20.0476H19.8529C20.294 20.0476 20.5882 19.7535 20.5882 19.3123V17.6947C22.2793 17.5476 24.1176 17.327 25.8087 16.9594V22.327ZM17.2058 18.577C17.2058 18.5035 17.2058 16.077 17.2058 16.1505H19.1176C19.1176 16.6653 19.1176 18.6505 19.1176 18.577H17.2058ZM14.8529 8.87114C14.8529 8.2829 15.3676 7.7682 15.9558 7.7682H20.2205C20.8087 7.7682 21.3234 8.2829 21.3234 8.87114V9.45937H14.8529V8.87114ZM8.89698 14.1653V12.18C8.89698 11.5182 9.48521 10.93 10.147 10.93H26.1029C26.7646 10.93 27.3529 11.5182 27.3529 12.18V14.1653C27.3529 14.68 26.9852 15.1947 26.3234 15.3417C24.2646 15.7829 22.647 16.077 20.5146 16.2241V15.4888C20.5146 15.0476 20.2205 14.7535 19.7793 14.7535H16.397C15.9558 14.7535 15.6617 15.0476 15.6617 15.4888V16.2976C12.2058 16.077 10.147 15.4888 9.77933 15.4153C9.26463 15.1947 8.89698 14.68 8.89698 14.1653Z" fill="#404145"/>
<path d="M7.20586 39.2388C4.26468 39.5329 1.91174 42.0329 1.91174 45.0476V48.43C1.91174 48.8711 2.20586 49.1653 2.64704 49.1653H19.7794C20.2206 49.1653 20.5147 48.8711 20.5147 48.43V45.0476C20.5147 41.9594 18.0882 39.4594 15.0735 39.2388C14.7059 38.8711 14.1912 38.2829 13.9706 37.7682C15.5882 36.8123 16.6912 35.0476 16.6912 33.0623V30.5623C16.6912 28.2829 14.7794 26.3711 12.5 26.3711H9.99998C8.89704 26.3711 7.94115 26.8123 7.20586 27.4741C2.13233 21.7388 2.35292 12.9153 7.86763 7.47408C13.6029 1.73878 22.8676 1.73878 28.6029 7.47408C37.7206 16.5917 31.397 32.0329 18.8235 32.4741C18.3823 32.4741 18.0882 32.8417 18.0882 33.2094C18.0882 33.6505 18.4559 33.9447 18.8235 33.9447C21.3235 33.8711 23.897 33.2094 26.3235 31.7388L28.9706 34.3858L28.0147 35.3417C26.4706 36.8858 27.5735 39.6064 29.7794 39.6064C30.4412 39.6064 31.0294 39.3858 31.5441 38.8711L40 47.327C42.2059 49.5329 45 49.0182 46.6912 47.327C48.4559 45.6358 49.0441 42.8417 46.7647 40.5623L43.897 37.6947C43.6029 37.4005 43.1617 37.4005 42.8676 37.6947C42.5735 37.9888 42.5735 38.43 42.8676 38.7241L45.7353 41.5917C47.0588 42.9153 47.0588 44.9741 45.7353 46.2976C44.4117 47.6211 42.3529 47.6211 41.0294 46.2976L32.5 37.6947L37.2059 32.9888L40.0735 35.8564C40.3676 36.1505 40.8088 36.1505 41.1029 35.8564C41.397 35.5623 41.397 35.1211 41.1029 34.827L38.2353 31.9594L38.4559 31.7388C39.4117 30.7829 39.4117 29.1653 38.4559 28.2094C37.5 27.2535 35.8823 27.2535 34.9264 28.2094L33.8235 29.3123L31.397 26.8858C35.8823 20.4153 35.0735 11.8123 29.5588 6.29761C23.3088 0.0476074 13.0147 0.0476074 6.76468 6.29761C0.661743 12.4005 0.514684 22.2535 6.24998 28.577C5.51468 29.9741 5.88233 31.077 5.73527 33.0623C5.73527 34.9006 6.61763 36.6653 8.3088 37.6947C8.16174 38.2094 7.57351 38.8711 7.20586 39.2388ZM35.8823 29.3123C36.25 28.9447 36.9117 28.9447 37.3529 29.3123C37.7206 29.68 37.7206 30.3417 37.3529 30.7829L30.3676 37.7682C30 38.1358 29.3382 38.1358 28.897 37.7682C28.5294 37.4005 28.5294 36.7388 28.897 36.2976C32.3529 32.9153 33.897 31.3711 35.8823 29.3123ZM32.7206 30.4153L29.8529 33.2829L27.4264 30.8564C28.6764 29.9741 29.5588 29.0917 30.4412 28.1358L32.7206 30.4153ZM9.92645 27.8417H12.4264C13.6764 27.8417 14.7059 28.7241 15.0735 29.827C14.4853 30.3417 13.897 30.6358 13.3088 30.5623C12.2059 30.4888 11.8382 29.68 11.7647 29.6064C11.4706 29.2388 10.9559 29.3123 10.6617 29.6064C10.0735 30.2682 9.41174 30.6358 8.67645 30.5623C7.94116 30.4888 7.42645 30.0476 7.27939 29.9005C7.57351 28.7241 8.60292 27.8417 9.92645 27.8417ZM7.20586 33.0623V31.6653C8.52939 32.327 9.92645 32.18 11.1029 31.2241C12.2059 32.18 13.75 32.4005 15.147 31.5917V33.0623C15.147 34.0182 14.8529 34.9005 14.3382 35.4888C12.9412 37.2535 10.147 37.6947 8.38233 35.8564C7.57351 35.1211 7.20586 34.1653 7.20586 33.0623ZM13.6764 39.9741L11.1764 42.4741L8.60292 39.9005C8.97057 39.5329 9.41174 38.9447 9.63233 38.3564C10.0735 38.43 10.9559 38.7976 12.5735 38.3564C12.8676 38.9447 13.3088 39.5329 13.6764 39.9741ZM10.6617 44.0182C10.9559 44.3123 11.397 44.3123 11.6912 44.0182L15 40.7094C17.2059 40.93 18.9706 42.8417 18.9706 45.0476V47.6947H16.6176V45.3417C16.6176 44.9005 16.3235 44.6064 15.8823 44.6064C15.4412 44.6064 15.147 44.9005 15.147 45.3417V47.6947H7.20586V45.3417C7.20586 44.9005 6.91174 44.6064 6.47057 44.6064C6.02939 44.6064 5.73527 44.9005 5.73527 45.3417V47.6947H3.38233V45.0476C3.38233 42.7682 5.14704 40.8564 7.35292 40.7094L10.6617 44.0182Z" fill="#404145"/>
</svg>
