<svg width="50" height="50" viewBox="0 0 50 50" fill="none" xmlns="http://www.w3.org/2000/svg">
<path d="M42.9688 37.5H39.8438V32.0312C39.8438 31.824 39.7614 31.6253 39.6149 31.4788C39.4684 31.3323 39.2697 31.25 39.0625 31.25H32.8125C32.6053 31.25 32.4066 31.3323 32.2601 31.4788C32.1136 31.6253 32.0312 31.824 32.0312 32.0312V37.5H28.9062V32.0312C28.9062 31.824 28.8239 31.6253 28.6774 31.4788C28.5309 31.3323 28.3322 31.25 28.125 31.25H21.875C21.6678 31.25 21.4691 31.3323 21.3226 31.4788C21.1761 31.6253 21.0938 31.824 21.0938 32.0312V37.5H17.1875V32.0312C17.1875 31.824 17.1052 31.6253 16.9587 31.4788C16.8122 31.3323 16.6135 31.25 16.4062 31.25H10.1562C9.94905 31.25 9.75034 31.3323 9.60382 31.4788C9.45731 31.6253 9.375 31.824 9.375 32.0312V37.5H7.03125C5.58085 37.5 4.18985 38.0762 3.16426 39.1018C2.13867 40.1273 1.5625 41.5183 1.5625 42.9688C1.5625 44.4192 2.13867 45.8102 3.16426 46.8357C4.18985 47.8613 5.58085 48.4375 7.03125 48.4375H42.9688C44.4192 48.4375 45.8102 47.8613 46.8357 46.8357C47.8613 45.8102 48.4375 44.4192 48.4375 42.9688C48.4375 41.5183 47.8613 40.1273 46.8357 39.1018C45.8102 38.0762 44.4192 37.5 42.9688 37.5ZM33.5938 32.8125H35.1562V34.375H36.7188V32.8125H38.2812V37.5H33.5938V32.8125ZM22.6562 32.8125H24.2188V34.375H25.7812V32.8125H27.3438V37.5H22.6562V32.8125ZM10.9375 32.8125H12.5V34.375H14.0625V32.8125H15.625V37.5H10.9375V32.8125ZM42.9688 46.875H7.03125C5.99525 46.875 5.00168 46.4634 4.26911 45.7309C3.53655 44.9983 3.125 44.0048 3.125 42.9688C3.125 41.9327 3.53655 40.9392 4.26911 40.2066C5.00168 39.4741 5.99525 39.0625 7.03125 39.0625H42.9688C44.0048 39.0625 44.9983 39.4741 45.7309 40.2066C46.4635 40.9392 46.875 41.9327 46.875 42.9688C46.875 44.0048 46.4635 44.9983 45.7309 45.7309C44.9983 46.4634 44.0048 46.875 42.9688 46.875Z" fill="#325343"/>
<path d="M9.375 40.625C8.91145 40.625 8.45831 40.7625 8.07288 41.02C7.68746 41.2775 7.38705 41.6436 7.20966 42.0718C7.03227 42.5001 6.98585 42.9713 7.07629 43.426C7.16672 43.8806 7.38994 44.2983 7.71772 44.626C8.0455 44.9538 8.46312 45.177 8.91776 45.2675C9.3724 45.3579 9.84365 45.3115 10.2719 45.1341C10.7002 44.9567 11.0662 44.6563 11.3238 44.2709C11.5813 43.8854 11.7188 43.4323 11.7188 42.9688C11.7188 42.3471 11.4718 41.751 11.0323 41.3115C10.5927 40.8719 9.9966 40.625 9.375 40.625ZM9.375 43.75C9.22048 43.75 9.06944 43.7042 8.94096 43.6183C8.81249 43.5325 8.71235 43.4105 8.65322 43.2677C8.59409 43.125 8.57862 42.9679 8.60876 42.8163C8.63891 42.6648 8.71331 42.5256 8.82257 42.4163C8.93183 42.3071 9.07104 42.2327 9.22259 42.2025C9.37413 42.1724 9.53122 42.1878 9.67397 42.247C9.81673 42.3061 9.93874 42.4062 10.0246 42.5347C10.1104 42.6632 10.1563 42.8142 10.1563 42.9688C10.1563 43.176 10.0739 43.3747 9.92743 43.5212C9.78092 43.6677 9.5822 43.75 9.375 43.75Z" fill="#325343"/>
<path d="M17.1875 40.625C16.724 40.625 16.2708 40.7625 15.8854 41.02C15.5 41.2775 15.1996 41.6436 15.0222 42.0718C14.8448 42.5001 14.7984 42.9713 14.8888 43.426C14.9792 43.8806 15.2024 44.2983 15.5302 44.626C15.858 44.9538 16.2756 45.177 16.7303 45.2675C17.1849 45.3579 17.6562 45.3115 18.0844 45.1341C18.5127 44.9567 18.8787 44.6563 19.1363 44.2709C19.3938 43.8854 19.5313 43.4323 19.5313 42.9688C19.5313 42.3471 19.2843 41.751 18.8448 41.3115C18.4052 40.8719 17.8091 40.625 17.1875 40.625ZM17.1875 43.75C17.033 43.75 16.8819 43.7042 16.7535 43.6183C16.625 43.5325 16.5249 43.4105 16.4657 43.2677C16.4066 43.125 16.3911 42.9679 16.4213 42.8163C16.4514 42.6648 16.5258 42.5256 16.6351 42.4163C16.7443 42.3071 16.8835 42.2327 17.0351 42.2025C17.1866 42.1724 17.3437 42.1878 17.4865 42.247C17.6292 42.3061 17.7512 42.4062 17.8371 42.5347C17.9229 42.6632 17.9688 42.8142 17.9688 42.9688C17.9688 43.176 17.8864 43.3747 17.7399 43.5212C17.5934 43.6677 17.3947 43.75 17.1875 43.75Z" fill="#325343"/>
<path d="M25 40.625C24.5365 40.625 24.0833 40.7625 23.6979 41.02C23.3125 41.2775 23.0121 41.6436 22.8347 42.0718C22.6573 42.5001 22.6109 42.9713 22.7013 43.426C22.7917 43.8806 23.0149 44.2983 23.3427 44.626C23.6705 44.9538 24.0881 45.177 24.5428 45.2675C24.9974 45.3579 25.4686 45.3115 25.8969 45.1341C26.3252 44.9567 26.6912 44.6563 26.9488 44.2709C27.2063 43.8854 27.3438 43.4323 27.3438 42.9688C27.3438 42.3471 27.0968 41.751 26.6573 41.3115C26.2177 40.8719 25.6216 40.625 25 40.625ZM25 43.75C24.8455 43.75 24.6944 43.7042 24.566 43.6183C24.4375 43.5325 24.3374 43.4105 24.2782 43.2677C24.2191 43.125 24.2036 42.9679 24.2338 42.8163C24.2639 42.6648 24.3383 42.5256 24.4476 42.4163C24.5568 42.3071 24.696 42.2327 24.8476 42.2025C24.9991 42.1724 25.1562 42.1878 25.299 42.247C25.4417 42.3061 25.5637 42.4062 25.6496 42.5347C25.7354 42.6632 25.7813 42.8142 25.7813 42.9688C25.7813 43.176 25.6989 43.3747 25.5524 43.5212C25.4059 43.6677 25.2072 43.75 25 43.75Z" fill="#325343"/>
<path d="M32.8125 40.625C32.349 40.625 31.8958 40.7625 31.5104 41.02C31.125 41.2775 30.8246 41.6436 30.6472 42.0718C30.4698 42.5001 30.4234 42.9713 30.5138 43.426C30.6042 43.8806 30.8274 44.2983 31.1552 44.626C31.483 44.9538 31.9006 45.177 32.3553 45.2675C32.8099 45.3579 33.2811 45.3115 33.7094 45.1341C34.1377 44.9567 34.5037 44.6563 34.7613 44.2709C35.0188 43.8854 35.1563 43.4323 35.1563 42.9688C35.1563 42.3471 34.9093 41.751 34.4698 41.3115C34.0302 40.8719 33.4341 40.625 32.8125 40.625ZM32.8125 43.75C32.658 43.75 32.5069 43.7042 32.3785 43.6183C32.25 43.5325 32.1499 43.4105 32.0907 43.2677C32.0316 43.125 32.0161 42.9679 32.0463 42.8163C32.0764 42.6648 32.1508 42.5256 32.2601 42.4163C32.3693 42.3071 32.5085 42.2327 32.6601 42.2025C32.8116 42.1724 32.9687 42.1878 33.1115 42.247C33.2542 42.3061 33.3762 42.4062 33.4621 42.5347C33.5479 42.6632 33.5938 42.8142 33.5938 42.9688C33.5938 43.176 33.5114 43.3747 33.3649 43.5212C33.2184 43.6677 33.0197 43.75 32.8125 43.75Z" fill="#325343"/>
<path d="M40.625 40.625C40.1615 40.625 39.7083 40.7625 39.3229 41.02C38.9375 41.2775 38.6371 41.6436 38.4597 42.0718C38.2823 42.5001 38.2359 42.9713 38.3263 43.426C38.4167 43.8806 38.6399 44.2983 38.9677 44.626C39.2955 44.9538 39.7131 45.177 40.1678 45.2675C40.6224 45.3579 41.0936 45.3115 41.5219 45.1341C41.9502 44.9567 42.3162 44.6563 42.5738 44.2709C42.8313 43.8854 42.9688 43.4323 42.9688 42.9688C42.9688 42.3471 42.7218 41.751 42.2823 41.3115C41.8427 40.8719 41.2466 40.625 40.625 40.625ZM40.625 43.75C40.4705 43.75 40.3194 43.7042 40.191 43.6183C40.0625 43.5325 39.9624 43.4105 39.9032 43.2677C39.8441 43.125 39.8286 42.9679 39.8588 42.8163C39.8889 42.6648 39.9633 42.5256 40.0726 42.4163C40.1818 42.3071 40.321 42.2327 40.4726 42.2025C40.6241 42.1724 40.7812 42.1878 40.924 42.247C41.0667 42.3061 41.1887 42.4062 41.2746 42.5347C41.3604 42.6632 41.4063 42.8142 41.4063 42.9688C41.4063 43.176 41.3239 43.3747 41.1774 43.5212C41.0309 43.6677 40.8322 43.75 40.625 43.75Z" fill="#325343"/>
<path d="M32.8125 10.9375V7.8125C32.8125 7.63834 32.7543 7.46917 32.6471 7.33187C32.54 7.19457 32.39 7.09701 32.2211 7.05469L31.2109 6.80234L31.7469 5.90938C31.8363 5.75997 31.8733 5.58496 31.8519 5.41213C31.8306 5.23931 31.7521 5.07858 31.6289 4.95547L29.4195 2.74609C29.2964 2.62275 29.1355 2.54413 28.9625 2.52275C28.7895 2.50138 28.6143 2.53847 28.4648 2.62813L27.5727 3.16406L27.3203 2.15469C27.2781 1.9856 27.1806 1.83547 27.0433 1.72816C26.906 1.62086 26.7368 1.56255 26.5625 1.5625H23.4375C23.2632 1.56255 23.094 1.62086 22.9567 1.72816C22.8194 1.83547 22.7219 1.9856 22.6797 2.15469L22.4273 3.16406L21.5352 2.62813C21.3857 2.53847 21.2105 2.50138 21.0375 2.52275C20.8645 2.54413 20.7036 2.62275 20.5805 2.74609L18.3711 4.95547C18.2479 5.07858 18.1694 5.23931 18.1481 5.41213C18.1267 5.58496 18.1637 5.75997 18.2531 5.90938L18.7891 6.80234L17.7789 7.05469C17.61 7.09701 17.46 7.19457 17.3529 7.33187C17.2457 7.46917 17.1875 7.63834 17.1875 7.8125V10.9375C17.1875 11.1117 17.2457 11.2808 17.3529 11.4181C17.46 11.5554 17.61 11.653 17.7789 11.6953L18.7883 11.9477L18.2531 12.8398C18.1637 12.9892 18.1267 13.1643 18.1481 13.3371C18.1694 13.5099 18.2479 13.6706 18.3711 13.7937L20.5805 16.0039C20.7036 16.1273 20.8645 16.2059 21.0375 16.2272C21.2105 16.2486 21.3857 16.2115 21.5352 16.1219L22.4273 15.5859L22.6797 16.5953C22.7219 16.7644 22.8194 16.9145 22.9567 17.0218C23.094 17.1291 23.2632 17.1875 23.4375 17.1875H24.2188V18.8937C23.7634 19.0548 23.3688 19.3525 23.0891 19.7463C22.8094 20.1401 22.6583 20.6107 22.6562 21.0938V22.4219L21.225 24.5688C21.1488 24.6831 21.1041 24.8156 21.0955 24.9528C21.0868 25.0899 21.1145 25.227 21.1758 25.35L22.7383 28.475C22.8309 28.6604 22.9934 28.8015 23.19 28.8671C23.3866 28.9328 23.6013 28.9176 23.7867 28.825C23.9722 28.7324 24.1132 28.5699 24.1789 28.3733C24.2445 28.1766 24.2293 27.962 24.1367 27.7766L22.7766 25.057L23.8555 23.4375H26.1445L27.2234 25.0562L25.8594 27.7758C25.7668 27.9612 25.7516 28.1759 25.8172 28.3725C25.8829 28.5691 26.0239 28.7316 26.2094 28.8242C26.3948 28.9168 26.6095 28.932 26.8061 28.8664C27.0027 28.8007 27.1652 28.6597 27.2578 28.4742L28.8203 25.3492C28.8816 25.2262 28.9093 25.0892 28.9006 24.952C28.892 24.8148 28.8473 24.6824 28.7711 24.568L27.3438 22.4219V21.0938C27.3417 20.6107 27.1906 20.1401 26.9109 19.7463C26.6312 19.3525 26.2366 19.0548 25.7812 18.8937V17.1875H26.5625C26.7368 17.1875 26.906 17.1291 27.0433 17.0218C27.1806 16.9145 27.2781 16.7644 27.3203 16.5953L27.5727 15.5859L28.4648 16.1219C28.6143 16.2115 28.7895 16.2486 28.9625 16.2272C29.1355 16.2059 29.2964 16.1273 29.4195 16.0039L31.6289 13.7937C31.7521 13.6706 31.8306 13.5099 31.8519 13.3371C31.8733 13.1643 31.8363 12.9892 31.7469 12.8398L31.2117 11.9477L32.2211 11.6953C32.39 11.653 32.54 11.5554 32.6471 11.4181C32.7543 11.2808 32.8125 11.1117 32.8125 10.9375ZM25.7812 21.875H24.2188V21.0938C24.2188 20.8865 24.3011 20.6878 24.4476 20.5413C24.5941 20.3948 24.7928 20.3125 25 20.3125C25.2072 20.3125 25.4059 20.3948 25.5524 20.5413C25.6989 20.6878 25.7812 20.8865 25.7812 21.0938V21.875ZM31.25 10.3273L29.8094 10.6883C29.691 10.7179 29.5813 10.7748 29.4889 10.8545C29.3965 10.9342 29.3241 11.0344 29.2774 11.147C29.2307 11.2597 29.211 11.3818 29.2199 11.5035C29.2289 11.6251 29.2662 11.743 29.3289 11.8477L30.093 13.1203L28.75 14.468L27.4766 13.7039C27.3719 13.6411 27.2539 13.6036 27.1322 13.5946C27.0104 13.5855 26.8882 13.6052 26.7754 13.6519C26.6626 13.6986 26.5624 13.7711 26.4826 13.8636C26.4029 13.956 26.346 14.0659 26.3164 14.1844L25.9523 15.625H24.0477L23.6875 14.1844C23.6579 14.0659 23.601 13.956 23.5213 13.8636C23.4415 13.7711 23.3413 13.6986 23.2285 13.6519C23.1157 13.6052 22.9935 13.5855 22.8717 13.5946C22.75 13.6036 22.632 13.6411 22.5273 13.7039L21.2539 14.468L19.907 13.1203L20.6711 11.8477C20.7338 11.743 20.7711 11.6251 20.7801 11.5035C20.789 11.3818 20.7693 11.2597 20.7226 11.147C20.6759 11.0344 20.6035 10.9342 20.5111 10.8545C20.4187 10.7748 20.309 10.7179 20.1906 10.6883L18.75 10.3273V8.42266L20.1906 8.06172C20.309 8.0321 20.4187 7.97517 20.5111 7.89551C20.6035 7.81584 20.6759 7.71565 20.7226 7.60295C20.7693 7.49026 20.789 7.36819 20.7801 7.24653C20.7711 7.12487 20.7338 7.00699 20.6711 6.90234L19.907 5.62891L21.2539 4.28125L22.5273 5.04609C22.632 5.10895 22.75 5.14639 22.8717 5.15543C22.9935 5.16446 23.1157 5.14484 23.2285 5.09812C23.3413 5.0514 23.4415 4.9789 23.5213 4.88643C23.601 4.79395 23.6579 4.68408 23.6875 4.56562L24.0477 3.125H25.9523L26.3125 4.56562C26.3421 4.68408 26.399 4.79395 26.4787 4.88643C26.5585 4.9789 26.6587 5.0514 26.7715 5.09812C26.8843 5.14484 27.0065 5.16446 27.1283 5.15543C27.25 5.14639 27.368 5.10895 27.4727 5.04609L28.75 4.28125L30.0969 5.62891L29.3328 6.90234C29.2701 7.00699 29.2328 7.12487 29.2239 7.24653C29.2149 7.36819 29.2346 7.49026 29.2813 7.60295C29.328 7.71565 29.4004 7.81584 29.4928 7.89551C29.5852 7.97517 29.6949 8.0321 29.8133 8.06172L31.25 8.42266V10.3273Z" fill="#325343"/>
<path d="M25 6.25C24.3819 6.25 23.7777 6.43328 23.2638 6.77666C22.7499 7.12004 22.3494 7.60809 22.1129 8.17911C21.8764 8.75013 21.8145 9.37847 21.935 9.98466C22.0556 10.5908 22.3533 11.1477 22.7903 11.5847C23.2273 12.0217 23.7842 12.3194 24.3903 12.44C24.9965 12.5605 25.6249 12.4986 26.1959 12.2621C26.7669 12.0256 27.255 11.6251 27.5983 11.1112C27.9417 10.5973 28.125 9.99307 28.125 9.375C28.125 8.5462 27.7958 7.75134 27.2097 7.16529C26.6237 6.57924 25.8288 6.25 25 6.25ZM25 10.9375C24.691 10.9375 24.3889 10.8459 24.1319 10.6742C23.875 10.5025 23.6747 10.2585 23.5564 9.97294C23.4382 9.68743 23.4072 9.37327 23.4675 9.07017C23.5278 8.76708 23.6766 8.48867 23.8951 8.27015C24.1137 8.05163 24.3921 7.90281 24.6952 7.84252C24.9983 7.78223 25.3124 7.81318 25.5979 7.93144C25.8835 8.0497 26.1275 8.24997 26.2992 8.50692C26.4709 8.76387 26.5625 9.06597 26.5625 9.375C26.5625 9.7894 26.3979 10.1868 26.1049 10.4799C25.8118 10.7729 25.4144 10.9375 25 10.9375Z" fill="#325343"/>
<path d="M3.90625 11.7188H7.8125V16.55C7.3571 16.711 6.96257 17.0088 6.68288 17.4026C6.40319 17.7964 6.252 18.267 6.25 18.75V20.0781L4.81875 22.2227C4.74255 22.337 4.69788 22.4695 4.68923 22.6067C4.68059 22.7438 4.70829 22.8809 4.76953 23.0039L6.33203 26.1289C6.42465 26.3144 6.58714 26.4554 6.78376 26.521C6.98038 26.5867 7.19502 26.5715 7.38047 26.4789C7.56591 26.3863 7.70697 26.2238 7.77261 26.0272C7.83824 25.8306 7.82309 25.6159 7.73047 25.4305L6.37031 22.7125L7.44922 21.0938H9.73828L10.8172 22.7125L9.45703 25.432C9.36441 25.6175 9.34926 25.8321 9.41489 26.0287C9.48053 26.2254 9.62159 26.3878 9.80703 26.4805C9.99248 26.5731 10.2071 26.5882 10.4037 26.5226C10.6004 26.457 10.7629 26.3159 10.8555 26.1305L12.418 23.0055C12.4792 22.8824 12.5069 22.7454 12.4983 22.6082C12.4896 22.4711 12.4449 22.3386 12.3687 22.2242L10.9375 20.0781V18.75C10.9355 18.267 10.7843 17.7964 10.5046 17.4026C10.2249 17.0088 9.8304 16.711 9.375 16.55V11.7188H15.5242V10.1562H3.90625C3.69905 10.1562 3.50034 10.0739 3.35382 9.92743C3.20731 9.78091 3.125 9.5822 3.125 9.375C3.125 9.1678 3.20731 8.96909 3.35382 8.82257C3.50034 8.67606 3.69905 8.59375 3.90625 8.59375H15.6V7.03125H3.90625C3.28465 7.03125 2.68851 7.27818 2.24897 7.71772C1.80943 8.15726 1.5625 8.7534 1.5625 9.375C1.5625 9.9966 1.80943 10.5927 2.24897 11.0323C2.68851 11.4718 3.28465 11.7188 3.90625 11.7188ZM9.375 19.5312H7.8125V18.75C7.8125 18.5428 7.89481 18.3441 8.04132 18.1976C8.18784 18.0511 8.38655 17.9688 8.59375 17.9688C8.80095 17.9688 8.99966 18.0511 9.14618 18.1976C9.29269 18.3441 9.375 18.5428 9.375 18.75V19.5312Z" fill="#325343"/>
<path d="M46.0938 7.03125H34.35V8.59375H46.0938C46.301 8.59375 46.4997 8.67606 46.6462 8.82257C46.7927 8.96909 46.875 9.1678 46.875 9.375C46.875 9.5822 46.7927 9.78091 46.6462 9.92743C46.4997 10.0739 46.301 10.1562 46.0938 10.1562H34.375V11.7187H40.625V16.55C40.1696 16.711 39.7751 17.0088 39.4954 17.4026C39.2157 17.7964 39.0645 18.267 39.0625 18.75V20.0781L37.6312 22.225C37.555 22.3394 37.5104 22.4718 37.5017 22.609C37.4931 22.7462 37.5208 22.8832 37.582 23.0062L39.1445 26.1313C39.2371 26.3167 39.3996 26.4577 39.5963 26.5234C39.7929 26.589 40.0075 26.5739 40.193 26.4812C40.3784 26.3886 40.5195 26.2261 40.5851 26.0295C40.6507 25.8329 40.6356 25.6183 40.543 25.4328L39.1828 22.7133L40.2617 21.0937H42.5508L43.6297 22.7125L42.2695 25.432C42.1769 25.6175 42.1618 25.8321 42.2274 26.0287C42.293 26.2254 42.4341 26.3878 42.6195 26.4805C42.805 26.5731 43.0196 26.5882 43.2162 26.5226C43.4129 26.457 43.5753 26.3159 43.668 26.1305L45.2305 23.0055C45.2917 22.8824 45.3194 22.7454 45.3108 22.6082C45.3021 22.4711 45.2575 22.3386 45.1813 22.2242L43.75 20.0781V18.75C43.748 18.267 43.5968 17.7964 43.3171 17.4026C43.0374 17.0088 42.6429 16.711 42.1875 16.55V11.7187H46.0938C46.7154 11.7187 47.3115 11.4718 47.751 11.0323C48.1906 10.5927 48.4375 9.9966 48.4375 9.375C48.4375 8.7534 48.1906 8.15726 47.751 7.71772C47.3115 7.27818 46.7154 7.03125 46.0938 7.03125ZM42.1875 19.5312H40.625V18.75C40.625 18.5428 40.7073 18.3441 40.8538 18.1976C41.0003 18.0511 41.199 17.9687 41.4062 17.9687C41.6135 17.9687 41.8122 18.0511 41.9587 18.1976C42.1052 18.3441 42.1875 18.5428 42.1875 18.75V19.5312Z" fill="#325343"/>
</svg>
