<svg width="50" height="50" viewBox="0 0 50 50" fill="none" xmlns="http://www.w3.org/2000/svg">
<path d="M32.2363 15.9011C27.3736 8.74722 20.8791 4.94502 17.478 7.27469C17.1035 7.53843 16.7781 7.86572 16.5165 8.24173C16.5165 8.2692 8.64288 24.2033 8.64288 24.2033L4.24727 27.1813C3.57248 27.6394 2.99456 28.2259 2.5465 28.9074C2.09845 29.5888 1.78904 30.3519 1.63597 31.153C1.4829 31.9541 1.48915 32.7775 1.65438 33.5761C1.81961 34.3748 2.14056 35.1331 2.59892 35.8077L2.79672 36.0989C3.72321 37.4485 5.14442 38.3784 6.75211 38.687C8.35979 38.9956 10.0243 38.6579 11.3846 37.7472L18.4451 48.1483C19.4835 49.4285 21.478 50.7033 23.9396 49.2033C24.3757 48.9205 24.7476 48.5495 25.0316 48.1142C25.3155 47.6788 25.505 47.1889 25.5879 46.6758C25.6874 46.1655 25.6847 45.6405 25.58 45.1312C25.4753 44.6219 25.2707 44.1385 24.978 43.7088L18.7583 34.5329C18.7583 34.5329 33.4616 33.3626 33.5165 33.3406C33.9756 33.2445 34.4108 33.0577 34.7967 32.7912C36.544 31.6044 37.1704 29.1153 36.566 25.7802C36.022 22.7088 34.478 19.2307 32.2363 15.9011ZM4.39562 35.0164L4.19782 34.7252C3.88158 34.2597 3.66026 33.7363 3.54654 33.1851C3.43282 32.6339 3.42892 32.0656 3.53508 31.5129C3.64123 30.9602 3.85535 30.4339 4.16518 29.964C4.47501 29.4941 4.87446 29.09 5.34068 28.7747L9.13738 26.1923L14.1484 33.5714L10.3517 36.1538C9.88599 36.4705 9.36248 36.6922 8.81105 36.8064C8.25961 36.9207 7.69108 36.9251 7.13794 36.8195C6.5848 36.7138 6.0579 36.5002 5.58736 36.1909C5.11681 35.8815 4.71185 35.4824 4.39562 35.0164ZM23.3956 44.7912C23.6959 45.238 23.8067 45.7857 23.7037 46.3141C23.6007 46.8425 23.2923 47.3085 22.8462 47.6099C22.3985 47.9104 21.8499 48.0214 21.3206 47.9184C20.7913 47.8154 20.3243 47.5069 20.022 47.0604L12.9835 36.6923L15.8132 34.7692L16.5605 34.7088L23.3956 44.7912ZM15.9671 32.8241L10.5055 24.7802L15.7143 14.1593C16.2198 17.1428 17.6978 20.6868 20.0605 24.1648C22.4231 27.6428 25.1703 30.3241 27.7528 31.8956L15.9671 32.8241ZM32.1758 31.5439C29.5495 31.3736 25.2747 28.4121 21.6539 23.0769C18.033 17.7417 16.8572 12.6923 17.6649 10.1813C17.8107 9.70996 18.1018 9.29678 18.4965 9.00075C18.8912 8.70473 19.3693 8.54099 19.8627 8.53293C22.4671 8.53293 26.9011 11.511 30.6264 17C32.7253 20.0879 34.2528 23.3186 34.6703 26.1428C35.489 31.5439 32.1758 31.5439 32.1758 31.5439Z" fill="#325343"/>
<path d="M25.3682 16.1044C24.6951 15.9722 24.0025 15.9756 23.3308 16.1143C22.659 16.2529 22.0217 16.5242 21.4561 16.9121C21.3518 16.9842 21.2628 17.0762 21.1941 17.1828C21.1253 17.2893 21.0783 17.4084 21.0556 17.5331C21.0329 17.6579 21.035 17.7859 21.0617 17.9098C21.0885 18.0338 21.1394 18.1512 21.2116 18.2555C21.2837 18.3597 21.3757 18.4488 21.4823 18.5175C21.5888 18.5862 21.7079 18.6333 21.8326 18.656C21.9574 18.6787 22.0854 18.6766 22.2093 18.6498C22.3332 18.6231 22.4507 18.5721 22.555 18.5C22.9132 18.2568 23.3159 18.0866 23.7399 17.9991C24.1639 17.9115 24.601 17.9083 25.0263 17.9897C25.4516 18.0711 25.8566 18.2354 26.2184 18.4733C26.5801 18.7113 26.8915 19.0181 27.1346 19.3764C27.3778 19.7346 27.548 20.1372 27.6356 20.5613C27.7231 20.9853 27.7263 21.4224 27.6449 21.8477C27.5636 22.273 27.3992 22.678 27.1613 23.0398C26.9234 23.4015 26.6165 23.7129 26.2583 23.956C26.0893 24.0727 25.9622 24.2403 25.8954 24.4345C25.8286 24.6286 25.8257 24.839 25.8871 25.0349C25.9485 25.2308 26.071 25.4018 26.2367 25.5231C26.4023 25.6444 26.6024 25.7094 26.8077 25.7088C27.0036 25.7125 27.1957 25.6548 27.3572 25.5439C28.2118 24.965 28.8753 24.1455 29.2638 23.1891C29.6522 22.2328 29.7481 21.1826 29.5392 20.1718C29.3303 19.1609 28.8261 18.2347 28.0904 17.5107C27.3547 16.7866 26.4207 16.2972 25.4066 16.1044H25.3682Z" fill="#325343"/>
<path d="M33.4231 9.21425H33.5165C33.7544 9.21415 33.9837 9.12592 34.1603 8.9666C34.3368 8.80728 34.4481 8.58817 34.4726 8.35161L35.2143 1.14282C35.2312 1.01535 35.2224 0.885788 35.1883 0.761801C35.1542 0.637814 35.0956 0.521921 35.016 0.420977C34.9363 0.320033 34.8372 0.23609 34.7246 0.174115C34.6119 0.112139 34.488 0.0733889 34.3601 0.0601578C34.2322 0.0469267 34.1029 0.0594831 33.9799 0.097084C33.857 0.134685 33.7428 0.196567 33.6442 0.279068C33.5455 0.361569 33.4645 0.463014 33.4057 0.5774C33.347 0.691787 33.3118 0.816791 33.3022 0.945018L32.566 8.1593C32.5399 8.41284 32.6155 8.66638 32.7762 8.86419C32.9369 9.06201 33.1696 9.18792 33.4231 9.21425Z" fill="#325343"/>
<path d="M45.8516 7.73068C45.7105 7.51786 45.4908 7.36953 45.2407 7.31806C44.9906 7.26659 44.7302 7.31616 44.5165 7.45595L37.8187 11.8516C37.6448 11.9664 37.5129 12.1346 37.4428 12.3309C37.3728 12.5272 37.3685 12.741 37.4305 12.9399C37.4925 13.1389 37.6174 13.3124 37.7865 13.4342C37.9557 13.556 38.1598 13.6195 38.3681 13.6153C38.5625 13.6198 38.7538 13.5662 38.9176 13.4614L45.6154 9.06584C45.8232 8.91965 45.9646 8.69717 46.0089 8.44699C46.0532 8.19682 45.9966 7.9393 45.8516 7.73068Z" fill="#325343"/>
<path d="M47.9011 19.4669L40.1099 18.0658C39.8585 18.0207 39.5995 18.0772 39.3898 18.223C39.1801 18.3688 39.0369 18.5919 38.9917 18.8433C38.9466 19.0947 39.0031 19.3537 39.1489 19.5634C39.2947 19.7731 39.5178 19.9163 39.7692 19.9615L47.5549 21.3626H47.7253C47.9703 21.3697 48.2087 21.283 48.392 21.1203C48.5752 20.9575 48.6894 20.7309 48.7111 20.4867C48.7329 20.2426 48.6606 19.9994 48.509 19.8068C48.3574 19.6142 48.138 19.4867 47.8956 19.4505L47.9011 19.4669Z" fill="#325343"/>
</svg>
