<svg width="75" height="75" viewBox="0 0 75 75" fill="none" xmlns="http://www.w3.org/2000/svg">
<path d="M40.1871 7.37451L35.1562 12.4054L33.641 10.8901L31.984 12.5472L34.3277 14.8909C34.5562 15.1194 34.8562 15.2343 35.1562 15.2343C35.4562 15.2343 35.7562 15.1194 35.9848 14.8909L41.8441 9.03154L40.1871 7.37451Z" fill="white"/>
<path d="M60.9375 28.1249C61.2375 28.1249 61.5375 28.0101 61.766 27.7815L67.6254 21.9222L65.9684 20.2651L60.9375 25.296L59.4223 23.7808L57.7652 25.4378L60.109 27.7815C60.3375 28.0101 60.6375 28.1249 60.9375 28.1249Z" fill="white"/>
<path d="M63.2812 53.9062C60.607 53.9062 58.1965 55.0383 56.4867 56.8406L38.2066 43.4437C39.2402 41.6988 39.8438 39.6703 39.8438 37.5C39.8438 36.4934 39.7031 35.5219 39.4629 34.5891L54.9598 28.9102C56.5219 31.9195 59.6625 33.9844 63.2812 33.9844C68.4504 33.9844 72.6562 29.7785 72.6562 24.6094C72.6562 19.4402 68.4504 15.2344 63.2812 15.2344C58.1121 15.2344 53.9062 19.4402 53.9062 24.6094C53.9062 25.3324 53.9965 26.0332 54.1523 26.7094L38.6543 32.3895C37.5 30.0199 35.5746 28.1016 33.2016 26.9543L35.427 20.8547C36.0949 21.007 36.7863 21.0938 37.5 21.0938C42.6691 21.0938 46.875 16.8879 46.875 11.7188C46.875 6.54961 42.6691 2.34375 37.5 2.34375C32.3309 2.34375 28.125 6.54961 28.125 11.7188C28.125 15.348 30.2016 18.4945 33.225 20.052L30.9984 26.1527C30.0773 25.9184 29.1176 25.7812 28.125 25.7812C26.2313 25.7812 24.4465 26.243 22.8609 27.0445L17.7012 18.9293C19.7719 17.2078 21.0938 14.6156 21.0938 11.7188C21.0938 6.54961 16.8879 2.34375 11.7188 2.34375C6.54961 2.34375 2.34375 6.54961 2.34375 11.7188C2.34375 16.8879 6.54961 21.0938 11.7188 21.0938C13.152 21.0938 14.5055 20.7609 15.7219 20.1832L20.884 28.3043C18.1629 30.4523 16.4062 33.7711 16.4062 37.5C16.4062 41.0426 17.993 44.2172 20.4855 46.3676L16.0875 52.65C14.782 51.9586 13.2961 51.5625 11.7188 51.5625C6.54961 51.5625 2.34375 55.7684 2.34375 60.9375C2.34375 66.1066 6.54961 70.3125 11.7188 70.3125C16.8879 70.3125 21.0938 66.1066 21.0938 60.9375C21.0938 58.1871 19.8961 55.718 18.0035 54.0012L22.4027 47.7164C24.0973 48.6691 26.0473 49.2188 28.125 49.2188C31.575 49.2188 34.6711 47.7117 36.818 45.3305L55.0945 58.725C54.3398 60.0762 53.9062 61.6277 53.9062 63.2812C53.9062 68.4504 58.1121 72.6562 63.2812 72.6562C68.4504 72.6562 72.6562 68.4504 72.6562 63.2812C72.6562 58.1121 68.4504 53.9062 63.2812 53.9062ZM63.2812 17.5781C67.159 17.5781 70.3125 20.7316 70.3125 24.6094C70.3125 28.4871 67.159 31.6406 63.2812 31.6406C59.4035 31.6406 56.25 28.4871 56.25 24.6094C56.25 20.7316 59.4035 17.5781 63.2812 17.5781ZM30.4688 11.7188C30.4688 7.84102 33.6223 4.6875 37.5 4.6875C41.3777 4.6875 44.5312 7.84102 44.5312 11.7188C44.5312 15.5965 41.3777 18.75 37.5 18.75C33.6223 18.75 30.4688 15.5965 30.4688 11.7188ZM4.6875 11.7188C4.6875 7.84102 7.84102 4.6875 11.7188 4.6875C15.5965 4.6875 18.75 7.84102 18.75 11.7188C18.75 15.5965 15.5965 18.75 11.7188 18.75C7.84102 18.75 4.6875 15.5965 4.6875 11.7188ZM18.75 60.9375C18.75 64.8152 15.5965 67.9688 11.7188 67.9688C7.84102 67.9688 4.6875 64.8152 4.6875 60.9375C4.6875 57.0598 7.84102 53.9062 11.7188 53.9062C15.5965 53.9062 18.75 57.0598 18.75 60.9375ZM28.125 46.875C22.9559 46.875 18.75 42.6691 18.75 37.5C18.75 32.3309 22.9559 28.125 28.125 28.125C33.2941 28.125 37.5 32.3309 37.5 37.5C37.5 42.6691 33.2941 46.875 28.125 46.875ZM63.2812 70.3125C59.4035 70.3125 56.25 67.159 56.25 63.2812C56.25 59.4035 59.4035 56.25 63.2812 56.25C67.159 56.25 70.3125 59.4035 70.3125 63.2812C70.3125 67.159 67.159 70.3125 63.2812 70.3125Z" fill="white"/>
<path d="M9.37499 61.6241L7.85976 60.1089L6.20273 61.7659L8.54648 64.1097C8.77499 64.3382 9.07499 64.453 9.37499 64.453C9.67499 64.453 9.97499 64.3382 10.2035 64.1097L16.0629 58.2503L14.4059 56.5933L9.37499 61.6241Z" fill="white"/>
</svg>
