<svg width="50" height="50" viewBox="0 0 50 50" fill="none" xmlns="http://www.w3.org/2000/svg">
<g clip-path="url(#clip0_54_3999)">
<path d="M45.6618 6.33697L45.2548 5.92984C42.463 3.13814 38.7399 1.61792 34.7721 1.65952C31.1438 1.69439 27.7087 3.02124 24.9994 5.41577C22.2909 3.03052 18.8292 1.72739 15.1507 1.72739C11.1506 1.72739 7.40693 3.26812 4.60938 6.06577L4.33828 6.33677C1.54062 9.13452 0 12.8542 0 16.8107C0 20.7673 1.54072 24.4869 4.33818 27.2839L7.35273 30.2985L6.79609 30.9125C5.40088 32.4514 5.4585 34.8077 6.92734 36.2766C7.68916 37.0384 8.73769 37.4491 9.81367 37.4127C9.71768 38.5205 10.1066 39.657 10.973 40.4968C11.6954 41.197 12.6397 41.5792 13.6418 41.5792C13.8661 41.5792 14.0903 41.56 14.3112 41.5216C14.3559 42.4268 14.7225 43.3178 15.4091 44.0099C16.1296 44.7361 17.0835 45.1332 18.1029 45.1332C18.4475 45.1332 18.7919 45.0876 19.1241 44.996C19.2287 45.7711 19.572 46.5204 20.1547 47.1338C20.8799 47.8974 21.8592 48.3261 22.9122 48.3408C23.9523 48.3567 24.9654 47.9452 25.7022 47.2115L37.435 35.5109C37.817 35.1288 37.817 34.5092 37.4349 34.1272C37.0527 33.745 36.4332 33.7452 36.0511 34.1273L24.3217 45.8246C23.7429 46.4009 22.8303 46.5483 22.1006 46.1793C21.4162 45.8332 20.9928 45.0898 21.0585 44.3245C21.0946 43.9034 21.2741 43.5032 21.5566 43.1898L28.7161 35.359C29.0808 34.9602 29.053 34.3413 28.6542 33.9766C28.2554 33.6118 27.6364 33.6397 27.2718 34.0384L19.4651 42.577C19.1217 42.9526 18.6523 43.1653 18.1435 43.1756C17.6313 43.1857 17.1569 42.9926 16.7984 42.6315C16.1058 41.9333 16.0828 40.8176 16.7463 40.0917L24.8751 31.3135C25.2434 30.918 25.2214 30.2988 24.8259 29.9305C24.4304 29.5623 23.8111 29.5844 23.443 29.9798L15.0219 39.0228C14.6745 39.3959 14.2025 39.6085 13.6931 39.6215C13.1825 39.6334 12.7013 39.4463 12.3353 39.0915C11.5984 38.3773 11.5646 37.2253 12.2578 36.4689L20.8224 27.1256C21.1875 26.7273 21.1606 26.1084 20.7623 25.7431C20.3639 25.3779 19.7449 25.4049 19.3798 25.8033L11.1034 34.8323C10.3698 35.6321 9.07949 35.6605 8.31143 34.8926C7.58145 34.1625 7.55273 32.9915 8.24619 32.2266L23.4837 15.4193L26.8838 18.2552C28.5803 19.6701 31.116 19.5381 32.6564 17.9547C33.4736 17.1148 33.911 15.9617 33.8564 14.791C33.8019 13.6204 33.2591 12.5127 32.3673 11.7524L26.474 6.72808C28.802 4.74361 31.7803 3.64527 34.8543 3.61577C34.812 3.61577 34.8967 3.61538 34.8543 3.61577C38.2449 3.61577 41.4838 4.92583 43.8711 7.31314L44.2781 7.72027C46.7061 10.1482 48.0432 13.3764 48.0432 16.8103C48.0432 20.2442 46.7061 23.4721 44.2781 25.8997L42.2036 27.9743C41.8215 28.3564 41.8216 28.9759 42.2037 29.3581C42.5858 29.7401 43.2054 29.7401 43.5875 29.3581L45.6619 27.2834C48.4593 24.4869 50 20.7674 50 16.8107C50 12.8542 48.4594 9.13452 45.6618 6.33697ZM31.9015 14.8825C31.9313 15.5239 31.7013 16.1304 31.2536 16.5906C30.4219 17.4455 29.053 17.5166 28.1371 16.7527L24.016 13.3154C23.6131 12.9794 23.0168 13.0209 22.6644 13.4096L8.66875 28.8469L5.72187 25.9002C3.29404 23.4726 1.95693 20.2446 1.95693 16.8108C1.95693 13.377 3.29404 10.1487 5.72187 7.72075L5.99297 7.44976C8.4209 5.02173 11.6731 3.68452 15.1505 3.68452C18.6278 3.68452 21.8801 5.02173 24.308 7.44976C24.319 7.46079 31.0974 13.242 31.0974 13.242C31.586 13.6585 31.8715 14.2412 31.9015 14.8825Z" fill="#325343"/>
<path d="M39.0954 31.0674C38.7265 31.4608 38.7464 32.0788 39.1397 32.4477C39.5331 32.8167 40.1512 32.7968 40.5201 32.4033C40.8891 32.0099 40.8691 31.3919 40.4758 31.0229C40.0823 30.6541 39.4643 30.6739 39.0954 31.0674Z" fill="#325343"/>
</g>
<defs>
<clipPath id="clip0_54_3999">
<rect width="50" height="50" fill="white"/>
</clipPath>
</defs>
</svg>
