<svg width="75" height="75" viewBox="0 0 75 75" fill="none" xmlns="http://www.w3.org/2000/svg">
<g clip-path="url(#clip0_77_770)">
<path d="M0.849976 70.016L1.8222 72.2044L36.7094 57.7386L42.7873 58.4681L44.9751 65.1537L42.0578 67.9499C40.9639 68.9221 40.5995 70.5022 41.2073 71.9611L42.4229 75L62.6009 67.0988L61.507 64.1815C61.0209 62.7226 59.6837 61.8721 58.1037 61.8721H54.0919L51.9041 56.6447L57.2525 53.9708C58.9542 53.1197 59.6837 51.1746 59.0759 49.4729L52.1475 30.8749C51.418 28.9299 49.3513 28.0787 47.4062 28.6865C47.4062 28.6865 47.2852 28.6865 47.2852 28.8082L42.1795 30.996L41.4501 29.1726L44.2462 25.8909C46.1907 23.7025 47.4062 21.0286 47.7713 18.1114L51.2963 13.8569C53.6058 11.1823 53.1197 7.17119 50.4452 4.86112C49.9591 4.49669 49.473 4.13225 48.9869 3.8889C47.6496 3.28111 46.3124 3.15944 44.854 3.52447L44.489 2.42997C43.8812 0.485529 41.6934 -0.487287 39.87 0.242177L14.2213 9.48066C12.2763 10.2101 11.304 12.2762 12.0335 14.0996V14.2213L12.6413 15.8013C9.48067 17.2602 8.02175 20.9069 9.11565 24.0676C9.96679 26.4987 12.1546 28.2004 14.7074 28.5648L20.4208 29.1726C22.7303 30.8749 25.5259 31.9688 28.3221 32.2116L32.3332 32.5766L33.0627 34.3999C32.2116 34.8861 31.6038 35.7372 31.361 36.8311L30.5099 40.9639L0.849976 52.998L1.70112 55.3075L18.7192 48.5007L22.852 60.8992L0.849976 70.016ZM59.0759 64.911L59.3192 65.6399L43.7595 71.8394L43.3951 71.1099C43.2734 70.6238 43.3951 70.1377 43.6384 69.7733L47.7713 65.8832L52.998 64.1815H57.8603C58.4681 64.1815 58.8331 64.4243 59.0759 64.911ZM51.418 61.9931L47.0418 63.4521L45.4618 58.8331C46.1907 58.9542 46.7985 58.8331 47.4062 58.4681L49.473 57.4959L51.418 61.9931ZM48.1357 30.6315C48.7435 30.3882 49.473 30.6315 49.7163 31.2393L50.6885 33.7922L44.7323 35.7372L45.4618 38.0467L51.418 36.1016L52.8763 39.9917L47.1635 41.9361L47.893 44.2462L53.7275 42.3012L55.1864 46.1907L49.5946 48.014L50.3241 50.3241L56.0369 48.3791L56.6447 49.9591C56.8881 50.5668 56.6447 51.1746 56.0369 51.418L46.434 56.1586C46.1907 56.2803 45.9479 56.2803 45.7046 56.2803L37.4389 55.3075L32.941 41.8151L33.7922 37.3172C33.9138 36.9528 34.1566 36.5877 34.5216 36.4661L48.1357 30.6315ZM48.014 6.0767C49.9591 6.92784 50.9319 9.23731 50.0808 11.304C49.9591 11.6685 49.7163 11.9118 49.473 12.2762L48.014 14.0996C47.893 12.884 47.6496 11.7901 47.2852 10.5746L45.7046 5.83394C46.5557 5.71226 47.2852 5.83394 48.014 6.0767ZM11.5468 23.4598C10.8179 21.3931 11.6685 19.2053 13.6135 18.2324L15.3152 22.3659C15.923 23.8242 16.7741 25.2831 17.7463 26.4987L15.1935 26.2554C13.4918 26.1337 12.0335 25.0398 11.5468 23.4598ZM28.8082 29.9021C23.8242 29.416 19.448 26.2554 17.6247 21.5147L14.4647 13.4918C14.2213 12.884 14.4647 12.1546 15.0724 11.9118L40.7206 2.67333C41.0856 2.55165 41.3284 2.55165 41.6934 2.67333C41.9362 2.795 42.1795 3.03776 42.3012 3.40279L44.9751 11.4257C46.434 15.923 45.4618 20.7853 42.4229 24.3103L38.6545 28.6865L39.7484 31.6038L35.3722 33.4271L34.1566 30.3882L28.8082 29.9021ZM21.0286 47.5279L23.8242 46.434L26.8632 55.6725L29.1726 54.943L26.0126 45.4618L30.8749 43.5168L35.0077 55.7942L25.1615 59.927L21.0286 47.5279Z" fill="white"/>
<path d="M60.8992 21.2712V22.4868H63.3304V21.2712C63.3304 17.8678 66.0049 15.1933 69.4082 15.1933V12.7622C66.0049 12.7622 63.3304 10.0883 63.3304 6.68432V5.46875H60.8992V6.68432C60.8992 10.0883 58.2253 12.7622 54.8214 12.7622V15.1933C58.2253 15.1933 60.8992 17.8678 60.8992 21.2712ZM62.1148 11.0605C62.8443 12.2761 63.8165 13.2489 65.0321 13.9778C63.8165 14.7072 62.8443 15.6801 62.1148 16.8956C61.3853 15.6801 60.4131 14.7072 59.1975 13.9778C60.4131 13.2489 61.3853 12.2761 62.1148 11.0605Z" fill="white"/>
<path d="M7.41393 45.5827V46.7983H9.84508V45.5827C9.84508 42.1794 12.5196 39.5049 15.923 39.5049V37.0737C12.5196 37.0737 9.84508 34.3998 9.84508 30.9958V29.7803H7.41393V30.9958C7.41393 34.3998 4.74003 37.0737 1.33606 37.0737V39.5049C4.74003 39.5049 7.41393 42.1794 7.41393 45.5827ZM8.62951 35.372C9.35897 36.5876 10.3312 37.5604 11.5468 38.2893C10.3312 39.0188 9.35897 39.9916 8.62951 41.2071C7.90004 39.9916 6.92782 39.0188 5.71225 38.2893C6.92782 37.5604 7.90004 36.5876 8.62951 35.372Z" fill="white"/>
<path d="M68.1927 30.9958V29.7803H65.7615V30.9958C65.7615 34.3998 63.0876 37.0737 59.6837 37.0737V39.5049C63.0876 39.5049 65.7615 42.1794 65.7615 45.5827V46.7983H68.1927V45.5827C68.1927 42.1794 70.8672 39.5049 74.2706 39.5049V37.0737C70.8672 37.0737 68.1927 34.3998 68.1927 30.9958ZM66.9771 41.2071C66.2476 39.9916 65.2754 39.0188 64.0598 38.2893C65.2754 37.5604 66.2476 36.5876 66.9771 35.372C67.7066 36.5876 68.6788 37.5604 69.8944 38.2893C68.6788 39.0188 67.7066 39.9916 66.9771 41.2071Z" fill="white"/>
<path d="M36.9528 21.6364L38.6544 23.3381C45.3401 16.6524 39.1406 6.44169 38.7761 6.07666L36.7094 7.41391C36.8311 7.41391 42.3012 16.288 36.9528 21.6364Z" fill="white"/>
</g>
<defs>
<clipPath id="clip0_77_770">
<rect width="75" height="75" fill="white"/>
</clipPath>
</defs>
</svg>
