<svg width="50" height="50" viewBox="0 0 50 50" fill="none" xmlns="http://www.w3.org/2000/svg">
<g clip-path="url(#clip0_54_3932)">
<path d="M2.07154 20.628C1.04954 20.7937 0.25895 21.6131 0.129873 22.6405C-0.0417367 24.1965 -0.0434643 25.7665 0.124854 27.323C0.242167 28.3662 1.03761 29.2048 2.07319 29.3771L4.72482 29.8112C5.23389 31.9795 6.09325 34.0503 7.26893 35.942L5.70816 38.122C5.08622 38.9652 5.10128 40.1193 5.74485 40.9461C6.24158 41.5539 6.77015 42.135 7.32817 42.687C7.83987 43.1995 8.40562 43.7145 9.08482 44.2853C9.9051 44.9161 11.0434 44.9293 11.8781 44.3178L14.0689 42.7462C15.9586 43.9217 18.0274 44.7813 20.1938 45.2911L20.6289 47.9469C20.7942 48.9693 21.6138 49.7603 22.6414 49.8894C23.1164 49.9427 23.5989 49.9802 24.0847 50.0002H24.1555C24.5898 49.9999 25.0075 49.8328 25.3221 49.5335C25.6493 49.2209 25.8339 48.7878 25.8329 48.3352V41.6569C25.828 40.7646 25.1236 40.0331 24.2321 39.9945C16.256 39.578 10.0024 32.9894 10.0024 25.0025C10.0024 17.0156 16.256 10.427 24.2321 10.0106C25.125 9.97141 25.8298 9.23775 25.8329 8.34392V1.66901C25.8342 1.21597 25.6492 0.782419 25.3212 0.469886C24.9938 0.148632 24.5468 -0.0209202 24.0887 0.00236143C23.6037 0.0215297 23.1229 0.0564932 22.6295 0.106512C21.6025 0.238879 20.787 1.03473 20.6295 2.05814L20.1954 4.71142C18.029 5.22164 15.9602 6.08149 14.0705 7.25725L11.8797 5.68891C11.0372 5.07282 9.88791 5.09116 9.06557 5.73391C8.4614 6.2285 7.88314 6.75386 7.3331 7.3081C6.7662 7.86225 6.23253 8.44939 5.73482 9.06639C5.09897 9.88775 5.08268 11.0305 5.69483 11.8697L7.26564 14.0631C6.09095 15.9545 5.23274 18.0251 4.72482 20.193L2.07154 20.628ZM6.23237 21.0929C6.71684 18.7393 7.64629 16.4998 8.97071 14.4947C9.1605 14.2064 9.15285 13.8309 8.95154 13.5505L7.05076 10.8964C6.87504 10.6645 6.86994 10.3455 7.03826 10.1081C7.495 9.54198 7.98507 9.00354 8.50574 8.49554C9.01152 7.98466 9.54272 7.49953 10.0974 7.04221C10.3361 6.86023 10.667 6.86023 10.9057 7.04221L13.5557 8.9439C13.8364 9.14471 14.2119 9.15162 14.4999 8.96142C16.5033 7.63651 18.7415 6.70672 21.094 6.22225C21.4322 6.15257 21.6924 5.88142 21.7482 5.54059L22.2723 2.33143C22.31 2.04357 22.5311 1.81405 22.8173 1.76559C23.2581 1.71977 23.7048 1.68727 24.1665 1.66893L24.1482 8.34466C15.2762 8.79779 8.31669 16.1259 8.32162 25.0094C8.32648 33.893 15.2941 41.2134 24.1665 41.6568L24.1548 48.3351C23.7073 48.3167 23.2641 48.2817 22.8266 48.2325C22.5389 48.1905 22.3135 47.9638 22.2732 47.6758L21.7482 44.465C21.6924 44.1242 21.4323 43.8531 21.094 43.7834C18.7415 43.2985 16.5033 42.3685 14.4999 41.0434C14.2117 40.8533 13.8363 40.8607 13.5557 41.0617L10.9032 42.9651C10.677 43.141 10.3628 43.1494 10.1274 42.9859C9.51491 42.4701 8.98404 41.9859 8.50574 41.5084C7.99478 41.0035 7.50998 40.4729 7.05323 39.9184C6.87348 39.6783 6.87348 39.3485 7.05323 39.1084L8.95237 36.4567C9.15343 36.1762 9.16075 35.8007 8.97071 35.5126C7.64621 33.5079 6.71676 31.2686 6.23237 28.9152C6.16277 28.5772 5.89203 28.3171 5.55152 28.261L2.34319 27.7351C2.04456 27.6857 1.81528 27.4436 1.78237 27.1426C1.62631 25.7093 1.62796 24.2631 1.78739 22.8302C1.82885 22.5423 2.05525 22.3163 2.34319 22.2752L5.55062 21.7502C5.89244 21.6942 6.16384 21.4325 6.23237 21.0929Z" fill="#325343"/>
<path d="M47.4996 22.5019C46.4439 22.5063 45.5048 23.1733 45.1529 24.1686H25.8331V21.6685H39.1663C40.547 21.6685 41.6663 20.5493 41.6663 19.1686V14.8487C42.8142 14.4428 43.5028 13.269 43.2969 12.0689C43.091 10.8689 42.0504 9.9917 40.8329 9.9917C39.6153 9.9917 38.5748 10.8689 38.3689 12.0689C38.163 13.269 38.8516 14.4428 39.9995 14.8487V19.1686C39.9995 19.6288 39.6264 20.002 39.1662 20.002H25.8331V17.5019H34.9997C35.4599 17.5019 35.8329 17.1289 35.8329 16.6686C35.8329 16.2083 35.4599 15.8352 34.9997 15.8352H25.8331V14.1686H30.8331C32.2138 14.1686 33.3331 13.0493 33.3331 11.6686V6.51542C34.481 6.10959 35.1696 4.93572 34.9637 3.73569C34.7578 2.53566 33.7173 1.65845 32.4997 1.65845C31.2822 1.65845 30.2417 2.53566 30.0357 3.73569C29.8298 4.93572 30.5184 6.10959 31.6664 6.51542V11.6687C31.6664 12.1289 31.2933 12.5021 30.833 12.5021H25.6131C25.3264 11.9692 24.7542 11.6537 24.1506 11.6955C17.1282 12.1403 11.6602 17.9655 11.6602 25.002C11.6602 32.0385 17.1282 37.8637 24.1506 38.3085H24.2481C24.8174 38.3133 25.3426 38.0028 25.6131 37.5019H30.833C31.2932 37.5019 31.6664 37.875 31.6664 38.3353V43.4886C30.5184 43.8944 29.8298 45.0683 30.0357 46.2683C30.2417 47.4683 31.2822 48.3455 32.4997 48.3455C33.7173 48.3455 34.7578 47.4683 34.9637 46.2683C35.1696 45.0683 34.481 43.8944 33.3331 43.4886V38.3353C33.3331 36.9546 32.2138 35.8353 30.8331 35.8353H25.8331V34.1686H34.9997C35.4599 34.1686 35.8329 33.7955 35.8329 33.3353C35.8329 32.8751 35.4599 32.502 34.9997 32.502H25.8331V30.002H39.1663C39.6265 30.002 39.9997 30.3751 39.9997 30.8353V35.1552C38.8517 35.5611 38.1632 36.7349 38.3691 37.935C38.575 39.135 39.6155 40.0122 40.8331 40.0122C42.0506 40.0122 43.0911 39.135 43.297 37.935C43.503 36.7349 42.8144 35.5611 41.6664 35.1552V30.8353C41.6664 29.4546 40.5472 28.3354 39.1665 28.3354H25.8331V25.8352H45.1529C45.5787 27.0307 46.8339 27.7162 48.0699 27.4285C49.3059 27.1407 50.1292 25.9713 49.9833 24.7106C49.8373 23.4501 48.7685 22.4997 47.4996 22.5019ZM40.833 11.6687C41.2932 11.6687 41.6663 12.0418 41.6663 12.5021C41.6663 12.9624 41.2932 13.3354 40.833 13.3354C40.3728 13.3354 39.9997 12.9624 39.9997 12.5021C39.9997 12.0418 40.3727 11.6687 40.833 11.6687ZM32.4997 3.33546C32.9599 3.33546 33.3331 3.70854 33.3331 4.16883C33.3331 4.62911 32.96 5.00211 32.4997 5.00211C32.0394 5.00211 31.6664 4.62903 31.6664 4.16883C31.6664 3.70863 32.0394 3.33546 32.4997 3.33546ZM32.4997 46.6684C32.0395 46.6684 31.6664 46.2953 31.6664 45.835C31.6664 45.3747 32.0395 45.0016 32.4997 45.0016C32.9599 45.0016 33.3331 45.3747 33.3331 45.835C33.3331 46.2953 32.9599 46.6684 32.4997 46.6684ZM40.833 38.3351C40.3728 38.3351 39.9997 37.962 39.9997 37.5018C39.9997 37.0415 40.3728 36.6685 40.833 36.6685C41.2932 36.6685 41.6663 37.0415 41.6663 37.5018C41.6663 37.962 41.2932 38.3351 40.833 38.3351ZM13.3332 25.0019C13.3402 18.8848 18.0655 13.8092 24.1665 13.3654V36.6385C18.0655 36.1946 13.3402 31.119 13.3332 25.0019ZM47.4996 25.8352C47.0394 25.8352 46.6662 25.4621 46.6662 25.0018C46.6662 24.5415 47.0393 24.1686 47.4996 24.1686C47.9599 24.1686 48.3329 24.5416 48.3329 25.0018C48.3329 25.462 47.9598 25.8352 47.4996 25.8352Z" fill="#325343"/>
</g>
<defs>
<clipPath id="clip0_54_3932">
<rect width="50" height="50" fill="white"/>
</clipPath>
</defs>
</svg>
