<svg width="50" height="50" viewBox="0 0 50 50" fill="none" xmlns="http://www.w3.org/2000/svg">
<path d="M46.9595 26.6217C46.9595 26.5541 46.8919 26.5541 46.8919 26.4865C46.4189 25.6082 45.2027 25.0676 43.3784 25.0001C43.5811 23.8514 43.7162 22.6352 43.7162 21.419C43.7162 16.2838 41.6216 11.6217 38.2432 8.2433C34.7973 4.79735 30.1351 2.70276 25 2.70276C19.8649 2.70276 15.2027 4.79735 11.8243 8.17573C11.8243 8.17573 11.8243 8.17573 11.7568 8.17573V8.2433C8.37838 11.6217 6.35135 16.2838 6.28378 21.419V21.4865V21.5541C6.28378 25.2028 7.36486 28.7163 9.32432 31.7568C9.05405 31.5541 8.78378 31.3514 8.58108 31.1487C8.37838 30.946 8.10811 30.946 7.83784 31.0136L3.10811 33.1082C2.9054 33.1082 2.77027 33.3109 2.7027 33.5136C2.63513 33.7163 2.7027 33.919 2.77027 34.0541C4.12162 36.0136 6.21621 37.6352 8.64865 38.6487C7.9054 39.3244 7.63513 40.4055 8.04054 41.419L8.51351 42.4325L6.75675 43.3109C5.74324 43.7838 5.33784 45.0001 5.74324 46.0136C6.08108 46.8244 6.82432 47.2974 7.63513 47.2974C7.9054 47.2974 8.17567 47.2298 8.37838 47.1622L16.6216 43.919C20.1351 43.446 23.7162 42.6352 27.2297 41.6217C27.6351 42.5676 28.5811 43.1082 29.527 43.1082C29.8649 43.1082 30.2027 43.0406 30.5405 42.9055L35.5405 40.7433C35.6757 40.6757 35.8108 40.5406 35.8784 40.3379C35.9459 40.2028 35.9459 40.0001 35.8784 39.7974L35.4054 38.7163C36.4189 38.3109 38.0405 37.5676 38.1757 37.5001C39.7973 36.7568 42.5 35.2028 44.5946 33.1082C46.9595 30.7433 47.8378 28.5136 46.9595 26.6217ZM18.7838 34.1217C17.027 34.0541 15.4054 33.8514 13.9865 33.5811C17.973 30.2703 23.2432 28.9865 28.3108 29.9325L18.7838 34.1217ZM7.63513 20.7433C7.77027 16.4865 9.52703 12.5676 12.2297 9.59465C13.5811 10.8784 15.0676 11.8919 16.6892 12.6352C16.0811 15.0676 15.6757 17.7703 15.6757 20.6757H7.63513V20.7433ZM42.3649 20.7433H34.3243C34.2568 17.8379 33.9189 15.0676 33.3108 12.7028C34.9324 11.8919 36.4189 10.8784 37.7703 9.66222C40.473 12.5676 42.2297 16.4865 42.3649 20.7433ZM24.3243 13.2433C22.2973 13.1757 20.2703 12.7028 18.3784 11.9595C19.7297 7.63519 21.8919 4.59465 24.3243 4.12168V13.2433ZM25.6757 14.5947C27.8378 14.5271 30 14.0541 32.027 13.2433C32.5676 15.473 32.973 18.0406 32.973 20.7433H25.6757V14.5947ZM25.6757 13.2433V4.12168C28.1081 4.59465 30.3378 7.63519 31.6216 11.9595C29.7297 12.7703 27.7027 13.1757 25.6757 13.2433ZM32.9054 11.3514C31.9595 8.37843 30.6757 6.01357 29.1216 4.52708C32.027 5.27033 34.6622 6.68924 36.8243 8.6487C35.6081 9.79735 34.3243 10.6757 32.9054 11.3514ZM17.0946 11.3514C15.7432 10.6757 14.3919 9.72979 13.2432 8.6487C15.4054 6.68924 18.0405 5.20276 20.9459 4.52708C19.3243 6.08114 17.973 8.446 17.0946 11.3514ZM17.973 13.2433C20 14.0541 22.1622 14.5271 24.3243 14.5947V20.7433H17.027C17.0946 18.1082 17.4324 15.5406 17.973 13.2433ZM24.3243 22.0947V28.2433C22.1622 28.3109 20 28.7838 17.973 29.5946C17.3649 27.2974 17.0946 24.7298 17.027 22.0947H24.3243ZM30.3378 29.0541C28.7838 28.5811 27.2297 28.3109 25.6757 28.3109V22.1622H32.973C32.9054 24.2568 32.7027 26.2838 32.3649 28.1757L30.3378 29.0541ZM34.3243 22.0947H42.3649C42.2973 23.1082 42.2297 24.0541 42.027 25.0001C40.0676 25.1352 37.973 25.6757 36.2162 26.419L33.8514 27.4325C34.1216 25.8109 34.3243 23.9865 34.3243 22.0947ZM42.8378 26.3514C44.1216 26.3514 44.9324 26.5541 45.4054 26.7568L43.3108 28.3109C42.3649 29.0541 41.1487 29.2568 40 28.9865L42.8378 26.3514ZM7.63513 22.0947H15.6757C15.7432 24.9325 16.0811 27.7028 16.7568 30.1352C15.2027 30.8784 13.7162 31.8919 12.4324 33.1082C12.2973 33.0406 12.1622 33.0406 12.027 32.973C9.32432 30.0001 7.77027 26.1487 7.63513 22.0947ZM4.45946 33.919L7.97297 32.3649C9.93243 33.8514 12.6351 34.8649 16.0811 35.2703L15.9459 35.3379L10.2027 37.8379C7.9054 37.0271 5.87838 35.6082 4.45946 33.919ZM7.9054 45.8784C7.56757 46.0136 7.09459 45.8784 6.95946 45.473C6.82432 45.1352 6.95946 44.6622 7.2973 44.5271L16.0135 40.2703C16.1486 40.2028 16.3514 40.1352 16.4865 40.1352C16.6216 40.1352 16.7568 40.1352 16.8919 40.2028C17.1622 40.3379 17.4324 40.5406 17.5676 40.8109C17.7027 41.0811 17.7027 41.419 17.5676 41.6892C17.4324 41.9595 17.2297 42.1622 16.9595 42.2973L16.2162 42.6352H16.1486L7.9054 45.8784ZM30 41.6217C29.3919 41.8919 28.7162 41.6217 28.4459 41.0136C28.1757 40.2703 28.5135 39.6622 29.0541 39.3919L33.4459 37.5001L33.9189 38.5136L34.3919 39.6622L30 41.6217ZM43.5811 32.1622C41.7568 33.9865 39.2568 35.5406 37.5676 36.2838C36.8243 36.6217 35.6081 37.1622 34.7973 37.5001L34.3243 36.419C34.2568 36.2838 34.1216 36.1487 33.9189 36.0811C33.7838 36.0136 33.5811 36.0136 33.3784 36.0811L28.3784 38.2433C27.5 38.6487 26.9595 39.3919 26.8919 40.2703C24.1892 41.0811 21.4189 41.7568 18.7162 42.2298C18.9865 41.6217 18.9189 40.946 18.7162 40.3379C18.4459 39.7298 17.973 39.2568 17.2973 38.9865C16.6892 38.7838 15.9459 38.7838 15.3378 39.0541L9.72973 41.8919L9.32432 40.8784C9.05405 40.3379 9.32432 39.7298 9.86486 39.4595L10.5405 39.1892L19.1216 35.4055L36.6892 27.7028C37.8378 27.2298 39.1892 26.8244 40.6081 26.5541L38.2432 28.7838C38.1081 28.919 37.973 29.1217 38.0405 29.3919C38.0405 29.5946 38.1757 29.7974 38.3784 29.9325C39.1892 30.3379 40 30.5406 40.8784 30.5406C42.027 30.5406 43.1757 30.2028 44.1216 29.4595L45.9459 28.1082C45.9459 29.5946 44.527 31.2163 43.5811 32.1622Z" fill="#1CBE72"/>
</svg>
